<svg width="94" height="156" viewBox="0 0 94 156" fill="none" xmlns="http://www.w3.org/2000/svg">
<path d="M25.4874 1.06183C13.4813 2.98489 7.43479 12.4983 5.91228 17.0146L0.434814 77.7969C0.662332 94.9925 2.15067 115.521 5.78354 138.985C7.30605 143.502 13.3526 153.015 25.3587 154.938C37.3647 156.861 61.3914 155.739 71.904 154.938C76.7615 153.846 86.6941 149.125 87.5641 138.985C88.2896 130.53 94.2421 109.917 93.992 77.7969C94.2421 45.6763 88.4183 25.4701 87.6928 17.0146C86.8228 6.87474 76.8903 2.15448 72.0327 1.06183C61.5202 0.260544 37.4935 -0.861237 25.4874 1.06183Z" fill="#191814"/>
<path d="M93.9609 111.734C49.6018 99.8327 13.2378 106.211 0.000244141 111.734V96C13.2378 101.523 48.5936 106.288 93.9609 96V111.734Z" fill="#FAEC03"/>
<path d="M93.9609 66.7342C49.6018 54.8327 13.2378 61.2114 0.000244141 66.7342V51C13.2378 56.5228 48.5936 61.2877 93.9609 51V66.7342Z" fill="#FAEC03"/>
</svg>
