<svg width="171" height="171" viewBox="0 0 171 171" fill="none" xmlns="http://www.w3.org/2000/svg">
<circle cx="85.5" cy="85.5" r="85.5" fill="#191814"/>
<path d="M24.3438 24.9375L147.25 147.844M24.3438 147.844L147.25 24.9375" stroke="#FAEC03" stroke-width="10"/>
<path d="M138.344 152.891C139.531 147.903 137.849 143.49 136.859 141.906L141.609 138.047C146.122 139.947 150.417 139.63 152 139.234L153.484 140.422L138.344 152.891Z" fill="#FAEC03"/>
<path d="M18.2144 139.828C23.1686 141.147 27.6252 139.583 29.2343 138.635L32.9662 143.486C30.9471 147.947 31.1497 152.248 31.5033 153.842L30.2768 155.294L18.2144 139.828Z" fill="#FAEC03"/>
<path d="M29.8658 17.9982C29.3114 23.0951 31.5324 27.2636 32.7123 28.7107L28.4822 33.1339C23.7675 31.8131 19.5461 32.6644 18.0247 33.2552L16.4034 32.2627L29.8658 17.9982Z" fill="#FAEC03"/>
<path d="M155.109 29.9203C150.033 29.1958 145.793 31.2763 144.307 32.4071L140.028 28.0315C141.506 23.3636 140.796 19.1161 140.256 17.5758L141.303 15.9886L155.109 29.9203Z" fill="#FAEC03"/>
<circle cx="85.2031" cy="84.6094" r="15.7344" fill="#FAEC03"/>
<ellipse cx="85.2031" cy="84.3125" rx="11.5781" ry="11.2812" fill="#191814"/>
</svg>
