<svg width="63" height="68" viewBox="0 0 63 68" fill="none" xmlns="http://www.w3.org/2000/svg">
<path d="M9.96503 57.5002C-10.035 19.1002 12.2984 14.8335 25.965 17.5002C28.5587 18.0987 30.7625 18.2245 32.4648 18.1383C34.1757 18.0517 35.3801 17.7508 35.9648 17.5002C39.8486 16.691 43.1569 16.5639 45.9648 16.9324C57.0384 18.3859 60.3319 27.5491 60.4648 33.0002C60.9648 36.0002 60.5648 44.6002 54.9648 55.0002C47.9648 68.0002 37.4648 66.0002 34.4648 64.0002C32.0648 62.4002 29.1315 63.3335 27.9648 64.0002C20.3648 69.2002 12.7983 61.8335 9.96503 57.5002Z" fill="#191814" stroke="#FAEC03" stroke-width="3"/>
<path d="M34 20C33.6935 18.6392 33.1485 16.9384 32.3393 15.1286C29.7888 9.42453 24.6128 2.63785 16 2" stroke="#191814" stroke-width="3"/>
<path d="M49.7347 5.40079C34.278 3.79252 31.4329 10.3922 31.9424 13.8931C32.3814 14.4546 32.794 15.0292 33.1787 15.6047C44.2302 18.2142 48.8209 9.88937 49.7347 5.40079Z" fill="#191814" stroke="#191814" stroke-width="3"/>
</svg>
