<svg width="229" height="113" viewBox="0 0 229 113" fill="none" xmlns="http://www.w3.org/2000/svg">
<path d="M112 74C112 89.464 99.464 102 84 102C68.536 102 56 89.464 56 74C56 58.536 68.536 46 84 46C99.464 46 112 58.536 112 74Z" fill="#FAEC03"/>
<path d="M93.6302 51.4531C95.162 52.7638 98.4007 55.4288 99.101 55.6036C99.9763 55.822 100.195 56.4774 100.414 56.4774C100.633 56.4774 101.289 56.9142 101.946 58.0065C102.602 59.0987 103.478 60.4093 103.696 61.2831C103.915 62.1569 104.353 62.5938 104.572 62.8122C104.791 63.0307 105.447 62.8122 105.447 63.0307C105.447 63.2491 105.228 63.9045 105.447 64.3413C105.622 64.6909 105.666 65.2151 105.666 65.4336C105.885 65.652 106.322 66.2637 106.322 66.9627C106.322 67.8364 106.104 68.2733 106.322 68.7102C106.541 69.1471 107.417 71.9869 106.76 76.5742C106.235 80.2441 105.228 82.7635 104.791 83.5644L102.821 86.6226C101.873 87.7149 99.9325 89.943 99.7575 90.1178C99.5386 90.3362 97.1315 93.6129 96.9127 93.6129C96.6938 93.6129 95.162 93.6129 94.7244 93.8313C94.2867 94.0497 92.536 96.2342 92.0984 96.2342H87.7217L87.2841 95.5789C87.7947 95.2876 88.8159 94.6177 88.8159 94.2682C88.8159 93.8313 90.5666 93.6129 90.7854 93.6129C91.0042 93.6129 94.9432 94.9235 97.5692 90.3362L97.788 88.3702L98.8821 87.7149C99.101 88.0061 99.8888 88.2828 101.289 87.0595C102.69 85.8362 103.332 84.9479 103.478 84.6566C103.259 83.9285 102.952 82.3411 103.478 81.8169C104.134 81.1615 104.134 79.6324 104.134 79.414C104.134 79.2392 104.28 78.4674 104.353 78.1033C104.791 78.1761 105.71 78.0159 105.885 76.7927C106.104 75.2636 105.666 69.584 105.447 69.3656C105.228 69.1471 104.572 68.7102 104.134 68.7102C103.784 68.7102 103.842 68.1277 103.915 67.8364C104.28 67.618 104.966 66.919 104.791 65.8705C104.572 64.5598 102.165 59.754 100.852 59.3171C99.8012 58.9676 99.101 58.8802 98.8821 58.8802L97.788 58.0065C97.9339 57.3511 97.6567 55.7783 95.3808 54.7298C92.9055 53.5893 91.9213 52.6143 90.5541 53.0998C89.4099 54.8071 87.4451 58.3726 86.5232 62.2022C86.4018 62.8354 86.2885 63.4127 86.19 63.9045C86.2745 63.3347 86.3876 62.7656 86.5232 62.2022C87.1123 59.1304 87.8926 54.7427 88.1044 52.4268C87.7757 52.0267 87.3292 51.4982 87.0653 51.2347C86.7151 50.8852 86.4817 50.3609 86.4088 50.1425C87.5029 49.9968 89.8663 49.8366 90.5666 50.3609C91.2668 50.8852 92.9008 51.3075 93.6302 51.4531Z" fill="#191814"/>
<path d="M85.9711 96.8895C84.7311 97.0352 81.8571 97.1517 80.2815 96.4526C80.2085 96.3798 79.8876 96.3216 79.1873 96.6711C78.4871 97.0206 78.1661 96.6711 78.0932 96.4526C77.8743 96.1614 77.0865 95.5352 75.686 95.3604C73.9354 95.142 72.4035 94.7051 71.3094 93.8313C71.3094 93.3944 70.9155 92.3022 69.3399 91.4284C67.7643 90.5546 67.2245 88.8799 67.1516 88.1518C66.8598 88.0789 66.1887 87.8023 65.8386 87.278C65.4009 86.6227 65.1821 83.5644 64.7444 83.1275C64.3068 82.6907 63.4315 80.9431 63.2126 80.2878C62.9938 79.6324 62.3373 78.5402 62.1185 77.8849C61.8996 77.2296 61.6808 77.0111 61.462 75.9189C61.2431 74.8267 61.0243 73.516 61.0243 73.0791C61.0243 72.6422 60.8055 68.9287 61.6808 67.8365C62.3229 67.0353 62.6461 65.928 62.7516 65.3566C62.7579 65.2259 62.766 65.1043 62.775 64.9967C62.8194 64.6866 63.0041 63.994 63.4179 63.0269C63.7107 62.0869 63.9911 61.2831 64.088 61.2831C64.3068 61.2831 64.088 60.1909 67.1516 57.788C67.987 57.1328 68.6597 56.51 69.2052 55.9464C69.2694 55.8709 69.3408 55.7964 69.4174 55.7234C70.7147 54.3365 71.2259 53.3516 71.5283 53.2007C71.9659 52.9822 75.0296 52.5454 75.6861 52.1085C76.3426 51.6716 78.312 51.0163 78.5309 50.7978C78.7497 50.5794 79.8439 50.1425 80.0627 50.1425C80.2815 50.1425 82.6887 50.3609 82.9075 50.3609C83.1263 50.3609 85.0958 50.5794 85.5335 50.5794C85.8836 50.5794 85.9711 50.8706 85.9711 51.0163L84.4393 51.2347L81.1569 51.4531C80.2815 51.3803 78.5309 51.4968 78.5309 52.5454C78.5309 53.5939 77.8014 53.2735 77.4367 52.9822C76.5614 52.8366 74.5919 52.6764 73.7166 53.2007C72.8413 53.725 71.4553 54.4385 70.8718 54.7298C70.4985 54.9161 69.8687 55.293 69.4174 55.7234C69.3489 55.7966 69.2782 55.871 69.2052 55.9464C69.0562 56.1215 68.9464 56.3013 68.9023 56.4774C68.7272 57.1764 68.8293 58.0793 68.9023 58.4434L68.2458 58.8802C67.5164 58.6618 65.7511 58.7492 64.5257 60.8462C64.0457 61.6677 63.6843 62.4042 63.4179 63.0269C63.1819 63.7844 62.9378 64.6302 62.775 65.2151C62.769 65.2575 62.7612 65.3049 62.7516 65.3566C62.7067 66.2873 62.7522 67.6832 63.2127 67.8365C62.4832 67.9093 61.1118 69.1034 61.462 73.2976C61.8121 77.4917 62.6291 78.3946 62.9938 78.3218L63.6503 78.5402L63.8692 79.1955C63.7233 79.7053 63.519 80.8557 63.8692 81.38C64.3068 82.0353 65.4985 84.1266 65.401 84.6567C65.3035 85.1867 66.2763 88.3702 68.2458 87.9333C69.8214 87.5838 69.9235 88.6615 69.7776 89.244C69.7047 89.7537 69.6026 90.8605 69.7776 91.21C69.9964 91.6469 71.0906 92.7391 71.3094 93.176C71.5283 93.6129 74.5918 94.7051 75.686 94.7051C76.5614 94.7051 78.0932 94.1226 78.7497 93.8313C79.4062 94.7051 81.2444 96.3653 83.3452 96.0157C85.4459 95.6662 86.6276 95.7245 86.6276 95.7973L85.9711 96.8895Z" fill="#191814"/>
<path fill-rule="evenodd" clip-rule="evenodd" d="M86.4991 50.2733C86.5929 50.5161 86.8064 50.9524 87.1064 51.2519C87.3433 51.4884 87.7237 51.934 88.0353 52.3101C88.0609 51.9996 88.0747 51.7333 88.0747 51.5204C88.0747 51.2551 88.1022 51.0501 88.1554 50.8989C88.2089 50.7472 88.291 50.6426 88.404 50.5932C88.516 50.5441 88.6424 50.5564 88.7695 50.6033C88.8969 50.6503 89.033 50.7348 89.1723 50.8432C89.7274 51.2755 90.3872 52.1332 90.824 52.7873L90.8513 52.8283L90.8228 52.8684C90.7857 52.9208 90.7473 52.9758 90.7076 53.0333C91.3319 52.8699 91.8919 53.0042 92.5546 53.3013C92.8858 53.4498 93.2454 53.6402 93.6526 53.8558C93.6938 53.8777 93.7355 53.8998 93.7777 53.9221C94.2378 54.1654 94.7604 54.4386 95.3754 54.722C97.6221 55.7571 97.9557 57.3117 97.824 58.0251L98.8613 58.8535C99.114 58.8597 99.8072 58.9548 100.822 59.2924C100.999 59.3515 101.189 59.4817 101.383 59.6598C101.578 59.8386 101.783 60.07 101.991 60.3373C102.406 60.872 102.838 61.5559 103.234 62.2655C103.631 62.9753 103.993 63.7125 104.27 64.3545C104.546 64.9946 104.74 65.546 104.797 65.8819C104.974 66.9422 104.3 67.6558 103.916 67.8992C103.884 68.0388 103.858 68.2316 103.875 68.3903C103.885 68.4755 103.906 68.5431 103.938 68.5877C103.967 68.6285 104.008 68.6532 104.071 68.6532C104.309 68.6532 104.595 68.7699 104.842 68.9072C105.092 69.0456 105.316 69.2127 105.431 69.3275C105.448 69.3446 105.459 69.3675 105.467 69.3865C105.476 69.4074 105.485 69.4327 105.493 69.4611C105.509 69.5181 105.525 69.5933 105.541 69.6836C105.574 69.8644 105.608 70.1111 105.642 70.4043C105.711 70.9911 105.779 71.7682 105.834 72.5856C105.942 74.2172 105.998 76.0217 105.888 76.7928C105.798 77.4215 105.514 77.7863 105.188 77.9819C104.896 78.1572 104.577 78.1927 104.347 78.1692C104.311 78.3487 104.264 78.5965 104.224 78.8257C104.201 78.9552 104.181 79.0782 104.166 79.1796C104.151 79.2826 104.143 79.3584 104.143 79.396C104.143 79.506 104.143 79.9463 104.06 80.4422C103.978 80.9346 103.812 81.4986 103.468 81.8422C103.351 81.9581 103.276 82.1384 103.236 82.3649C103.196 82.5902 103.191 82.8533 103.21 83.1259C103.248 83.671 103.378 84.2427 103.486 84.602L103.494 84.6293L103.481 84.6547C103.329 84.9573 102.681 85.8502 101.283 87.0721C100.578 87.6872 100.02 87.9327 99.6022 87.9822C99.2251 88.0269 98.962 87.9112 98.8206 87.7641L97.8124 88.368L97.5965 90.3075L97.5891 90.3204C96.2696 92.6256 94.6153 93.4549 93.2586 93.7037C92.5818 93.8278 91.9813 93.807 91.5365 93.7554C91.314 93.7296 91.1304 93.696 90.9959 93.669C90.9547 93.6607 90.9171 93.6528 90.885 93.6461C90.8654 93.642 90.848 93.6384 90.8329 93.6353C90.8124 93.6311 90.7961 93.6279 90.7835 93.6258C90.7772 93.6248 90.7724 93.6241 90.7687 93.6236C90.7654 93.6232 90.7641 93.6232 90.7641 93.6232M90.7641 93.6232C90.6623 93.6232 90.1776 93.6765 89.7172 93.7846C89.4871 93.8387 89.2683 93.9053 89.1085 93.9834C89.0285 94.0225 88.9672 94.0627 88.9268 94.1026C88.8866 94.1424 88.8726 94.1762 88.8726 94.2049C88.8726 94.2652 88.8509 94.3259 88.819 94.3838C88.7867 94.4422 88.7413 94.5024 88.6875 94.5628C88.5799 94.6837 88.4329 94.812 88.2723 94.9366C87.9774 95.1653 87.6294 95.3873 87.376 95.5353L87.7485 96.0932H92.0731C92.0865 96.0932 92.1086 96.0887 92.141 96.0747C92.1727 96.0609 92.2101 96.0398 92.2532 96.0112C92.3393 95.954 92.4421 95.8707 92.5569 95.7679C92.7864 95.5624 93.0573 95.2852 93.33 94.9993C93.416 94.9092 93.5023 94.8181 93.5873 94.7282C93.771 94.5343 93.9492 94.3461 94.108 94.1852C94.2243 94.0674 94.3312 93.9632 94.4233 93.8813C94.5137 93.8008 94.5949 93.7371 94.6588 93.7052C94.7789 93.6452 94.9662 93.6032 95.1746 93.5725C95.3855 93.5415 95.6264 93.5209 95.8592 93.5072C96.3134 93.4806 96.7412 93.4799 96.8636 93.4799C96.8636 93.4799 96.8635 93.4799 96.8636 93.4799C96.8697 93.4764 96.8793 93.4699 96.8925 93.4592C96.9189 93.4379 96.9536 93.405 96.9963 93.3609C97.0814 93.2731 97.1925 93.1462 97.3217 92.9918C97.5799 92.6832 97.9064 92.269 98.2336 91.8471C98.461 91.5539 98.6883 91.2575 98.8928 90.9908C98.9825 90.8738 99.0678 90.7626 99.1469 90.6598C99.2764 90.4913 99.3891 90.3455 99.4764 90.235C99.5621 90.1263 99.6265 90.0474 99.6575 90.0164C99.8295 89.8448 101.756 87.6319 102.705 86.5396L104.664 83.4971C105.096 82.705 106.096 80.2032 106.618 76.5547C106.944 74.2745 106.89 72.4298 106.727 71.1019C106.564 69.7716 106.292 68.9642 106.189 68.7569C106.07 68.52 106.072 68.2848 106.1 68.0099C106.106 67.9439 106.114 67.8754 106.123 67.8036C106.15 67.5742 106.181 67.3107 106.181 66.9826C106.181 66.3121 105.759 65.7195 105.548 65.5088L105.527 65.4878V65.4582C105.527 65.3531 105.516 65.1718 105.484 64.9742C105.452 64.7759 105.399 64.5662 105.316 64.4013C105.197 64.1641 105.199 63.8741 105.227 63.6264C105.24 63.5083 105.259 63.3967 105.276 63.3019L105.279 63.2852C105.296 63.1839 105.308 63.1094 105.308 63.0626C105.308 63.0569 105.308 63.0562 105.306 63.055L105.306 63.0546C105.3 63.0502 105.287 63.0432 105.26 63.0374C105.204 63.0257 105.124 63.0254 105.026 63.0254H105.023C104.929 63.0254 104.823 63.0254 104.725 63.011C104.628 62.9966 104.528 62.9663 104.457 62.8955C104.235 62.6743 103.788 62.2275 103.565 61.3378C103.459 60.9127 103.191 60.3758 102.864 59.8043C102.654 59.438 102.423 59.0616 102.197 58.6944C102.071 58.4891 101.946 58.2867 101.828 58.0906C101.504 57.5514 101.181 57.176 100.915 56.9364C100.781 56.8165 100.663 56.7314 100.566 56.6767C100.467 56.6204 100.398 56.6009 100.363 56.6009C100.317 56.6009 100.276 56.5837 100.241 56.5611C100.206 56.5386 100.172 56.5079 100.138 56.4744C100.108 56.4441 100.075 56.4088 100.041 56.3717L100.03 56.3595C99.9913 56.3175 99.9495 56.2725 99.903 56.226C99.7178 56.0412 99.4561 55.8324 99.0364 55.7277C98.9385 55.7032 98.8041 55.638 98.6456 55.5458C98.4853 55.4526 98.2942 55.3283 98.081 55.1807C97.6547 54.8856 97.1367 54.4953 96.5936 54.0703C95.5139 53.2254 94.3322 52.2408 93.5676 51.5869C93.2005 51.5128 92.6187 51.3722 92.0401 51.1857C91.4541 50.9967 90.8624 50.7579 90.503 50.4888C90.3427 50.3688 90.0788 50.283 89.7454 50.2272C89.4145 50.1718 89.0245 50.1474 88.6202 50.1438C87.8544 50.1369 87.0439 50.2047 86.4991 50.2733M96.8598 93.4818C96.8599 93.4818 96.86 93.4817 96.8602 93.4816ZM90.58 53.2217C91.2271 52.999 91.7877 53.1146 92.4958 53.432C92.8224 53.5784 93.1777 53.7666 93.5861 53.9829C93.627 54.0045 93.6685 54.0265 93.7105 54.0487C94.171 54.2923 94.6965 54.567 95.3152 54.8521C97.5585 55.8857 97.8118 57.423 97.6749 58.0382L97.6652 58.0818L98.8105 58.9965H98.8357C99.0432 58.9965 99.7332 59.0812 100.776 59.4283C100.926 59.4781 101.098 59.5929 101.286 59.7654C101.473 59.937 101.673 60.1616 101.877 60.4251C102.287 60.9521 102.714 61.6293 103.109 62.3353C103.503 63.041 103.863 63.7738 104.138 64.4112C104.414 65.0506 104.602 65.5881 104.655 65.9055C104.823 66.9116 104.165 67.5835 103.816 67.7923L103.791 67.8075L103.783 67.8363C103.746 67.9857 103.711 68.2127 103.733 68.406C103.743 68.5023 103.769 68.5981 103.821 68.6714C103.877 68.7486 103.96 68.7965 104.071 68.7965C104.27 68.7965 104.529 68.8976 104.773 69.0325C105.013 69.1657 105.224 69.3244 105.328 69.4274C105.328 69.4281 105.331 69.4321 105.335 69.442C105.341 69.4554 105.347 69.4744 105.354 69.4998C105.369 69.5505 105.384 69.6207 105.4 69.7091C105.432 69.8856 105.466 70.1288 105.5 70.4209C105.568 71.0047 105.636 71.7793 105.69 72.5952C105.799 74.2303 105.853 76.0191 105.745 76.7725C105.661 77.3633 105.399 77.6881 105.114 77.8591C104.826 78.0321 104.506 78.0526 104.301 78.0186L104.233 78.0072L104.219 78.0752C104.183 78.2571 104.128 78.5408 104.082 78.8011C104.06 78.9311 104.039 79.0558 104.024 79.1591C104.009 79.2607 103.999 79.3464 103.999 79.396C103.999 79.5039 103.999 79.9347 103.919 80.4186C103.837 80.9062 103.676 81.4311 103.366 81.7409C103.22 81.8863 103.137 82.0998 103.095 82.3397C103.052 82.5808 103.048 82.8567 103.067 83.1358C103.105 83.6802 103.231 84.2475 103.34 84.6153C103.177 84.9181 102.543 85.7811 101.188 86.9643C100.496 87.5688 99.9638 87.7951 99.5853 87.8399C99.2077 87.8847 98.9841 87.7496 98.8931 87.6285L98.8543 87.5768L97.6775 88.2817L97.4571 90.2622C96.1601 92.5205 94.5458 93.322 93.2327 93.5627C92.5733 93.6836 91.9877 93.6635 91.5531 93.6131C91.3358 93.5879 91.1564 93.5551 91.0242 93.5285C90.9829 93.5202 90.9472 93.5127 90.9158 93.5061C90.8962 93.502 90.8783 93.4983 90.8617 93.4949C90.8571 93.494 90.8526 93.493 90.8482 93.4922C90.8329 93.4891 90.8191 93.4865 90.8073 93.4845C90.8019 93.4836 90.7962 93.4827 90.7905 93.4819C90.7815 93.4807 90.7724 93.4799 90.7642 93.4799C90.6475 93.4799 90.1508 93.5355 89.6843 93.6451C89.4507 93.7 89.2196 93.7695 89.0454 93.8547C88.9584 93.8972 88.8817 93.9455 88.8258 94.0009C88.7696 94.0564 88.7291 94.1246 88.7291 94.2049C88.7291 94.2317 88.719 94.268 88.6933 94.3145C88.6679 94.3605 88.6298 94.4119 88.5802 94.4676C88.481 94.579 88.3417 94.7012 88.1842 94.8234C87.8695 95.0675 87.4908 95.3052 87.2382 95.4493L87.1714 95.4874L87.6717 96.2365H92.0731C92.1142 96.2365 92.1569 96.224 92.1982 96.2061C92.2403 96.1878 92.2854 96.1619 92.3327 96.1305C92.4272 96.0678 92.5358 95.9793 92.6528 95.8745C92.8869 95.6649 93.1613 95.384 93.434 95.0982C93.5209 95.007 93.6076 94.9155 93.6929 94.8254C93.876 94.632 94.0525 94.4456 94.2103 94.2858C94.3257 94.1688 94.4302 94.0671 94.5188 93.9883C94.609 93.908 94.6778 93.856 94.723 93.8334C94.821 93.7845 94.9882 93.7448 95.1956 93.7143C95.4006 93.6841 95.6369 93.6638 95.8676 93.6503C96.329 93.6232 96.7635 93.6232 96.8724 93.6232C96.8984 93.6232 96.9208 93.6122 96.9344 93.6045C96.9502 93.5956 96.9666 93.5837 96.983 93.5704C97.0159 93.5438 97.0553 93.5062 97.0995 93.4606C97.1883 93.3689 97.3021 93.2389 97.4319 93.0836C97.6919 92.7729 98.0198 92.3569 98.3471 91.9348C98.5745 91.6415 98.8021 91.3449 99.0066 91.0782C99.0964 90.9611 99.1818 90.8497 99.2608 90.747C99.3903 90.5786 99.5025 90.4335 99.5891 90.3237C99.6772 90.212 99.7355 90.1412 99.759 90.1178C99.936 89.9411 101.873 87.7164 102.817 86.6296L102.82 86.6257L104.787 83.5703L104.789 83.5681C105.23 82.7606 106.236 80.2403 106.76 76.575C107.088 74.2818 107.034 72.4244 106.869 71.0845C106.705 69.7469 106.431 68.9211 106.317 68.6928C106.217 68.4941 106.215 68.2937 106.242 68.0242C106.249 67.9617 106.256 67.8955 106.265 67.8252C106.292 67.5948 106.325 67.32 106.325 66.9826C106.325 66.2809 105.901 65.67 105.67 65.4287C105.668 65.3142 105.656 65.1396 105.626 64.9512C105.592 64.7467 105.536 64.5208 105.444 64.3372C105.345 64.1389 105.343 63.8844 105.37 63.6422C105.382 63.5287 105.401 63.4209 105.417 63.3257L105.42 63.3096C105.437 63.2135 105.452 63.1246 105.452 63.0626C105.452 63.0144 105.432 62.9738 105.398 62.9447C105.366 62.9184 105.326 62.905 105.289 62.8972C105.217 62.882 105.122 62.882 105.032 62.8821H105.026C104.929 62.8821 104.832 62.8819 104.746 62.8692C104.66 62.8564 104.596 62.8322 104.558 62.7942L104.558 62.7937C104.343 62.5792 103.918 62.1548 103.705 61.303C103.593 60.8569 103.316 60.305 102.988 59.7332C102.778 59.3652 102.544 58.9849 102.317 58.6162C102.191 58.4114 102.068 58.2103 101.951 58.0168C101.621 57.4672 101.289 57.0803 101.011 56.8299C100.871 56.7048 100.744 56.613 100.637 56.552C100.532 56.4925 100.436 56.4576 100.363 56.4576C100.354 56.4576 100.34 56.4544 100.318 56.4405C100.296 56.4263 100.271 56.4043 100.24 56.3731C100.212 56.345 100.181 56.3121 100.147 56.2745L100.136 56.2626C100.097 56.2204 100.053 56.1735 100.004 56.1247C99.8078 55.9284 99.5242 55.7017 99.0713 55.5886C98.9947 55.5695 98.8755 55.5136 98.7178 55.422C98.562 55.3314 98.3744 55.2094 98.1628 55.063C97.7398 54.7701 97.2243 54.3818 96.6821 53.9575C95.5979 53.109 94.4098 52.1188 93.6468 51.466L93.6326 51.4538L93.6142 51.4501C93.2529 51.378 92.6666 51.2371 92.0842 51.0493C91.4995 50.8607 90.9278 50.6277 90.5891 50.3741C90.4004 50.2328 90.108 50.1426 89.7692 50.0859C89.428 50.0287 89.0299 50.0041 88.6215 50.0005C87.8047 49.9932 86.9396 50.0697 86.3917 50.1427L86.3057 50.1541L86.3331 50.2363C86.4076 50.4594 86.6448 50.9938 87.0049 51.3532C87.2603 51.6081 87.6914 52.1174 88.0174 52.5137C87.8028 54.8257 87.03 59.1715 86.4452 62.2215C86.3097 62.7845 86.1967 63.3535 86.1121 63.9232L86.2535 63.9478C86.3517 63.4578 86.4646 62.8826 86.5855 62.2518C87.4986 58.46 89.4407 54.9267 90.58 53.2217ZM90.4871 53.1026C90.5533 53.004 90.6168 52.9117 90.6772 52.826C90.2419 52.1795 89.6085 51.3646 89.084 50.9562C88.9506 50.8523 88.8277 50.7775 88.7198 50.7377C88.6117 50.6979 88.5268 50.6959 88.4616 50.7244C88.3973 50.7525 88.3363 50.8174 88.2909 50.9464C88.2452 51.076 88.2182 51.2629 88.2182 51.5204C88.2182 51.772 88.1995 52.0931 88.1657 52.4683C88.2652 52.5895 88.353 52.6979 88.4206 52.7823L88.4395 52.8059L88.4358 52.8359C88.4183 52.9754 88.4177 53.1354 88.4466 53.2829C88.4756 53.431 88.5331 53.5598 88.626 53.6455C88.7164 53.729 88.8486 53.7792 89.0455 53.7563C89.245 53.733 89.509 53.6346 89.8536 53.4196C90.0755 53.2811 90.2848 53.1765 90.4871 53.1026ZM88.1465 52.6714C87.9535 54.6207 87.4022 57.8643 86.8932 60.618C87.8626 57.557 89.3588 54.8279 90.3463 53.3152C90.213 53.3758 90.0747 53.4506 89.9296 53.5411C89.5761 53.7617 89.2912 53.8719 89.0621 53.8986C88.8303 53.9256 88.6544 53.8669 88.5285 53.7508C88.4051 53.6369 88.338 53.4753 88.3057 53.3104C88.2754 53.1558 88.2744 52.9923 88.2898 52.8485C88.2482 52.7967 88.1999 52.7369 88.1465 52.6714ZM78.8812 50.7365C78.7447 50.8081 78.6446 50.8718 78.5987 50.9177C78.5627 50.9536 78.4989 50.992 78.4235 51.0313C78.3456 51.072 78.2467 51.1178 78.1337 51.1674C77.938 51.2532 77.6964 51.3518 77.4408 51.456C77.4011 51.4722 77.361 51.4886 77.3207 51.505C76.7177 51.7513 76.0716 52.0205 75.7518 52.2333C75.5772 52.3495 75.2525 52.4609 74.8686 52.5661C74.4813 52.6721 74.0228 52.7746 73.5727 52.8699C73.3822 52.9102 73.1935 52.9492 73.0121 52.9867C72.7637 53.0381 72.529 53.0866 72.3222 53.1318C72.1436 53.1709 71.9871 53.2072 71.8621 53.2404C71.7353 53.2741 71.6465 53.3031 71.5993 53.3267C71.5395 53.3565 71.4599 53.434 71.3487 53.5699C71.2574 53.6815 71.1507 53.8245 71.0221 53.9969C70.9971 54.0305 70.9712 54.0651 70.9445 54.1009C70.7205 54.4005 70.438 54.773 70.0738 55.2007C70.373 54.9964 70.6683 54.829 70.8806 54.7229C71.4621 54.4327 72.8416 53.7223 73.7117 53.2011C74.166 52.9291 74.8923 52.8389 75.6022 52.8316C76.3161 52.8243 77.0293 52.901 77.469 52.9741L77.4874 52.9772L77.502 52.9889C77.5892 53.0585 77.6979 53.1295 77.8108 53.1811C77.9247 53.2331 78.0373 53.2626 78.1343 53.2564C78.2275 53.2505 78.3082 53.2118 78.3686 53.1199C78.4315 53.024 78.4762 52.8641 78.4762 52.6093C78.4762 52.325 78.5959 52.1029 78.7867 51.9343C78.9753 51.7675 79.2323 51.6534 79.5105 51.5765C80.0646 51.4235 80.7251 51.4123 81.1663 51.4485L84.4305 51.2313L85.8878 51.0234C85.8789 50.97 85.8581 50.9079 85.8195 50.8544C85.7673 50.7822 85.6798 50.7209 85.5287 50.7209C85.3062 50.7209 84.7016 50.6659 84.1312 50.6117C84.0328 50.6023 83.9352 50.593 83.8406 50.5839C83.6597 50.5666 83.4894 50.5502 83.344 50.5368C83.1204 50.5162 82.9612 50.5031 82.9109 50.5031C82.7988 50.5031 82.1494 50.4491 81.5035 50.3954L81.487 50.394C80.8294 50.3393 80.1801 50.2853 80.075 50.2853C80.0567 50.2853 80.0228 50.2903 79.9725 50.3025C79.9238 50.3142 79.8643 50.3315 79.7972 50.3533C79.6631 50.3968 79.5013 50.4574 79.3391 50.5248C79.1768 50.5923 79.0152 50.6663 78.8812 50.7365ZM69.3046 56.048C69.3766 55.9736 69.4463 55.9003 69.5139 55.828C69.9566 55.4063 70.5767 55.0349 70.9448 54.8511C71.5268 54.5606 72.9105 53.8482 73.7856 53.324C74.204 53.0734 74.8955 52.9822 75.6037 52.9749C76.298 52.9678 76.9929 53.0414 77.4272 53.1125C77.5192 53.1843 77.632 53.257 77.7512 53.3114C77.8759 53.3683 78.0133 53.4077 78.1435 53.3994C78.2775 53.3909 78.4013 53.3315 78.4887 53.1984C78.5734 53.0693 78.6197 52.8771 78.6197 52.6093C78.6197 52.3708 78.7181 52.1864 78.8818 52.0415C79.0477 51.8948 79.2815 51.7884 79.5487 51.7146C80.0831 51.5671 80.7283 51.5559 81.1597 51.5918L81.1651 51.5922L84.4454 51.3739L86.0368 51.1469V51.0848C86.0368 51.0007 86.0121 50.8763 85.936 50.7707C85.8572 50.6615 85.7266 50.5776 85.5287 50.5776C85.3149 50.5776 84.7197 50.5237 84.1448 50.469C84.0467 50.4597 83.9493 50.4504 83.8548 50.4413C83.6736 50.4239 83.5029 50.4076 83.3572 50.3941C83.1377 50.3739 82.9697 50.3598 82.9109 50.3598C82.8058 50.3598 82.1565 50.3059 81.4989 50.2512L81.4824 50.2498C80.8365 50.1961 80.187 50.142 80.075 50.142C80.0387 50.142 79.9908 50.1506 79.9388 50.1632C79.8853 50.1761 79.8221 50.1945 79.7528 50.217C79.6143 50.262 79.4488 50.3239 79.2838 50.3926C79.1189 50.4612 78.9532 50.5369 78.8145 50.6096C78.6784 50.681 78.5603 50.7534 78.4972 50.8164C78.4786 50.8349 78.4334 50.8645 78.357 50.9043C78.2833 50.9428 78.1879 50.9871 78.0759 51.0362C77.8822 51.1212 77.6425 51.219 77.3867 51.3233C77.347 51.3395 77.3068 51.3559 77.2664 51.3724C76.6696 51.6161 76.0069 51.8913 75.6722 52.1141C75.5196 52.2156 75.2171 52.322 74.8306 52.4279C74.4476 52.5328 73.9926 52.6345 73.5429 52.7297C73.3541 52.7697 73.1659 52.8086 72.9845 52.8461C72.7351 52.8976 72.4987 52.9465 72.2915 52.9918C72.1122 53.031 71.9533 53.0679 71.8252 53.1019C71.699 53.1354 71.5969 53.1676 71.5351 53.1985C71.4441 53.2439 71.347 53.3455 71.2375 53.4793C71.144 53.5935 71.0349 53.7397 70.9064 53.9121C70.8815 53.9455 70.8558 53.9799 70.8294 54.0152C70.5035 54.4512 70.055 55.0394 69.4118 55.7272C69.3351 55.8004 69.2632 55.8754 69.1982 55.9517C68.6568 56.511 67.9892 57.1291 67.1599 57.7796C65.6281 58.981 64.9127 59.8581 64.5527 60.4388C64.3724 60.7294 64.2821 60.9444 64.2236 61.0854L64.2233 61.086C64.1934 61.1581 64.1746 61.2033 64.1573 61.2318C64.1515 61.2414 64.1475 61.2464 64.1451 61.2489C64.1173 61.2504 64.0963 61.2644 64.0843 61.2743C64.0704 61.2857 64.0583 61.3 64.0478 61.3142C64.0266 61.343 64.0045 61.3824 63.9816 61.4285C63.9356 61.5216 63.8815 61.6538 63.8221 61.8132C63.7032 62.1318 63.5603 62.5665 63.4146 63.0341C63.0019 63.9994 62.8156 64.6951 62.7702 65.0125L62.7699 65.0146L62.7697 65.0167C62.7608 65.1235 62.7527 65.2439 62.7464 65.3732C62.6413 65.9389 62.3221 67.0256 61.6944 67.809C61.4651 68.0951 61.3125 68.5448 61.2097 69.0544C61.1064 69.5663 61.0517 70.1487 61.0243 70.7086C60.9812 71.5903 61.006 72.4249 61.0185 72.8421C61.0218 72.9538 61.0242 73.0356 61.0242 73.0804C61.0242 73.3048 61.0798 73.7459 61.1614 74.2621C61.2434 74.7805 61.3527 75.3803 61.4619 75.9256C61.6087 76.6581 61.7587 77.0081 61.9055 77.3507C61.9776 77.5189 62.0489 77.6852 62.1186 77.8942C62.2293 78.2257 62.4492 78.6647 62.6657 79.0969L62.6679 79.1013C62.887 79.5388 63.1023 79.969 63.2094 80.2897C63.3203 80.6219 63.5951 81.2249 63.8956 81.7975C64.0461 82.0844 64.2038 82.3651 64.3516 82.6018C64.4985 82.8372 64.6385 83.0338 64.7538 83.1489C64.7971 83.1921 64.8439 83.2754 64.8917 83.3999C64.9388 83.5223 64.984 83.6765 65.028 83.8538C65.116 84.2085 65.1974 84.6486 65.2793 85.0982L65.2938 85.1781C65.3707 85.6008 65.4484 86.0275 65.5322 86.3911C65.5767 86.5845 65.6233 86.7613 65.6729 86.9109C65.7221 87.0596 65.7756 87.186 65.8355 87.2757C66.0182 87.5492 66.2826 87.7556 66.5355 87.9023C66.7631 88.0343 66.9852 88.1201 67.1382 88.1636C67.231 88.9275 67.7873 90.5693 69.3508 91.4364C70.905 92.2984 71.2772 93.3663 71.2772 93.7693V93.8038L71.3041 93.8253C72.4104 94.7088 73.9534 95.1465 75.703 95.3649C77.0688 95.5353 77.8335 96.1405 78.0476 96.417C78.0923 96.5406 78.2029 96.693 78.3957 96.7704C78.5964 96.8509 78.8729 96.845 79.2344 96.6645C79.5787 96.4927 79.8249 96.4236 79.9903 96.4049C80.0729 96.3955 80.1339 96.3989 80.1761 96.4073C80.2197 96.416 80.2379 96.429 80.2423 96.4333L80.2517 96.4427L80.2639 96.4481C81.0623 96.8023 82.1826 96.9478 83.2517 96.9878C84.3229 97.0279 85.3519 96.9624 85.9733 96.8894L86.0083 96.8853L86.6912 95.7492V95.7293C86.6912 95.7009 86.6764 95.6813 86.666 95.6712C86.6558 95.6613 86.6445 95.6551 86.6364 95.6512C86.6199 95.6434 86.5999 95.6378 86.5799 95.6335C86.5387 95.6246 86.4806 95.6174 86.4078 95.6123C86.2612 95.6018 86.0457 95.5987 85.7661 95.6087C85.2063 95.6288 84.3852 95.7018 83.3354 95.8764C82.3106 96.0469 81.3463 95.7278 80.5536 95.2541C79.7607 94.7802 79.1457 94.1553 78.8235 93.7263L78.7892 93.6807L78.7369 93.7038C78.4118 93.8481 77.8689 94.0649 77.2991 94.2455C76.7272 94.4267 76.1364 94.5688 75.7119 94.5688C75.4483 94.5688 75.0599 94.5025 74.6179 94.3939C74.1774 94.2857 73.6889 94.1367 73.2271 93.974C72.7652 93.8112 72.3317 93.6353 72.0009 93.4736C71.8354 93.3926 71.6972 93.316 71.5944 93.2471C71.543 93.2126 71.5017 93.1808 71.4707 93.1522C71.439 93.123 71.4213 93.1001 71.4132 93.0839C71.3549 92.9675 71.2413 92.8124 71.1051 92.6425C70.968 92.4714 70.8038 92.2802 70.6406 92.0901L70.64 92.0894C70.4762 91.8985 70.3134 91.709 70.178 91.54C70.0415 91.3696 69.9369 91.2252 69.8862 91.1239C69.8489 91.0496 69.8234 90.9267 69.8096 90.768C69.7961 90.6115 69.7947 90.4282 69.801 90.2382C69.8136 89.8603 69.8565 89.4621 69.8925 89.2097C69.9666 88.9109 69.9808 88.4747 69.7613 88.1538C69.5342 87.8219 69.0792 87.6419 68.2794 87.8194C67.3462 88.0264 66.6382 87.38 66.1661 86.581C65.9317 86.1843 65.7604 85.7572 65.6539 85.3969C65.6006 85.2168 65.5638 85.0544 65.5434 84.9217C65.5226 84.7867 65.5197 84.6892 65.5296 84.6356C65.5444 84.5552 65.5339 84.4536 65.5093 84.3419C65.4843 84.2286 65.4429 84.0979 65.39 83.9562C65.2842 83.6726 65.1298 83.3394 64.9596 83.0038C64.6191 82.3327 64.2116 81.6456 63.9917 81.3162C63.8313 81.076 63.7928 80.6799 63.8182 80.266C63.8433 79.8565 63.9294 79.4479 64.001 79.1979L64.0071 79.1766L63.7706 78.4682L63.064 78.2331L63.0453 78.2368C62.9896 78.2479 62.894 78.2254 62.7685 78.0937C62.6443 77.9634 62.5017 77.7364 62.3571 77.3715C62.0682 76.6423 61.7781 75.3799 61.6038 73.2922C61.4299 71.2087 61.6845 69.8796 62.0663 69.0656C62.4485 68.2507 62.9542 67.958 63.2847 67.925L63.3002 67.7857C63.2163 67.7578 63.1382 67.6676 63.0722 67.5064C63.0075 67.3482 62.9612 67.1378 62.9299 66.899C62.8678 66.4236 62.8673 65.8508 62.8894 65.3897C62.8983 65.3409 62.9057 65.2959 62.9116 65.2551C63.0735 64.6736 63.3155 63.8351 63.5495 63.0836C63.8138 62.4662 64.1723 61.7358 64.6484 60.9209C65.8523 58.8606 67.5769 58.7846 68.2743 58.9934L68.3067 59.0031L69.0292 58.5223L69.0198 58.4752C68.9478 58.1162 68.8483 57.2283 69.019 56.5466C69.0591 56.3866 69.1604 56.2178 69.3046 56.048ZM68.8949 56.4584C68.4305 56.9096 67.8869 57.3915 67.2485 57.8923C65.7262 59.0864 65.0236 59.9515 64.6747 60.5142C64.5004 60.7952 64.4135 61.0022 64.3562 61.1403L64.3539 61.1456C64.409 61.0479 64.4658 60.949 64.5244 60.8487C65.7462 58.7577 67.508 58.6327 68.2828 58.8468L68.8699 58.456C68.7975 58.0627 68.7087 57.1951 68.8798 56.5119C68.8842 56.494 68.8893 56.4762 68.8949 56.4584ZM64.2335 61.3621C64.2162 61.3761 64.1954 61.3868 64.1701 61.3906C64.1683 61.3927 64.1661 61.3955 64.1635 61.399C64.1497 61.4178 64.1319 61.4483 64.1104 61.4919C64.0677 61.5784 64.0156 61.7051 63.9566 61.8632C63.9478 61.8868 63.9389 61.911 63.9298 61.9358C64.0241 61.7506 64.1252 61.5592 64.2335 61.3621ZM62.733 66.0286C62.5602 66.6066 62.2637 67.3279 61.8065 67.8985C61.5995 68.1568 61.4522 68.5782 61.3504 69.0827C61.2492 69.5847 61.1949 70.1593 61.1677 70.7156C61.125 71.5893 61.1493 72.4093 61.1618 72.8304C61.1652 72.9464 61.1678 73.0321 61.1678 73.0804C61.1678 73.2916 61.2213 73.7215 61.3032 74.2398C61.3849 74.7559 61.4937 75.3538 61.6027 75.8975C61.7468 76.6169 61.8877 76.9446 62.0317 77.2794C62.105 77.4498 62.1791 77.6221 62.2548 77.8489C62.3619 78.1696 62.5772 78.5998 62.7963 79.0373L62.7985 79.0417C63.015 79.4739 63.2349 79.9129 63.3456 80.2444C63.4528 80.5655 63.7233 81.1604 64.0228 81.7311C64.1722 82.0158 64.3281 82.2932 64.4734 82.5261C64.5842 82.7034 64.6871 82.8523 64.7753 82.9587C64.4494 82.328 64.0767 81.7019 63.8722 81.3957C63.6836 81.1132 63.6493 80.6745 63.6749 80.2573C63.7 79.847 63.7843 79.4394 63.8569 79.1799L63.6571 78.5815L63.0533 78.3806C62.9323 78.3956 62.7974 78.332 62.6645 78.1924C62.5227 78.0437 62.3718 77.798 62.2236 77.4242C61.9272 76.6761 61.6355 75.3977 61.4608 73.3041C61.2856 71.2063 61.5401 69.8495 61.9363 69.0048C62.2766 68.2794 62.7245 67.9271 63.0955 67.8174C63.0313 67.7504 62.9803 67.6607 62.9393 67.5606C62.8678 67.3859 62.8195 67.1616 62.7876 66.9175C62.7512 66.639 62.7355 66.3295 62.733 66.0286ZM65.1453 83.7329C65.1527 83.7612 65.16 83.79 65.1673 83.8194C65.2566 84.1793 65.3388 84.6239 65.4205 85.0726L65.4348 85.1513C65.512 85.5751 65.589 85.9988 65.6721 86.359C65.7161 86.5502 65.7616 86.7222 65.8092 86.866C65.8571 87.0108 65.9058 87.1226 65.955 87.1962C66.1214 87.4454 66.366 87.6383 66.6076 87.7784C66.849 87.9184 67.0827 88.0029 67.2216 88.0376L67.2705 88.0498L67.2756 88.1C67.3469 88.8116 67.8773 90.4552 69.4205 91.3111C69.7656 91.5025 70.0552 91.7048 70.2971 91.909C70.2154 91.8124 70.137 91.7182 70.0659 91.6295C69.9297 91.4596 69.8161 91.3045 69.7578 91.188C69.7078 91.0881 69.6806 90.9424 69.6666 90.7803C69.6524 90.6161 69.6511 90.4265 69.6575 90.2335C69.6704 89.8474 69.7143 89.4418 69.7509 89.1858L69.7515 89.1822L69.7523 89.1786C69.8229 88.8968 69.8295 88.5076 69.6427 88.2346C69.4626 87.9712 69.0813 87.7883 68.3105 87.9593C67.2803 88.1878 66.5218 87.4651 66.0425 86.6539C65.8012 86.2455 65.6255 85.8073 65.5162 85.4375C65.4615 85.2526 65.4231 85.0838 65.4015 84.9435C65.3802 84.8055 65.374 84.6882 65.3884 84.6097C65.3979 84.5579 65.3925 84.4789 65.3691 84.3728C65.346 84.2684 65.3071 84.1445 65.2555 84.0062C65.2232 83.9197 65.1862 83.8281 65.1453 83.7329ZM71.2045 93.0142C71.352 93.3058 71.4128 93.5585 71.42 93.7341C72.4935 94.5791 73.9942 95.0072 75.7209 95.2227C77.1329 95.3989 77.9373 96.0312 78.169 96.3397L78.176 96.349L78.1797 96.36C78.2105 96.4523 78.2955 96.5757 78.4492 96.6374C78.6011 96.6984 78.8337 96.7043 79.1702 96.5363C79.524 96.3597 79.7868 96.2837 79.9741 96.2625C80.0678 96.2519 80.1441 96.2548 80.2042 96.2668C80.2563 96.2772 80.3008 96.2954 80.3326 96.3217C81.1043 96.6611 82.1968 96.8049 83.2571 96.8446C84.3003 96.8836 85.3035 96.8217 85.9216 96.7511L86.513 95.7671C86.4834 95.7627 86.4451 95.7586 86.3975 95.7552C86.2578 95.7452 86.0478 95.742 85.7712 95.7519C85.2184 95.7718 84.4034 95.844 83.359 96.0178C82.2896 96.1957 81.2905 95.8615 80.4799 95.377C79.6967 94.909 79.0834 94.2973 78.7432 93.8577C78.41 94.0031 77.8887 94.209 77.3425 94.3821C76.7691 94.5638 76.1601 94.7121 75.7119 94.7121C75.4302 94.7121 75.0279 94.6422 74.5836 94.5331C74.1378 94.4235 73.6447 94.2731 73.1794 94.1091C72.7141 93.9452 72.2751 93.7672 71.9378 93.6023C71.7693 93.5199 71.6246 93.44 71.5144 93.366C71.4592 93.329 71.4115 93.2927 71.3733 93.2575C71.3358 93.2229 71.304 93.1863 71.2848 93.148C71.2655 93.1094 71.2383 93.0645 71.2045 93.0142ZM64.1428 61.2509C64.1428 61.2508 64.1432 61.2505 64.1439 61.2501C64.1431 61.2508 64.1427 61.251 64.1428 61.2509Z" fill="#191814"/>
<path d="M87.6616 71.6037C87.4062 71.8796 87.1734 72.083 87 72.2079C87.229 71.9985 87.4494 71.7972 87.6616 71.6037C88.3002 70.9143 89.0802 69.7724 89.4269 68.2737C90.0336 67.8366 91.4493 66.7 92.2582 65.6509C93.2694 64.3395 97.3142 59.094 97.5165 58.2197C97.6783 57.5203 98.7973 58.6568 99.3366 59.3125C98.8647 59.1668 96.9098 60.1868 92.865 65.4324C92.7301 65.7238 92.5009 66.4815 92.6627 67.1809C92.5352 67.2498 91.3469 68.2436 87.6616 71.6037Z" fill="#191814"/>
<path d="M88.0112 73.5193C89.6291 73.0093 92.9459 71.8582 93.2694 71.3336C93.593 70.8091 96.2356 70.3865 97.5165 70.2408C97.7637 70.2408 98.1317 70.219 98.5139 70.1578C99.481 69.6513 100.214 69.2931 99.9434 69.5851C99.6557 69.896 99.0698 70.0687 98.5139 70.1578C97.3092 70.7886 95.7405 71.6495 95.2918 71.7708C94.4829 71.9893 93.0672 72.8636 91.8538 73.0822C90.6403 73.3007 90.0336 73.7379 88.2134 73.9564C86.7573 74.1313 87.4719 73.7379 88.0112 73.5193Z" fill="#191814"/>
<path fill-rule="evenodd" clip-rule="evenodd" d="M97.4261 58.1688C97.3944 58.1904 97.3644 58.231 97.3457 58.3063C97.3156 58.4269 97.2184 58.6118 97.0781 58.8385C96.936 59.0681 96.7442 59.3489 96.5177 59.6642C96.0646 60.2951 95.4698 61.0678 94.8487 61.8533C93.6062 63.4246 92.2558 65.0498 91.7159 65.6997L91.7159 65.6997C90.8553 66.7355 89.3614 67.8525 88.6998 68.2975C88.4324 69.3518 87.935 70.228 87.4243 70.8931C88.9975 69.5667 90.0812 68.6697 90.803 68.0835C91.2163 67.7478 91.5112 67.5138 91.7115 67.3593C91.8116 67.2821 91.8883 67.2245 91.9446 67.1839C91.9707 67.1651 91.9933 67.1492 92.0123 67.1365C91.8577 66.4351 92.1013 65.6951 92.2457 65.4056L92.2494 65.3982L92.2547 65.3918C94.4162 62.7902 96.0216 61.2337 97.1519 60.345C97.7169 59.9007 98.1648 59.6219 98.5055 59.4632C98.6759 59.3838 98.8209 59.3337 98.9414 59.3083C98.98 59.3001 99.0167 59.2944 99.0512 59.2912C98.7703 58.9872 98.3934 58.6223 98.0566 58.3853C97.8617 58.248 97.6903 58.1611 97.5635 58.1451C97.5021 58.1374 97.4579 58.1472 97.4261 58.1688ZM86.7043 71.5013C86.4784 71.6925 86.2438 71.8913 86 72.0982L86.0853 72.2119C86.2746 72.0854 86.526 71.8813 86.8006 71.6064C88.7669 69.9425 90.067 68.8647 90.8924 68.1943C91.3053 67.8589 91.5991 67.6258 91.7981 67.4723C91.8976 67.3955 91.9731 67.3389 92.0276 67.2996C92.084 67.259 92.114 67.2397 92.125 67.2341L92.176 67.2086L92.1622 67.1531C91.9966 66.4887 92.2287 65.7629 92.3692 65.4766C94.5245 62.8832 96.121 61.3367 97.2396 60.4571C97.7994 60.0169 98.2379 59.7451 98.5654 59.5924C98.7292 59.5161 98.8637 59.4703 98.9706 59.4478C99.0786 59.425 99.1535 59.427 99.201 59.4406L99.436 59.508L99.2736 59.3248C98.9842 58.9982 98.5372 58.5494 98.1383 58.2686C97.9408 58.1296 97.745 58.0243 97.5812 58.0037C97.4973 57.9932 97.4152 58.004 97.3463 58.0509C97.2773 58.0979 97.2322 58.1737 97.2078 58.2717C97.1839 58.3677 97.0988 58.5348 96.9573 58.7633C96.8177 58.989 96.6281 59.2667 96.4024 59.5809C95.9512 60.2091 95.358 60.9798 94.7373 61.7648C93.496 63.3345 92.1467 64.9585 91.6067 65.6084C90.7495 66.6401 89.2447 67.7619 88.5982 68.1942L88.5754 68.2094L88.5687 68.2362C88.2028 69.7042 87.3794 70.8242 86.7043 71.5013ZM99.967 69.5492C99.9544 69.566 99.938 69.5842 99.9187 69.6036C99.7539 69.7688 99.5088 69.893 99.2356 69.9868C98.9644 70.0799 98.6592 70.1451 98.3631 70.1896C98.1059 70.3147 97.8328 70.4489 97.5569 70.5847C97.1465 70.7865 96.7297 70.9915 96.3493 71.1738C96.0293 71.3271 95.7339 71.465 95.4882 71.5722C95.244 71.6787 95.0444 71.7569 94.9182 71.7885C94.5772 71.874 94.1327 72.0628 93.6333 72.275C93.5101 72.3273 93.3836 72.381 93.2545 72.435C92.6066 72.7058 91.8979 72.9796 91.241 73.0894C90.7206 73.1764 90.3067 73.2983 89.8656 73.4282C89.7618 73.4588 89.6566 73.4898 89.5481 73.5208C88.9785 73.6841 88.3265 73.8475 87.3496 73.9564C86.9606 73.9997 86.7098 74.0088 86.5631 73.9923C86.5259 73.9881 86.4934 73.982 86.466 73.9737C86.4393 73.9656 86.4129 73.9539 86.3919 73.9358C86.3691 73.9162 86.3523 73.8883 86.3511 73.8537C86.35 73.8221 86.3625 73.7952 86.3755 73.7756C86.4009 73.7375 86.4448 73.7022 86.4916 73.671C86.5405 73.6383 86.6006 73.6049 86.6661 73.572C86.7973 73.5062 86.9555 73.4403 87.1008 73.3856L87.1033 73.3846L87.1059 73.3839C87.9689 73.1314 89.2849 72.7203 90.4278 72.3076C90.9994 72.1012 91.5263 71.8948 91.9313 71.7081C92.1339 71.6147 92.3045 71.5268 92.4344 71.447C92.5671 71.3654 92.6482 71.2976 92.6821 71.2466C92.735 71.167 92.8293 71.0968 92.9453 71.0336C93.063 70.9695 93.211 70.9084 93.3803 70.8504C93.719 70.7344 94.1503 70.6281 94.6114 70.5339C95.534 70.3456 96.5839 70.2045 97.2693 70.1322L97.273 70.1318H97.2767C97.5352 70.1318 97.9201 70.1108 98.3207 70.0518C98.8327 69.8031 99.2848 69.5897 99.5744 69.474C99.6474 69.4448 99.7111 69.4214 99.7636 69.4051C99.8138 69.3895 99.8605 69.3782 99.8963 69.3779C99.9121 69.3778 99.9417 69.3793 99.9667 69.3987C99.9811 69.4099 99.9922 69.4257 99.9972 69.4448C100.002 69.4627 100 69.479 99.997 69.4911C99.9914 69.5136 99.9786 69.5336 99.967 69.5492ZM98.8724 69.9447C99.177 69.8005 99.4381 69.6819 99.627 69.6064C99.6768 69.5865 99.7211 69.5698 99.7594 69.5565C99.6181 69.6749 99.4204 69.7727 99.1896 69.8519C99.0885 69.8866 98.9819 69.9175 98.8724 69.9447ZM97.9319 70.2417C97.6815 70.2649 97.454 70.2742 97.2805 70.2743C96.5979 70.3465 95.5549 70.4868 94.6398 70.6736C94.1812 70.7672 93.7566 70.8721 93.4263 70.9853C93.261 71.0419 93.1212 71.1 93.0131 71.1589C92.9033 71.2187 92.8338 71.2753 92.8003 71.3257C92.7478 71.4047 92.6426 71.4862 92.5087 71.5685C92.372 71.6525 92.1957 71.743 91.9907 71.8376C91.5803 72.0268 91.049 72.2347 90.4759 72.4417C89.3306 72.8553 88.0131 73.2669 87.1482 73.52C87.0063 73.5734 86.8542 73.6371 86.7297 73.6995C86.667 73.731 86.6125 73.7615 86.5704 73.7896C86.5415 73.8089 86.5215 73.8251 86.5085 73.8377C86.5249 73.8425 86.5479 73.8471 86.5789 73.8506C86.7085 73.8652 86.9454 73.858 87.3339 73.8147C88.3008 73.707 88.9447 73.5455 89.509 73.3838C89.6157 73.3532 89.7197 73.3226 89.8228 73.2922C90.2647 73.162 90.6881 73.0373 91.2177 72.9488C91.8567 72.842 92.5518 72.5742 93.1998 72.3034C93.3257 72.2508 93.45 72.198 93.5718 72.1462C94.0723 71.9335 94.5308 71.7387 94.8837 71.6502C94.9971 71.6218 95.1866 71.5483 95.4315 71.4415C95.6749 71.3353 95.9686 71.1983 96.2881 71.0452C96.6683 70.8629 97.0835 70.6587 97.4931 70.4573C97.6407 70.3847 97.7877 70.3124 97.9319 70.2417ZM86.4919 73.858C86.4919 73.858 86.4919 73.8579 86.492 73.8577Z" fill="#191814"/>
<path d="M98.4 71.8471C98.72 71.6519 98.2667 71.4404 98 71.3591C98.32 70.7734 98.6667 71.0337 98.8 71.2371L99 71.9691C98.6667 72.0098 98.08 72.0424 98.4 71.8471Z" fill="#191814"/>
<path fill-rule="evenodd" clip-rule="evenodd" d="M98.6887 71.0957C98.7416 71.1398 98.7844 71.1935 98.8146 71.2428L98.8169 71.2466L99 71.9637L98.9459 71.9707C98.8011 71.9896 98.5944 72.0077 98.4563 71.9966C98.4213 71.9938 98.3872 71.9888 98.3584 71.9802C98.3298 71.9716 98.3004 71.9574 98.2864 71.934C98.2722 71.9102 98.2792 71.8856 98.2953 71.8636C98.3113 71.8418 98.3386 71.8191 98.3754 71.7951C98.4356 71.7558 98.455 71.7191 98.4539 71.6859C98.4528 71.6514 98.4294 71.615 98.3873 71.5781C98.3026 71.5038 98.1557 71.4392 98.0442 71.4028L98 71.3884L98.0156 71.3578C98.0858 71.2205 98.1594 71.1283 98.2357 71.0721C98.3136 71.0147 98.3997 70.9915 98.4873 71.0028C98.5692 71.0133 98.6369 71.0525 98.6887 71.0957ZM98.1393 71.3515C98.2022 71.2354 98.2643 71.1631 98.3209 71.1214C98.3808 71.0773 98.4287 71.071 98.4652 71.0757C98.5073 71.0811 98.5535 71.1036 98.599 71.1415C98.6423 71.1776 98.6793 71.2231 98.7066 71.2668L98.8695 71.9045C98.7347 71.9201 98.5745 71.9312 98.4703 71.9228C98.4411 71.9205 98.4199 71.9168 98.406 71.9127C98.397 71.9099 98.3936 71.9078 98.3926 71.907C98.3926 71.9058 98.3931 71.9023 98.398 71.8957C98.4061 71.8847 98.4235 71.8688 98.4559 71.8476C98.5342 71.7965 98.5696 71.741 98.5678 71.6843C98.566 71.629 98.5289 71.5778 98.4787 71.5338C98.3907 71.4566 98.2524 71.3923 98.1393 71.3515ZM98.3927 71.9076C98.3927 71.9076 98.3927 71.9075 98.3926 71.9073Z" fill="#191814"/>
<path d="M101.325 68.5177C101.205 68.5375 101.095 68.5519 101 68.5614C101.077 68.5308 101.189 68.5175 101.325 68.5177C102.126 68.3848 103.373 68.009 103.756 67.2457C104.198 66.3685 103.94 68.0497 103.756 69C103.15 68.819 101.967 68.5185 101.325 68.5177Z" fill="#191814"/>
<path fill-rule="evenodd" clip-rule="evenodd" d="M104.832 67.1472C104.797 67.1739 104.746 67.2309 104.677 67.3311C104.417 67.7077 103.873 67.98 103.28 68.1732C102.908 68.2943 102.511 68.3864 102.139 68.4537C102.937 68.5333 103.939 68.7202 104.552 68.8509C104.666 68.4152 104.795 67.8455 104.834 67.4694C104.844 67.3706 104.847 67.2874 104.844 67.2245C104.842 67.1931 104.838 67.1685 104.833 67.1505C104.833 67.1494 104.832 67.1483 104.832 67.1472ZM101.499 68.5502C102.313 68.5521 103.815 68.8293 104.592 68.998C104.612 69.0024 104.633 68.9995 104.651 68.9901C104.669 68.9807 104.681 68.9654 104.686 68.9478C104.804 68.5043 104.946 67.8869 104.988 67.4814C104.998 67.3799 105.003 67.2895 104.998 67.2174C104.996 67.1814 104.992 67.148 104.984 67.1193C104.976 67.0919 104.964 67.062 104.941 67.0387C104.915 67.0118 104.876 66.9957 104.83 67.001C104.791 67.0056 104.758 67.0245 104.732 67.0447C104.677 67.0858 104.615 67.1587 104.544 67.2618C104.312 67.5972 103.812 67.8561 103.225 68.0472C102.645 68.2364 101.997 68.3539 101.488 68.4156C101.314 68.4157 101.163 68.428 101.053 68.4598C101.016 68.4706 100.994 68.5038 101.002 68.5372C101.009 68.5705 101.045 68.5935 101.084 68.5907C101.206 68.5819 101.346 68.5685 101.499 68.5502Z" fill="#191814"/>
<path d="M93.64 76.1785C93.0586 76.0469 92.4338 75.9097 91.7694 75.7692C91.0559 75.6184 90.4865 75.4392 90.0356 75.2444C88.7407 75.014 87.5363 75.0145 87.1964 75.7692C86.6975 76.8769 87.2657 74.5385 87.6121 73.2308L88.6515 73C88.3207 73.4897 88.2794 74.4858 90.0356 75.2444C91.1163 75.4368 92.26 75.79 93.0165 76C93.2294 76.0591 93.438 76.119 93.64 76.1785C96.1145 76.7385 97.8038 77.1978 98.421 77.3846C100.084 77.8462 103.659 78.6308 104.657 78.0769C105.655 77.5231 104.241 80.4615 103.41 82C103.548 81 103.41 78.9077 101.747 78.5385C100.084 78.1692 97.1738 77.3077 95.9266 76.9231C95.5774 76.7938 94.7002 76.4909 93.64 76.1785Z" fill="#191814"/>
<path fill-rule="evenodd" clip-rule="evenodd" d="M87.8623 73.0349C87.8781 73.061 87.8768 73.0947 87.859 73.1195C87.6988 73.3421 87.6088 73.6784 87.7719 74.0479C87.9361 74.4199 88.3634 74.8403 89.2705 75.2094C90.1933 75.3641 91.1593 75.6231 91.9118 75.8248C92.0841 75.871 92.2451 75.9142 92.3919 75.9525C92.6145 76.0105 92.8327 76.0692 93.044 76.1277C95.6351 76.6782 97.4053 77.1299 98.0543 77.3143C98.9235 77.5407 100.292 77.8464 101.573 78.0274C102.214 78.118 102.832 78.1771 103.353 78.1799C103.877 78.1827 104.292 78.1282 104.537 78.0006C104.606 77.9647 104.668 77.9408 104.724 77.9307C104.779 77.9207 104.833 77.9236 104.88 77.9478C104.979 77.9986 105.003 78.1158 105 78.2296C104.997 78.349 104.964 78.5007 104.913 78.6721C104.861 78.8447 104.788 79.042 104.7 79.2543C104.35 80.1023 103.76 81.2063 103.324 81.9637C103.306 81.9943 103.27 82.0077 103.238 81.9956C103.206 81.9834 103.186 81.9492 103.192 81.914C103.263 81.431 103.262 80.6839 103.032 80.016C102.802 79.3511 102.347 78.7696 101.506 78.5944C99.7613 78.2307 96.7104 77.3828 95.4039 77.0046L95.4004 77.0036L95.4004 77.0035C95.0363 76.877 94.1197 76.5798 93.0113 76.2731C92.4031 76.1439 91.7495 76.0092 91.0546 75.8713C90.3077 75.723 89.709 75.5468 89.2328 75.3543C88.5594 75.2422 87.9154 75.1876 87.3977 75.2508C86.8752 75.3145 86.5028 75.495 86.3414 75.8313C86.2764 75.9668 86.2249 76.0585 86.1847 76.1057C86.1743 76.1179 86.162 76.1305 86.1477 76.14C86.1343 76.149 86.1102 76.1612 86.0803 76.1559C86.0474 76.15 86.0279 76.127 86.0182 76.1089C86.0091 76.0919 86.0051 76.0738 86.003 76.0595C85.9951 76.0051 86.0035 75.9169 86.019 75.8143C86.0351 75.7078 86.0607 75.5748 86.0931 75.4242C86.2225 74.8222 86.4626 73.9238 86.6441 73.2805C86.6516 73.2539 86.6727 73.2338 86.6988 73.2284L87.7876 73.0015C87.8167 72.9954 87.8464 73.0087 87.8623 73.0349ZM88.7512 75.1336C88.132 74.8105 87.7937 74.4545 87.6417 74.1103C87.487 73.7597 87.5298 73.4314 87.6531 73.1818L86.7694 73.366C86.5896 74.0051 86.3584 74.8731 86.2329 75.4568C86.2009 75.606 86.1759 75.7356 86.1605 75.8375C86.1582 75.8533 86.156 75.8682 86.1542 75.8822C86.1715 75.8496 86.1912 75.8106 86.2133 75.7646C86.408 75.3587 86.8445 75.1679 87.381 75.1024C87.7838 75.0533 88.2551 75.0731 88.7512 75.1336ZM94.9807 76.7069C95.1773 76.7705 95.3348 76.8233 95.444 76.8612C96.7516 77.2397 99.7959 78.0857 101.534 78.448C102.436 78.636 102.924 79.2648 103.166 79.9654C103.357 80.5179 103.397 81.1182 103.368 81.5926C103.777 80.8644 104.265 79.9305 104.568 79.1952C104.655 78.9857 104.726 78.7934 104.776 78.6274C104.827 78.4602 104.854 78.3242 104.857 78.2257C104.859 78.1215 104.834 78.0904 104.817 78.0816C104.806 78.076 104.785 78.0712 104.748 78.0779C104.711 78.0846 104.663 78.1019 104.601 78.1341C104.323 78.2789 103.878 78.3321 103.352 78.3292C102.822 78.3264 102.198 78.2664 101.554 78.1754C100.266 77.9934 98.8916 77.6864 98.0188 77.459L98.0173 77.4586L98.0173 77.4586C97.5523 77.3264 96.5025 77.0547 94.9807 76.7069Z" fill="#191814"/>
<path d="M87.1713 75.7128C86.7385 76.1614 86.2191 77.2378 87.6042 77.9555C89.3355 78.8526 92.7979 82.2166 93.0144 82.6652C93.2308 83.1137 98.2082 87.5991 98.8575 88.2719C99.3769 88.8102 98.3525 89.5428 97.7754 89.8418C96.1884 87.1506 91.7159 80.9159 86.522 77.507C86.4244 77.4429 86.3298 77.3803 86.2382 77.3191C85.8788 78.8818 85.9805 81.7421 87.8206 85.1321C89.3788 88.0028 89.9126 92.9068 89.9847 95H89.1191C88.946 90.8734 87.8928 87.001 87.3878 85.5807C87.0271 84.5341 86.1759 81.7681 85.6565 79.0769C85.0074 75.7128 83.276 76.8342 83.0595 76.8342C82.8864 76.8342 83.1317 76.3856 83.276 76.1613C83.6192 76.1025 84.0567 76.0525 84.4931 76.0427C82.5477 74.3863 85.2222 75.0395 87.1713 75.7128Z" fill="#191814"/>
<path fill-rule="evenodd" clip-rule="evenodd" d="M84.3648 76.0416C84.1943 75.888 84.0664 75.7552 83.977 75.6409C83.8672 75.5007 83.8045 75.3751 83.8097 75.2659C83.8124 75.2077 83.8344 75.1573 83.8727 75.1174C83.9095 75.0791 83.9586 75.0533 84.0128 75.0359C84.1203 75.0014 84.2661 74.994 84.4344 75.0042C85.1081 75.045 86.262 75.3774 87.2274 75.7114C87.2506 75.7194 87.2682 75.7393 87.2738 75.764C87.2794 75.7887 87.2723 75.8147 87.255 75.8326C87.0476 76.048 86.8245 76.4096 86.8145 76.7958C86.8047 77.1721 86.997 77.5946 87.6657 77.9416C88.5328 78.3916 89.826 79.4551 90.925 80.4566C91.4756 80.9584 91.9793 81.4464 92.3592 81.8371C92.5491 82.0325 92.7085 82.204 92.8274 82.3411C92.9439 82.4752 93.0279 82.5834 93.0597 82.6495C93.0686 82.6679 93.0947 82.705 93.1431 82.7627C93.1899 82.8184 93.2531 82.8882 93.331 82.9706C93.4867 83.1352 93.6987 83.3475 93.9499 83.5925C94.452 84.0824 95.1084 84.7011 95.7787 85.3272C96.185 85.7067 96.5967 86.0892 96.9821 86.4473C97.8666 87.269 98.6127 87.9623 98.8381 88.1962C98.9835 88.3471 99.0242 88.5182 98.9871 88.691C98.9513 88.8579 98.8448 89.0198 98.7107 89.1666C98.4417 89.4611 98.0367 89.7216 97.7472 89.8719C97.7144 89.8889 97.6745 89.877 97.6554 89.8445C96.0848 87.1771 91.6586 80.999 86.5238 77.6237C86.4566 77.5796 86.391 77.5362 86.3267 77.4935C86.0023 79.0456 86.1331 81.8164 87.9102 85.0953C88.688 86.5305 89.2081 88.4692 89.5428 90.3048C89.8778 92.1416 90.0283 93.8817 90.0642 94.9241C90.0649 94.944 90.0578 94.9633 90.0445 94.9776C90.0312 94.9919 90.0128 95 89.9937 95H89.1357C89.0979 95 89.0668 94.9691 89.0652 94.9299C88.894 90.8426 87.852 87.0061 87.3535 85.6017L87.3532 85.6011C86.9949 84.5599 86.1501 81.8106 85.6345 79.1346C85.3148 77.4758 84.7355 76.9548 84.2387 76.8259C83.9861 76.7604 83.7441 76.7926 83.5489 76.8433C83.4522 76.8684 83.3681 76.8976 83.2996 76.9215L83.2978 76.9221C83.2639 76.9339 83.2326 76.9448 83.2063 76.9527C83.182 76.96 83.1541 76.9672 83.1296 76.9672C83.0927 76.9672 83.0544 76.9544 83.0281 76.9195C83.0043 76.8879 82.9994 76.8498 83 76.8194C83.0012 76.7591 83.0249 76.6854 83.054 76.6148C83.1136 76.4696 83.2129 76.2984 83.2854 76.1855C83.2962 76.1686 83.3133 76.1571 83.3326 76.1538C83.6272 76.1032 83.9913 76.0592 84.3648 76.0416ZM84.5753 76.0346C84.3466 75.8382 84.1876 75.6777 84.0865 75.5486C83.9797 75.4121 83.9482 75.3239 83.9506 75.2731C83.9517 75.2513 83.9589 75.2352 83.9726 75.2209C83.9878 75.2051 84.0136 75.189 84.0545 75.1759C84.1374 75.1493 84.2628 75.1406 84.4261 75.1505C85.0554 75.1885 86.1355 75.493 87.0783 75.8145C86.8797 76.0502 86.6835 76.4044 86.6734 76.7918C86.6617 77.2392 86.8984 77.7072 87.6026 78.0726C88.4514 78.5131 89.7322 79.5646 90.8319 80.5667C91.3806 81.0668 91.8823 81.5528 92.2598 81.9412C92.4487 82.1355 92.606 82.3048 92.7225 82.4391C92.8415 82.5762 92.9117 82.6698 92.9335 82.715C92.9514 82.7523 92.989 82.8022 93.0367 82.859C93.0861 82.9177 93.1515 82.9899 93.2303 83.0732C93.388 83.2399 93.6016 83.4537 93.8532 83.6992C94.3565 84.1903 95.0139 84.8099 95.6843 85.4361C96.0938 85.8186 96.5078 86.2032 96.8945 86.5625C97.7759 87.3815 98.5158 88.0689 98.7383 88.2997C98.8502 88.4159 98.8757 88.5362 98.8493 88.6592C98.8216 88.7883 98.7351 88.9269 98.6082 89.0658C98.3721 89.3243 98.0176 89.5607 97.7417 89.7103C96.137 87.0041 91.7237 80.8684 86.5993 77.5C86.5176 77.4463 86.4381 77.3936 86.3607 77.342C86.3778 77.271 86.3958 77.2028 86.4147 77.1377C86.4795 76.9144 86.4619 76.724 86.3726 76.5676C86.2846 76.4135 86.1331 76.303 85.9496 76.2242C85.5901 76.0698 85.0799 76.0251 84.5753 76.0346ZM86.2356 77.2583C86.2497 77.2023 86.2643 77.148 86.2795 77.0955C86.3354 76.9029 86.3164 76.7564 86.2512 76.6422C86.1846 76.5256 86.0636 76.4317 85.8956 76.3596C85.602 76.2335 85.1875 76.1834 84.7494 76.18C85.1062 76.4706 85.5933 76.8265 86.2356 77.2583ZM86.2002 77.409C85.4501 76.9061 84.9041 76.5024 84.5261 76.1822C84.1187 76.1929 83.7117 76.2387 83.386 76.2932C83.318 76.4015 83.2343 76.5495 83.1838 76.6723C83.1567 76.7381 83.1429 76.7883 83.1413 76.8188C83.1481 76.8173 83.1566 76.8151 83.1672 76.8119C83.19 76.8051 83.2182 76.7953 83.253 76.7832L83.2559 76.7822C83.3241 76.7585 83.4126 76.7277 83.5147 76.7012C83.7217 76.6475 83.9892 76.6102 84.2729 76.6838C84.8486 76.8331 85.4491 77.4253 85.7729 79.1059C86.2867 81.7727 87.1292 84.5146 87.486 85.5515C87.9857 86.9593 89.0224 90.7748 89.2032 94.8535H89.9204C89.8802 93.8106 89.7297 92.1172 89.4042 90.332C89.0704 88.5017 88.5537 86.5815 87.7871 85.1671C85.9752 81.8239 85.8532 78.9907 86.2002 77.409Z" fill="#191814"/>
<path d="M78.7491 95C82.3447 84.9902 83.0771 78.1626 82.9939 76L82.7442 76.4634C82.5444 83.878 79.4982 91.7561 78 94.7683L78.7491 95Z" fill="#191814"/>
<path fill-rule="evenodd" clip-rule="evenodd" d="M82.9314 76.0017C82.967 76.0091 82.9927 76.0384 82.994 76.0729C83.0751 78.2305 82.3632 85.0132 78.8802 94.9483C78.8664 94.9879 78.8213 95.0093 78.7796 94.9961L78.0544 94.7662C78.0329 94.7594 78.0155 94.7443 78.0065 94.7245C77.9976 94.7048 77.9978 94.6823 78.0073 94.6628C79.4553 91.6798 82.4002 83.875 82.5933 76.5335C82.5936 76.5224 82.5964 76.5115 82.6016 76.5015L82.8434 76.0418C82.8597 76.0109 82.8959 75.9944 82.9314 76.0017ZM82.7519 76.5541C82.5557 83.8567 79.6533 91.6032 78.1888 94.6494L78.7545 94.8287C82.0605 85.3763 82.848 78.8034 82.8409 76.3848L82.7519 76.5541Z" fill="#191814"/>
<path d="M69.1719 90L68 88C69.0937 87.3333 71.6094 85.6444 72.9219 84.2222C74.5625 82.4444 74.0937 82.6667 77.375 80C78.6595 78.9561 79.5474 78.0825 80.1376 77.4103C80.2378 77.2871 80.3322 77.1752 80.4228 77.0735C80.8461 76.5532 81.0587 76.1886 81.125 76L81.1076 76.4555C80.881 76.6019 80.6655 76.801 80.4228 77.0735C80.3366 77.1794 80.2418 77.2917 80.1376 77.4103C78.8518 78.9915 76.609 82.4325 69.1719 90Z" fill="#191814"/>
<path fill-rule="evenodd" clip-rule="evenodd" d="M81.0833 76.0012C81.1207 76.0076 81.1474 76.039 81.146 76.075L81.1341 76.3887C81.38 76.2523 81.605 76.1945 81.8092 76.198C82.0433 76.202 82.242 76.2864 82.4055 76.412C82.7292 76.6605 82.9207 77.0737 83 77.3744L82.8519 77.4095C82.7765 77.1237 82.5968 76.7451 82.3094 76.5245C82.1675 76.4155 82.0008 76.346 81.8065 76.3427C81.6116 76.3393 81.3811 76.4024 81.1121 76.5724L81.0781 76.5241L81.1121 76.5724C81.1066 76.5759 81.101 76.5795 81.0955 76.583C80.8794 76.7225 80.6716 76.9137 80.434 77.1803C80.3486 77.2851 80.2547 77.3962 80.1518 77.5134C79.9208 77.7974 79.6584 78.1424 79.3392 78.5619C77.9025 80.4504 75.318 83.8476 69.2923 89.977C69.2757 89.9939 69.2515 90.0023 69.2272 89.9995C69.203 89.9967 69.1816 89.983 69.1697 89.9628L68.0096 87.9835C67.9901 87.9501 68.0012 87.9081 68.0351 87.8874C69.1172 87.2281 71.5997 85.5612 72.8914 84.1619C73.2541 83.769 73.5139 83.4734 73.7347 83.222C74.005 82.9144 74.2171 82.673 74.4885 82.4005C74.9847 81.9025 75.6837 81.2955 77.3077 79.9761C78.5759 78.9457 79.4516 78.0843 80.0327 77.4229C80.1316 77.3013 80.2251 77.1904 80.3151 77.0893C80.7322 76.5767 80.9359 76.2241 80.9973 76.0495C81.0093 76.0153 81.046 75.9948 81.0833 76.0012ZM80.9125 76.5296C80.9342 76.5141 80.9558 76.499 80.9776 76.4844L80.9801 76.4206C80.9594 76.4552 80.9369 76.4916 80.9125 76.5296ZM79.1751 78.5302C78.6943 78.9942 78.1104 79.5145 77.407 80.086C75.7827 81.4057 75.0895 82.0082 74.5995 82.4999C74.3296 82.7708 74.1227 83.0064 73.8564 83.3097C73.6365 83.5601 73.3761 83.8567 73.0063 84.2572C71.723 85.6474 69.2911 87.2885 68.1778 87.9724L69.2522 89.8055C75.1637 83.7863 77.7356 80.4222 79.1751 78.5302Z" fill="#191814"/>
<path d="M76.6047 75.6436C76.0465 75.934 73.9256 76.7327 69.907 77.604C65.8884 78.4752 64.3256 79.5644 64.0465 80L63.8372 78.4752C69.0698 77.8218 75.9767 75.6436 76.3953 75.4257C76.7302 75.2515 76.6744 75.4983 76.6047 75.6436Z" fill="#191814"/>
<path d="M80.6396 76.2364C80.6213 76.2753 80.6013 76.297 80.5814 76.297L80.6396 76.2364C80.8135 75.868 80.8404 73.9633 79.3256 74.5545L77.4419 75.4257C77.3023 75.3531 77.1488 75.1644 77.6512 74.9901C78.2791 74.7723 79.1163 74.3366 79.3256 73.901C79.493 73.5525 79.1163 72.7393 78.907 72.3762C77.9302 72.0858 75.0558 71.3307 71.3721 70.6337C66.7674 69.7624 65.9302 69.5446 63 68.0198L63.4186 67.1485C63.9767 67.8746 66.2233 69.5446 70.7442 70.4158C75.2651 71.2871 77.5116 71.7954 78.0698 71.9406C78.8107 72.1058 79.9931 72.246 80.1556 71.4674L79.9535 70.4158C76.0465 66.7855 68.1907 59.2198 68.0233 58.8713C67.8558 58.5228 68.6512 58.1452 69.0698 58C70.6047 60.2508 75.014 65.8416 80.3721 70.198L79.9535 70.4158C80.1556 70.8787 80.2073 71.2196 80.1556 71.4674L81 75.8614L80.6396 76.2364Z" fill="#191814"/>
<path fill-rule="evenodd" clip-rule="evenodd" d="M68.4076 58.0037C68.4378 57.9937 68.4709 58.0044 68.4893 58.03C70.0942 60.2622 74.7085 65.8112 80.3145 70.1342C80.334 70.1492 80.3443 70.1731 80.3419 70.1974C80.3394 70.2217 80.3245 70.243 80.3024 70.254L79.9255 70.4399C80.1133 70.8665 80.168 71.1977 80.1169 71.4517L80.9986 75.803C81.0033 75.8264 80.9959 75.8505 80.9789 75.8673L80.6093 76.2321C80.599 76.251 80.5867 76.2693 80.5718 76.2842C80.5543 76.3017 80.5264 76.321 80.4894 76.321C80.4602 76.321 80.4339 76.3036 80.4227 76.277C80.4115 76.2504 80.4177 76.2198 80.4383 76.1994L80.4903 76.1481C80.527 76.0664 80.5599 75.8977 80.5631 75.6903C80.5665 75.4767 80.5381 75.2335 80.4579 75.0214C80.3777 74.8094 80.2483 74.6349 80.0534 74.5448C79.8593 74.4552 79.5855 74.4426 79.2012 74.5844L77.2299 75.4492C77.2102 75.4579 77.1876 75.4574 77.1683 75.4478C77.1262 75.4271 77.0805 75.3969 77.0452 75.3577C77.0101 75.3187 76.9801 75.2643 76.9862 75.199C76.9924 75.1335 77.0332 75.0754 77.099 75.0254C77.1646 74.9755 77.2617 74.9283 77.397 74.8838C77.722 74.7769 78.101 74.6164 78.4249 74.4299C78.7526 74.2413 79.0099 74.0337 79.1093 73.8374C79.1439 73.7691 79.1536 73.6701 79.1385 73.5457C79.1236 73.4227 79.0857 73.2834 79.0346 73.141C78.9369 72.8688 78.7945 72.5938 78.688 72.4151C77.6416 72.1218 74.652 71.3792 70.8293 70.6931C68.4185 70.2605 66.9893 69.9893 65.779 69.6364C64.567 69.2829 63.5759 68.8479 62.0399 68.0898C62.0228 68.0814 62.0098 68.0666 62.0037 68.0487C61.9977 68.0308 61.9991 68.0112 62.0076 67.9943L62.4461 67.1287C62.4571 67.1069 62.4786 67.0923 62.503 67.0897C62.5275 67.0871 62.5516 67.0971 62.567 67.116C62.85 67.4653 63.5741 68.0548 64.8229 68.6657C66.0698 69.2757 67.8356 69.9049 70.1976 70.3367C74.9303 71.2017 77.2856 71.7069 77.8746 71.8522C78.2607 71.9338 78.7549 72.0075 79.171 71.9673C79.5846 71.9273 79.8895 71.7798 79.9695 71.4505L79.7656 70.444C77.7187 68.6397 74.6483 65.8678 72.0648 63.5012C70.7693 62.3145 69.596 61.2295 68.7356 60.4194C68.3054 60.0144 67.9531 59.6779 67.7028 59.4316C67.5776 59.3085 67.4775 59.2076 67.4058 59.1317C67.3699 59.0938 67.3406 59.0616 67.3186 59.0358C67.2983 59.0119 67.2795 58.9881 67.2697 58.9687C67.2102 58.8513 67.2409 58.7348 67.3105 58.6353C67.3787 58.538 67.4892 58.4481 67.6127 58.3686C67.861 58.209 68.1853 58.0768 68.4076 58.0037ZM79.8431 70.3214L80.1358 70.1769C74.5925 65.8814 70.0327 60.4116 68.4029 58.1558C68.1906 58.2292 67.9079 58.3488 67.6915 58.4879C67.5738 58.5636 67.4816 58.6414 67.4292 58.7163C67.3782 58.7891 67.3705 58.8493 67.3987 58.905L67.3987 58.905C67.3989 58.9054 67.4009 58.9087 67.4063 58.916C67.4117 58.9233 67.4193 58.9326 67.4291 58.9442C67.4488 58.9673 67.4762 58.9974 67.5112 59.0345C67.5813 59.1085 67.6799 59.2081 67.8046 59.3307C68.0539 59.5759 68.4052 59.9116 68.8352 60.3164C69.6949 61.1258 70.8677 62.2103 72.163 63.3969C74.7382 65.7559 77.7972 68.5176 79.8431 70.3214ZM80.0201 71.6999C79.8549 71.9634 79.5326 72.0754 79.1851 72.109C78.7457 72.1515 78.233 72.0736 77.8432 71.9912L77.8408 71.9907L77.8408 71.9906C77.5578 71.9208 76.8569 71.7657 75.6675 71.5254C77.1335 71.8558 78.2175 72.1343 78.7552 72.2859C78.7727 72.2909 78.7878 72.3023 78.7972 72.3178C78.9086 72.501 79.0644 72.7975 79.1706 73.0935C79.2236 73.2414 79.2652 73.3916 79.2818 73.5288C79.2982 73.6644 79.2914 73.7963 79.2384 73.9011C79.1185 74.1376 78.8277 74.3629 78.4976 74.553C78.1638 74.7452 77.7754 74.9094 77.4426 75.0189C77.3148 75.0609 77.2347 75.102 77.187 75.1383C77.1395 75.1744 77.131 75.2002 77.1299 75.2122C77.1287 75.2245 77.1334 75.2413 77.1531 75.2631C77.1665 75.278 77.1844 75.2922 77.2043 75.3046L79.1445 74.4534C79.1453 74.4531 79.1461 74.4528 79.1468 74.4525C79.1474 74.4523 79.1479 74.452 79.1485 74.4518C79.5566 74.3008 79.8737 74.3046 80.1146 74.4158C80.355 74.5269 80.5047 74.7382 80.593 74.9716C80.6813 75.2049 80.7109 75.4668 80.7074 75.6926C80.7059 75.7854 80.6988 75.8742 80.6872 75.9538L80.8496 75.7936L80.0201 71.6999ZM68.5246 70.1231C66.9528 69.7319 65.7085 69.2578 64.7588 68.7933C63.5914 68.2221 62.8658 67.6636 62.5263 67.2888L62.1689 67.9943C63.6657 68.7314 64.637 69.1548 65.8199 69.4998C66.5722 69.7192 67.4106 69.907 68.5246 70.1231ZM76.4394 75.4988C76.4276 75.5457 76.408 75.593 76.3881 75.6324C76.3811 75.6462 76.3698 75.6574 76.3558 75.6642C75.7625 75.9571 73.5332 76.752 69.3222 77.618C67.2212 78.05 65.7647 78.5355 64.7986 78.9657C64.3155 79.1808 63.9558 79.3818 63.6997 79.5547C63.4421 79.7287 63.2939 79.8714 63.2284 79.9683C63.2118 79.9929 63.1816 80.0048 63.1524 79.9982C63.1233 79.9917 63.1012 79.9681 63.097 79.9389L62.8777 78.424C62.875 78.405 62.8801 78.3857 62.8919 78.3705C62.9037 78.3553 62.9213 78.3455 62.9406 78.3432C65.6765 78.0191 68.8521 77.3167 71.3998 76.6678C72.6733 76.3434 73.7892 76.0325 74.614 75.7893C75.0264 75.6677 75.3657 75.5631 75.6155 75.4822C75.8679 75.4004 76.0231 75.3446 76.072 75.3205C76.1626 75.2758 76.2377 75.2522 76.2984 75.2534C76.3302 75.2541 76.3614 75.2617 76.3881 75.2799C76.4152 75.2983 76.4319 75.3238 76.4411 75.3502C76.4581 75.399 76.4507 75.4545 76.4394 75.4988ZM76.2953 75.3958C76.2706 75.3953 76.2214 75.406 76.1366 75.4478C76.0759 75.4778 75.909 75.537 75.6605 75.6175C75.4092 75.6989 75.0685 75.8039 74.6553 75.9258C73.8288 76.1695 72.7111 76.4808 71.4358 76.8057C68.9085 77.4494 65.7596 78.1469 63.031 78.4759L63.2168 79.7597C63.3095 79.6649 63.4421 79.5562 63.6182 79.4372C63.8829 79.2585 64.2503 79.0536 64.7393 78.8359C65.7172 78.4005 67.1841 77.9122 69.2928 77.4786C73.449 76.6239 75.6603 75.8407 76.2692 75.5476C76.2817 75.5204 76.2926 75.4914 76.2995 75.4643C76.3087 75.4279 76.3078 75.4059 76.3048 75.3968C76.303 75.3964 76.3 75.3959 76.2953 75.3958Z" fill="#191814"/>
<path d="M82.1384 70.0258C82.1384 70.8976 80.5884 70.5343 79.8133 70.2438C79.2497 71.4061 78.4183 73.8616 79.6019 74.3847C81.0816 75.0385 80.0247 76.7821 80.2361 76.5641C80.4474 76.3462 80.8702 76.3462 81.0816 76.3462C81.2507 76.3462 81.4338 76.4915 81.5043 76.5641L81.927 77L82.1384 76.3462L82.9839 76.1282L85.7318 75.4744L87 73.077L86.3659 72.4232C86.0277 72.0745 86.225 71.6967 86.3659 71.5514C86.5773 70.9702 86.8309 69.9822 86.1545 70.6796C85.4781 71.3771 84.8863 71.1155 84.6749 70.8976C83.4067 70.0258 84.6749 69.372 84.6749 68.9361C84.6749 68.5874 84.534 68.7908 84.4635 68.9361C84.3931 69.0814 84.1676 69.4592 83.8294 69.8079C83.4067 70.2437 83.1953 70.0258 82.7725 70.0258C82.3498 70.0258 81.7157 67.6284 81.5043 67.1925C81.3352 66.8438 81.2929 67.0472 81.2929 67.1925C81.5748 67.7737 82.1384 69.154 82.1384 70.0258Z" fill="#191814"/>
<path fill-rule="evenodd" clip-rule="evenodd" d="M81.3907 67.2443C81.4938 67.459 81.6324 67.7761 81.7668 68.134C81.7533 68.0936 81.7401 68.0539 81.7271 68.015C81.7142 67.9762 81.7016 67.9383 81.6892 67.9013C81.5943 67.6169 81.5181 67.3943 81.4687 67.2921C81.4393 67.2312 81.4157 67.1919 81.3978 67.1677C81.3936 67.1903 81.3913 67.2173 81.3907 67.2443ZM81.9769 68.7475C82.1167 69.203 82.2215 69.6736 82.2215 70.0537C82.2215 70.1723 82.1951 70.274 82.1443 70.3587C82.0935 70.4433 82.0209 70.5068 81.9346 70.5529C81.7642 70.6441 81.5358 70.6706 81.2936 70.6615C80.8311 70.6441 80.2848 70.4951 79.9021 70.3563C79.6319 70.9266 79.3098 71.7801 79.1873 72.5575C79.1239 72.9595 79.1149 73.3353 79.19 73.6392C79.2644 73.9407 79.4201 74.1677 79.6869 74.286C80.0645 74.4533 80.2857 74.6934 80.4038 74.9593C80.5212 75.2234 80.5338 75.5061 80.5071 75.7554C80.4817 75.9914 80.4205 76.2017 80.3751 76.344C80.4722 76.2906 80.5826 76.2599 80.6876 76.2418C80.849 76.214 81.0094 76.214 81.113 76.214H81.1143C81.2149 76.214 81.3138 76.2567 81.3928 76.3042C81.4728 76.3522 81.5397 76.4098 81.5782 76.4496L81.9155 76.7984L82.0883 76.2624C82.0957 76.2394 82.1139 76.222 82.1366 76.2161L82.9688 76.001L85.6398 75.3635L86.8471 73.0744L86.26 72.4672C86.0781 72.279 86.0366 72.077 86.0643 71.9009C86.0901 71.7371 86.1748 71.6005 86.2493 71.5191C86.2992 71.3805 86.3509 71.22 86.3911 71.0666C86.4329 70.9068 86.461 70.7595 86.4634 70.6537C86.4646 70.5999 86.4589 70.5648 86.4507 70.5453C86.4469 70.5365 86.4439 70.5339 86.4434 70.5335C86.4432 70.5333 86.443 70.5332 86.4428 70.5331C86.4425 70.533 86.4415 70.5327 86.4392 70.5326C86.4279 70.5319 86.3991 70.5379 86.3463 70.5735C86.2954 70.6078 86.2304 70.6641 86.1489 70.7483C85.8058 71.1031 85.477 71.2207 85.2006 71.2148C84.9306 71.2091 84.719 71.0857 84.6029 70.9682C84.2883 70.7502 84.12 70.5386 84.0553 70.3305C83.9896 70.1189 84.035 69.9246 84.1177 69.7535C84.186 69.6123 84.283 69.4806 84.3684 69.3648C84.3849 69.3425 84.401 69.3207 84.4163 69.2996C84.4648 69.2327 84.506 69.1725 84.535 69.117C84.5644 69.061 84.5779 69.0161 84.5779 68.9794C84.5779 68.9402 84.576 68.9103 84.573 68.888C84.5676 68.8949 84.562 68.9026 84.5562 68.9112C84.5359 68.9412 84.5159 68.9774 84.4997 69.011C84.4274 69.1604 84.2017 69.5392 83.8636 69.8888C83.6459 70.114 83.4735 70.1781 83.2958 70.1781C83.218 70.1781 83.1406 70.1657 83.0643 70.1535C83.0579 70.1525 83.0516 70.1515 83.0452 70.1504C82.9612 70.1371 82.8747 70.1244 82.7764 70.1244C82.694 70.1244 82.6214 70.0674 82.5614 69.9987C82.4989 69.9272 82.4366 69.8276 82.3755 69.7115C82.253 69.4787 82.1283 69.166 82.0112 68.8431C81.9997 68.8113 81.9883 68.7795 81.9769 68.7475ZM81.4748 67.0446C81.5108 67.0805 81.5487 67.1415 81.591 67.2289C81.6455 67.3416 81.7251 67.5756 81.8185 67.8552C81.8309 67.8923 81.8435 67.9303 81.8565 67.9691C81.9418 68.2254 82.0381 68.5145 82.1392 68.7934C82.2559 69.1151 82.3779 69.4202 82.4956 69.6439C82.5546 69.7561 82.6109 69.8445 82.6628 69.9039C82.7172 69.9662 82.755 69.983 82.7764 69.983C82.8859 69.983 82.9812 69.9972 83.066 70.0107C83.0716 70.0116 83.0772 70.0125 83.0828 70.0134C83.1617 70.026 83.229 70.0367 83.2958 70.0367C83.4298 70.0367 83.5691 69.9935 83.7669 69.7889C84.0936 69.451 84.3111 69.0849 84.3774 68.9478C84.3957 68.9098 84.419 68.8673 84.4442 68.8301C84.4676 68.7956 84.4988 68.756 84.535 68.7351C84.5541 68.724 84.5831 68.7133 84.6161 68.7222C84.65 68.7313 84.6714 68.7567 84.6839 68.781C84.7066 68.8252 84.7146 68.893 84.7146 68.9794C84.7146 69.0501 84.6892 69.1194 84.6553 69.1843C84.621 69.2497 84.5746 69.317 84.5257 69.3844C84.509 69.4073 84.4921 69.4304 84.475 69.4535C84.3896 69.5695 84.3019 69.6886 84.24 69.8168C84.1669 69.968 84.1343 70.1228 84.1855 70.2872C84.2373 70.4539 84.379 70.644 84.6842 70.8543C84.6879 70.8569 84.6914 70.8599 84.6946 70.8632C84.7873 70.9591 84.9683 71.0685 85.2034 71.0735C85.4361 71.0784 85.7306 70.981 86.0523 70.6483C86.137 70.5607 86.2096 70.4969 86.2716 70.4551C86.3315 70.4147 86.3908 70.3884 86.4463 70.3914C86.4759 70.3929 86.5036 70.4029 86.5271 70.4217C86.5499 70.44 86.5654 70.464 86.5759 70.4887C86.5961 70.5364 86.6014 70.5962 86.6 70.657C86.5972 70.7804 86.5656 70.9411 86.523 71.1035C86.4801 71.2673 86.4249 71.4377 86.3724 71.5826C86.3689 71.592 86.3636 71.6006 86.3567 71.6077C86.2952 71.6714 86.2207 71.7874 86.1992 71.9236C86.1785 72.0555 86.2062 72.2116 86.3567 72.3672L86.98 73.0118C87.0014 73.034 87.0062 73.0681 86.9917 73.0956L85.7451 75.4591C85.7357 75.4769 85.7195 75.4896 85.7004 75.4942L83.0008 76.1384L82.9996 76.1387L82.2061 76.3439L82.0102 76.9517C82.0027 76.9749 81.9841 76.9925 81.9611 76.9981C81.938 77.0037 81.9138 76.9966 81.897 76.9793L81.4815 76.5496C81.4507 76.5177 81.3931 76.4679 81.3241 76.4264C81.2542 76.3844 81.18 76.3554 81.1143 76.3554C81.0101 76.3554 80.8596 76.3555 80.7101 76.3813C80.559 76.4073 80.4204 76.4578 80.3316 76.5496C80.3242 76.5572 80.3157 76.5655 80.3066 76.572C80.3022 76.5753 80.2954 76.5797 80.2869 76.5832C80.2791 76.5863 80.263 76.5914 80.2434 76.587C80.2202 76.5817 80.204 76.566 80.1954 76.5494C80.1882 76.5355 80.1868 76.5224 80.1864 76.5157C80.1856 76.502 80.188 76.4889 80.1896 76.4807C80.195 76.4545 80.209 76.4118 80.2252 76.3619C80.2293 76.3493 80.2336 76.3362 80.2379 76.3228C80.283 76.1829 80.346 75.9738 80.3712 75.7398C80.3963 75.5056 80.383 75.2511 80.2796 75.0183C80.177 74.7874 79.9827 74.5709 79.6331 74.4159C79.3182 74.2764 79.1398 74.0074 79.0575 73.6742C78.9758 73.3434 78.9876 72.9456 79.0524 72.5347C79.182 71.7123 79.5279 70.8136 79.8066 70.237C79.8222 70.2049 79.8585 70.1899 79.8911 70.2021C80.2689 70.3442 80.8326 70.5027 81.2986 70.5202C81.5326 70.529 81.7327 70.5018 81.8718 70.4274C81.9402 70.3907 81.9926 70.3434 82.0281 70.2842C82.0636 70.2251 82.0848 70.15 82.0848 70.0537C82.0848 69.6363 81.9495 69.0905 81.7769 68.5727C81.6048 68.0567 81.3983 67.5761 81.261 67.2921C81.2562 67.2823 81.2537 67.2715 81.2537 67.2605C81.2537 67.2218 81.2565 67.1775 81.2642 67.1379C81.268 67.1181 81.2734 67.0975 81.2814 67.0787C81.2889 67.0607 81.3012 67.0386 81.3217 67.0221C81.345 67.0033 81.375 66.9953 81.4065 67.0028C81.4341 67.0094 81.4568 67.0265 81.4748 67.0446Z" fill="#191814"/>
<path d="M79.4171 62.443C77.6631 59.3992 76.4938 54.1621 76.1283 51.924C76.8592 51.551 78.277 50.8497 78.1016 51.0287C77.8824 51.2525 77.8824 53.9383 78.1016 55.2811C78.3209 56.624 80.2941 64.2334 80.7326 64.6811C81.0834 65.0392 81.1711 65.7255 81.1711 66.0239C81.1711 66.1731 81.1273 66.3373 80.9519 65.8001C80.7765 65.263 79.8556 63.3382 79.4171 62.443Z" fill="#191814"/>
<path d="M62.3155 87.2857C62.0963 87.2857 61.4385 87.0619 61 86.3905H61.6578C61.9501 86.6889 62.4909 87.2857 62.3155 87.2857Z" fill="#191814"/>
<path d="M101.342 94C100.991 94 100.904 93.4032 100.904 93.1048C101.43 92.7467 101.854 93.254 102 93.5524C101.927 93.7016 101.693 94 101.342 94Z" fill="#191814"/>
<path fill-rule="evenodd" clip-rule="evenodd" d="M78.186 51.1272C78.1795 51.1376 78.1714 51.1467 78.1644 51.1539C78.1616 51.1567 78.1532 51.1685 78.1423 51.1977C78.1321 51.2252 78.1219 51.2621 78.1121 51.3087C78.0925 51.4017 78.0757 51.5265 78.0622 51.6768C78.0352 51.977 78.0215 52.3718 78.0215 52.8027C78.0215 53.6652 78.0761 54.6643 78.1844 55.3278C78.2929 55.9925 78.838 58.2191 79.4118 60.3388C79.6984 61.3979 79.9917 62.4284 80.2405 63.2216C80.3649 63.6184 80.4779 63.9548 80.5732 64.2055C80.6208 64.3309 80.6636 64.4338 80.7008 64.5115C80.7394 64.592 80.7682 64.6375 80.7861 64.6559C80.9739 64.8475 81.0874 65.1222 81.1544 65.3804C81.2216 65.6398 81.2442 65.8915 81.2442 66.046C81.2442 66.0854 81.2414 66.1305 81.2325 66.167C81.2282 66.1843 81.2208 66.2074 81.2061 66.2268C81.1982 66.2372 81.1863 66.2491 81.1692 66.257C81.1511 66.2652 81.1315 66.2668 81.113 66.2626C81.0803 66.2552 81.0577 66.2316 81.0439 66.2143C81.0283 66.1946 81.013 66.1689 80.9976 66.1378C80.9665 66.0754 80.9297 65.9812 80.8856 65.8462C80.7999 65.5837 80.5291 64.975 80.2225 64.3154C79.9174 63.6591 79.5796 62.9582 79.3612 62.5124C78.4832 60.9879 77.7534 58.9188 77.1978 56.955C76.6417 54.9894 76.2588 53.1242 76.0763 52.0063C76.0711 51.9745 76.0868 51.943 76.115 51.9286C76.4795 51.7425 77.0155 51.4745 77.4389 51.2752C77.6502 51.1757 77.8351 51.0925 77.9569 51.0453C78.015 51.0227 78.0671 51.005 78.1008 51.001C78.1093 51 78.1236 50.9989 78.139 51.0025C78.1548 51.0063 78.19 51.0209 78.1987 51.0638C78.2051 51.0958 78.1903 51.1203 78.186 51.1272ZM76.2269 52.0356C76.4119 53.1537 76.7903 54.9854 77.336 56.9143C77.8907 58.8752 78.617 60.9314 79.4864 62.4401C79.4872 62.4415 79.488 62.443 79.4887 62.4445C79.7074 62.8909 80.0462 63.594 80.3524 64.2525C80.6575 64.9089 80.9329 65.5269 81.022 65.7998C81.0524 65.8928 81.0783 65.963 81.1001 66.0148C81.0972 65.8698 81.0748 65.647 81.0154 65.418C80.9513 65.1706 80.8463 64.9248 80.6845 64.7596C80.6478 64.7222 80.6101 64.6562 80.5717 64.5759C80.532 64.493 80.4875 64.3858 80.4391 64.2586C80.3424 64.0039 80.2284 63.6642 80.1036 63.2664C79.8539 62.4705 79.5601 61.4378 79.2732 60.3779C78.6999 58.2598 78.1526 56.0256 78.0426 55.3519C77.9324 54.6771 77.8778 53.6689 77.8778 52.8027C77.8778 52.3694 77.8915 51.9696 77.919 51.6634C77.9328 51.5104 77.9502 51.3791 77.9716 51.2778C77.9784 51.2453 77.9858 51.2152 77.9939 51.188C77.877 51.2341 77.7019 51.3129 77.4991 51.4084C77.0957 51.5984 76.5886 51.8514 76.2269 52.0356ZM78.1183 51.1467C78.1183 51.1467 78.118 51.1467 78.1176 51.1468ZM61.0085 86.3085C61.021 86.2846 61.0454 86.2697 61.0719 86.2697H61.7273C61.7464 86.2697 61.7647 86.2774 61.7782 86.2912C61.9246 86.4407 62.134 86.6656 62.2854 86.8542C62.3603 86.9474 62.4247 87.0362 62.459 87.1041C62.4677 87.1215 62.4754 87.1391 62.4807 87.1564C62.4858 87.1729 62.4902 87.1936 62.4884 87.2154C62.4864 87.2392 62.4765 87.2667 62.4515 87.2865C62.4286 87.3047 62.4024 87.3087 62.3828 87.3087C62.2571 87.3087 62.0264 87.2472 61.7744 87.1043C61.52 86.96 61.2378 86.7294 61.0121 86.3838C60.9974 86.3613 60.996 86.3323 61.0085 86.3085ZM61.2116 86.4165C61.4072 86.6775 61.636 86.8579 61.8442 86.976C62.0415 87.0879 62.2163 87.1416 62.3236 87.157C62.2947 87.1047 62.2423 87.0319 62.1743 86.9472C62.0341 86.7727 61.8408 86.5638 61.6975 86.4165H61.2116ZM101.562 92.9496C101.766 93.078 101.916 93.2914 101.992 93.4477C102.003 93.4684 102.003 93.4927 101.992 93.5133C101.952 93.5962 101.869 93.7161 101.75 93.8161C101.63 93.9166 101.468 94 101.273 94C101.049 94 100.923 93.808 100.855 93.6169C100.786 93.4204 100.764 93.1883 100.764 93.0344C100.764 93.0099 100.776 92.987 100.796 92.9734C100.938 92.8769 101.076 92.8363 101.208 92.8384C101.339 92.8405 101.458 92.8848 101.562 92.9496ZM100.908 93.0745C101.016 93.0084 101.116 92.9837 101.206 92.9851C101.306 92.9867 101.4 93.0205 101.486 93.0746C101.647 93.1757 101.774 93.3437 101.847 93.4799C101.81 93.5443 101.746 93.6296 101.659 93.7026C101.557 93.788 101.426 93.8532 101.273 93.8532C101.147 93.8532 101.054 93.7479 100.991 93.5672C100.934 93.4076 100.912 93.2159 100.908 93.0745Z" fill="#191814"/>
<path d="M90 87.9224C90.4167 88.1202 91.0417 87.9224 90.8333 87.5268C90.625 87.1313 90 87.5268 90 87.9224Z" fill="#191814"/>
<path d="M95 81.9889C95 82.3054 94.3056 81.8571 93.9583 81.5933L94.7917 81C94.8611 81.1978 95 81.6725 95 81.9889Z" fill="#191814"/>
<path fill-rule="evenodd" clip-rule="evenodd" d="M94.7504 81.0033C94.7709 81.0103 94.787 81.0277 94.7938 81.0499C94.8616 81.2725 95 81.8148 95 82.1826C95 82.2388 94.9865 82.2926 94.9492 82.3308C94.9125 82.3686 94.8646 82.3788 94.8208 82.3776C94.7357 82.3753 94.6289 82.3293 94.5227 82.2698C94.3056 82.1481 94.0481 81.9449 93.8777 81.7958C93.8616 81.7817 93.8524 81.7602 93.8527 81.7376C93.853 81.715 93.8629 81.6939 93.8794 81.6803L94.6905 81.0146C94.7076 81.0005 94.7299 80.9963 94.7504 81.0033ZM94.029 81.7401C94.1917 81.8772 94.4043 82.0394 94.5835 82.1398C94.6885 82.1986 94.7717 82.2302 94.824 82.2316C94.8488 82.2323 94.8564 82.2259 94.8579 82.2243C94.859 82.2233 94.8666 82.2151 94.8666 82.1826C94.8666 81.8834 94.7658 81.4462 94.6954 81.1931L94.029 81.7401ZM90.6753 88.1436C90.7838 88.1612 90.8777 88.2326 90.9375 88.3635C90.9957 88.4909 90.9991 88.6119 90.9538 88.7154C90.9098 88.8161 90.8249 88.8887 90.7267 88.9348C90.5313 89.0264 90.2573 89.0258 90.0369 88.9052C90.0143 88.8929 90 88.8676 90 88.8399C90 88.5844 90.1716 88.3415 90.3631 88.2218C90.4602 88.1611 90.5704 88.1266 90.6753 88.1436ZM90.1359 88.7943C90.3138 88.8755 90.5258 88.8701 90.6741 88.8006C90.7533 88.7634 90.8078 88.7112 90.8335 88.6524C90.8579 88.5964 90.8613 88.5232 90.8181 88.4288C90.7765 88.3377 90.7183 88.2982 90.6558 88.288C90.5895 88.2773 90.5097 88.2983 90.4293 88.3485C90.2791 88.4425 90.1549 88.62 90.1359 88.7943Z" fill="#191814"/>
<path d="M106.56 65.4598C106.56 65.2414 106.516 64.7172 106.34 64.3678C106.868 64.3678 107 64.8046 107 65.023L106.56 65.4598Z" fill="#191814"/>
<path d="M105.68 60.6552H104.8V60.4368V60H105.46L105.68 60.6552Z" fill="#191814"/>
<path d="M76.42 60.8736C76.948 61.0483 77.2267 60.6552 77.3 60.4368C77.08 60.4368 76.596 60.5241 76.42 60.8736Z" fill="#191814"/>
<path d="M64.1 98H63L63.88 97.1264L64.1 98Z" fill="#191814"/>
<path fill-rule="evenodd" clip-rule="evenodd" d="M104.663 60.0716C104.663 60.032 104.695 60 104.735 60H105.393C105.424 60 105.452 60.0197 105.461 60.0489L105.681 60.7017C105.688 60.7235 105.684 60.7475 105.671 60.7661C105.657 60.7848 105.635 60.7959 105.612 60.7959H104.735C104.695 60.7959 104.663 60.7638 104.663 60.7243V60.0716ZM104.807 60.1432V60.6527H105.512L105.341 60.1432H104.807ZM76.8442 60.527C77.0236 60.4581 77.208 60.4351 77.3253 60.4351C77.3484 60.4351 77.3702 60.4462 77.3838 60.4649C77.3973 60.4835 77.401 60.5075 77.3937 60.5294C77.3535 60.649 77.2581 60.8152 77.0989 60.9292C76.9359 61.0458 76.7108 61.1042 76.4253 61.0098C76.4055 61.0032 76.3895 60.9884 76.3815 60.9692C76.3735 60.9501 76.3743 60.9284 76.3836 60.9098C76.4824 60.7138 76.6652 60.5958 76.8442 60.527ZM76.5595 60.8981C76.7558 60.9402 76.9046 60.8917 77.0144 60.8131C77.1035 60.7494 77.1691 60.664 77.2121 60.585C77.1192 60.5953 77.0064 60.6182 76.8963 60.6605C76.7638 60.7114 76.6414 60.7878 76.5595 60.8981ZM106.209 64.3853C106.222 64.3642 106.245 64.3514 106.27 64.3514C106.557 64.3514 106.743 64.4715 106.855 64.6259C106.964 64.7766 107 64.9554 107 65.0756C107 65.0946 106.992 65.1128 106.979 65.1263L106.54 65.5614C106.52 65.5819 106.489 65.588 106.462 65.5769C106.435 65.5658 106.417 65.5397 106.417 65.5108C106.417 65.4058 106.406 65.2247 106.374 65.0273C106.342 64.8292 106.289 64.6197 106.205 64.455C106.194 64.4328 106.196 64.4064 106.209 64.3853ZM106.385 64.5027C106.448 64.6616 106.49 64.8399 106.517 65.0044C106.537 65.1278 106.549 65.2454 106.555 65.344L106.855 65.0468C106.85 64.9507 106.817 64.8193 106.738 64.7095C106.667 64.6121 106.557 64.5284 106.385 64.5027ZM63.9685 96.9892C63.9936 96.996 64.013 97.0158 64.0193 97.0408L64.2385 97.9111C64.2439 97.9324 64.2391 97.9551 64.2254 97.9725C64.2117 97.9898 64.1908 98 64.1685 98H63.0721C63.043 98 63.0167 97.9826 63.0055 97.9558C62.9943 97.9291 63.0005 97.8983 63.0211 97.8778L63.8982 97.0075C63.9166 96.9893 63.9435 96.9823 63.9685 96.9892ZM63.2463 97.8568H64.0761L63.9102 97.1982L63.2463 97.8568Z" fill="#191814"/>
<path d="M53 53V99H41.8151V71.4131L31.5459 99H22.5195L12.1849 71.3476V99H1V53H14.2126L27.0981 84.8462L39.8528 53H53Z" fill="#191814"/>
<path d="M79.798 37.3519H68.5163L66.7077 42.6982H59L69.9372 12.4312H78.4631L89.4004 42.6982H81.6065L79.798 37.3519ZM77.9034 31.6606L74.1571 20.58L70.454 31.6606H77.9034Z" fill="#191814"/>
<path d="M133.55 42.6982H126.187L113.872 24.0292V42.6982H106.508V12.4312H113.872L126.187 31.1864V12.4312H133.55V42.6982Z" fill="#191814"/>
<path d="M172.733 22.0028C172.187 20.9968 171.398 20.235 170.364 19.7177C169.36 19.1715 168.168 18.8985 166.79 18.8985C164.408 18.8985 162.499 19.6889 161.063 21.2698C159.628 22.822 158.91 24.9059 158.91 27.5216C158.91 30.3097 159.657 32.4942 161.149 34.0751C162.671 35.6273 164.752 36.4033 167.393 36.4033C169.202 36.4033 170.723 35.9434 171.958 35.0236C173.221 34.1038 174.139 32.7816 174.713 31.057H165.369V25.6245H181.388V32.4798C180.842 34.3194 179.909 36.0297 178.589 37.6106C177.297 39.1915 175.646 40.4706 173.637 41.4478C171.627 42.4251 169.36 42.9138 166.833 42.9138C163.848 42.9138 161.178 42.267 158.824 40.9736C156.499 39.6514 154.676 37.8261 153.356 35.4979C152.064 33.1697 151.418 30.5109 151.418 27.5216C151.418 24.5322 152.064 21.8734 153.356 19.5452C154.676 17.1882 156.499 15.363 158.824 14.0695C161.149 12.7473 163.805 12.0862 166.79 12.0862C170.407 12.0862 173.45 12.9629 175.919 14.7163C178.417 16.4696 180.067 18.8985 180.871 22.0028H172.733Z" fill="#191814"/>
<path d="M213.541 43C210.699 43 208.087 42.3389 205.705 41.0167C203.351 39.6945 201.47 37.8549 200.064 35.4979C198.686 33.1122 197.997 30.439 197.997 27.4784C197.997 24.5178 198.686 21.8591 200.064 19.5021C201.47 17.1451 203.351 15.3055 205.705 13.9833C208.087 12.6611 210.699 12 213.541 12C216.383 12 218.981 12.6611 221.335 13.9833C223.718 15.3055 225.584 17.1451 226.933 19.5021C228.311 21.8591 229 24.5178 229 27.4784C229 30.439 228.311 33.1122 226.933 35.4979C225.555 37.8549 223.689 39.6945 221.335 41.0167C218.981 42.3389 216.383 43 213.541 43ZM213.541 36.274C215.953 36.274 217.876 35.4692 219.311 33.8595C220.776 32.2499 221.508 30.1229 221.508 27.4784C221.508 24.8053 220.776 22.6783 219.311 21.0974C217.876 19.4877 215.953 18.6829 213.541 18.6829C211.101 18.6829 209.149 19.4733 207.685 21.0542C206.25 22.6351 205.532 24.7765 205.532 27.4784C205.532 30.1516 206.25 32.293 207.685 33.9026C209.149 35.4835 211.101 36.274 213.541 36.274Z" fill="#191814"/>
<path d="M53 0V46H41.6V18.4131L31.1333 46H21.9333L11.4 18.3476V46H0V0H13.4667L26.6 31.8462L39.6 0H53Z" fill="#191814"/>
<path d="M129.015 63V84.3258C129.015 86.4584 129.56 88.1001 130.65 89.2511C131.739 90.402 133.338 90.9774 135.447 90.9774C137.556 90.9774 139.173 90.402 140.298 89.2511C141.422 88.1001 141.985 86.4584 141.985 84.3258V63H151V84.275C151 87.457 150.297 90.1481 148.891 92.3484C147.485 94.5487 145.587 96.2073 143.197 97.3244C140.842 98.4415 138.206 99 135.289 99C132.372 99 129.753 98.4584 127.434 97.3752C125.149 96.2581 123.339 94.5994 122.003 92.3992C120.668 90.165 120 87.457 120 84.275V63H129.015Z" fill="#191814"/>
<path d="M185.693 50V58.7821H173.467V95H162.226V58.7821H150V50H185.693Z" fill="#191814"/>
<path d="M229 50V95H217.76V76.4744H200.274V95H189.034V50H200.274V67.6282H217.76V50H229Z" fill="#191814"/>
<path d="M228 0L228 7.00001L59 7L59 -7.38722e-06L228 0Z" fill="#191814"/>
<path d="M228 106L228 113L25 113L25 106L228 106Z" fill="#191814"/>
<path d="M1 95H12V111H1V95Z" fill="#191814"/>
<path d="M120 56H129V68H120V56Z" fill="#191814"/>
<path d="M142 60H151V76H142V60Z" fill="#191814"/>
<path d="M90 74C90 76.7614 87.5376 79 84.5 79C81.4624 79 79 76.7614 79 74C79 71.2386 81.4624 69 84.5 69C87.5376 69 90 71.2386 90 74Z" fill="#191814"/>
</svg>
