<svg width="65" height="73" viewBox="0 0 65 73" fill="none" xmlns="http://www.w3.org/2000/svg">
<mask id="path-1-inside-1_78_20707" fill="white">
<path fill-rule="evenodd" clip-rule="evenodd" d="M63.4931 29.4725C63.5058 29.4194 63.5181 29.366 63.5299 29.3124C64.6881 24.0397 60.6279 18.6671 54.461 17.3124C48.2942 15.9578 42.356 19.134 41.1977 24.4068C40.0395 29.6795 44.0997 35.0521 50.2666 36.4068C55.5738 37.5726 60.7116 35.3827 62.7791 31.3887C63.3452 31.159 64.0295 30.9605 64.433 30.8596C64.2103 30.6369 63.8222 30.0422 63.4931 29.4725Z"/>
</mask>
<path fill-rule="evenodd" clip-rule="evenodd" d="M63.4931 29.4725C63.5058 29.4194 63.5181 29.366 63.5299 29.3124C64.6881 24.0397 60.6279 18.6671 54.461 17.3124C48.2942 15.9578 42.356 19.134 41.1977 24.4068C40.0395 29.6795 44.0997 35.0521 50.2666 36.4068C55.5738 37.5726 60.7116 35.3827 62.7791 31.3887C63.3452 31.159 64.0295 30.9605 64.433 30.8596C64.2103 30.6369 63.8222 30.0422 63.4931 29.4725Z" fill="#191814"/>
<path d="M63.5299 29.3124L65.4833 29.7416L65.4833 29.7415L63.5299 29.3124ZM63.4931 29.4725L61.5483 29.0058L61.3621 29.7818L61.7613 30.4729L63.4931 29.4725ZM54.461 17.3124L54.8901 15.359L54.8901 15.359L54.461 17.3124ZM41.1977 24.4068L39.2443 23.9776L41.1977 24.4068ZM50.2666 36.4068L50.6957 34.4533L50.6957 34.4533L50.2666 36.4068ZM62.7791 31.3887L62.0271 29.5355L61.3426 29.8133L61.003 30.4693L62.7791 31.3887ZM64.433 30.8596L64.9181 32.7999L68.345 31.9432L65.8473 29.4454L64.433 30.8596ZM61.5765 28.8833C61.5674 28.9244 61.558 28.9652 61.5483 29.0058L65.4379 29.9392C65.4536 29.8735 65.4688 29.8076 65.4833 29.7416L61.5765 28.8833ZM54.0319 19.2659C59.4181 20.449 62.4371 24.9652 61.5764 28.8833L65.4833 29.7415C66.9391 23.1141 61.8376 16.8852 54.8901 15.359L54.0319 19.2659ZM43.1512 24.8359C44.0119 20.9178 48.6457 18.0827 54.0319 19.2659L54.8901 15.359C47.9426 13.8329 40.7002 17.3502 39.2443 23.9776L43.1512 24.8359ZM50.6957 34.4533C45.3095 33.2701 42.2905 28.754 43.1512 24.8359L39.2443 23.9776C37.7885 30.6051 42.89 36.834 49.8375 38.3602L50.6957 34.4533ZM61.003 30.4693C59.4275 33.5127 55.2905 35.4627 50.6957 34.4533L49.8375 38.3602C55.857 39.6825 61.9956 37.2527 64.5552 32.3082L61.003 30.4693ZM63.5312 33.242C63.9802 33.0598 64.5671 32.8876 64.9181 32.7999L63.948 28.9193C63.492 29.0333 62.7103 29.2583 62.0271 29.5355L63.5312 33.242ZM65.8473 29.4454C65.8847 29.4828 65.8816 29.4857 65.8315 29.4198C65.7891 29.3638 65.7327 29.2846 65.6644 29.1828C65.5279 28.9791 65.372 28.7268 65.2249 28.4721L61.7613 30.4729C61.9432 30.7879 62.146 31.1178 62.3415 31.4096C62.511 31.6624 62.7568 32.0118 63.0188 32.2738L65.8473 29.4454Z" fill="#FAEC03" mask="url(#path-1-inside-1_78_20707)"/>
<mask id="path-3-inside-2_78_20707" fill="white">
<path fill-rule="evenodd" clip-rule="evenodd" d="M5.71417 27.8477C5.74196 27.8947 5.77024 27.9416 5.79903 27.9883C8.6327 32.5833 15.2864 33.6216 20.6606 30.3074C26.0347 26.9932 28.0942 20.5816 25.2605 15.9866C22.4269 11.3917 15.7731 10.3534 10.399 13.6675C5.77401 16.5197 3.60397 21.6659 4.89495 25.974C4.64781 26.5327 4.29403 27.1512 4.07417 27.5043C4.38908 27.5095 5.08153 27.667 5.71417 27.8477Z"/>
</mask>
<path fill-rule="evenodd" clip-rule="evenodd" d="M5.71417 27.8477C5.74196 27.8947 5.77024 27.9416 5.79903 27.9883C8.6327 32.5833 15.2864 33.6216 20.6606 30.3074C26.0347 26.9932 28.0942 20.5816 25.2605 15.9866C22.4269 11.3917 15.7731 10.3534 10.399 13.6675C5.77401 16.5197 3.60397 21.6659 4.89495 25.974C4.64781 26.5327 4.29403 27.1512 4.07417 27.5043C4.38908 27.5095 5.08153 27.667 5.71417 27.8477Z" fill="#191814"/>
<path d="M5.79903 27.9883L4.0967 29.0381L4.0967 29.0381L5.79903 27.9883ZM5.71417 27.8477L7.43642 26.8309L7.0307 26.1437L6.26331 25.9245L5.71417 27.8477ZM20.6606 30.3074L21.7104 32.0097L20.6606 30.3074ZM25.2605 15.9866L26.9628 14.9368L25.2605 15.9866ZM10.399 13.6675L11.4488 15.3698L11.4488 15.3698L10.399 13.6675ZM4.89495 25.974L6.724 26.7831L7.02282 26.1075L6.81078 25.3999L4.89495 25.974ZM4.07417 27.5043L2.37646 26.447L0.509146 29.4455L4.04104 29.504L4.07417 27.5043ZM7.50137 26.9385C7.4793 26.9027 7.45765 26.8669 7.43642 26.8309L3.99193 28.8645C4.02626 28.9226 4.06118 28.9805 4.0967 29.0381L7.50137 26.9385ZM19.6108 28.6051C14.9169 31.4997 9.60701 30.3529 7.50136 26.9385L4.0967 29.0381C7.65839 34.8136 15.656 35.7434 21.7104 32.0097L19.6108 28.6051ZM23.5582 17.0364C25.6638 20.4509 24.3046 25.7104 19.6108 28.6051L21.7104 32.0097C27.7648 28.276 30.5245 20.7123 26.9628 14.9368L23.5582 17.0364ZM11.4488 15.3698C16.1426 12.4752 21.4525 13.622 23.5582 17.0364L26.9628 14.9368C23.4012 9.16132 15.4036 8.2315 9.34916 11.9652L11.4488 15.3698ZM6.81078 25.3999C5.82704 22.1171 7.44461 17.8392 11.4488 15.3698L9.34916 11.9652C4.10341 15.2002 1.38091 21.2147 2.97912 26.5481L6.81078 25.3999ZM3.0659 25.165C2.86989 25.6081 2.56772 26.1399 2.37646 26.447L5.77187 28.5615C6.02034 28.1626 6.42573 27.4574 6.724 26.7831L3.0659 25.165ZM4.04104 29.504C3.98807 29.5031 3.98833 29.4989 4.07012 29.5115C4.13956 29.5222 4.23516 29.5399 4.35506 29.5656C4.59478 29.6171 4.88222 29.6901 5.16504 29.7708L6.26331 25.9245C5.91349 25.8247 5.53837 25.7285 5.19498 25.6548C4.89736 25.5909 4.47785 25.5107 4.1073 25.5046L4.04104 29.504Z" fill="#FAEC03" mask="url(#path-3-inside-2_78_20707)"/>
<mask id="path-5-inside-3_78_20707" fill="white">
<path fill-rule="evenodd" clip-rule="evenodd" d="M6.44618 44.521C6.48204 44.5622 6.51837 44.6032 6.55515 44.6439C10.1759 48.648 16.9076 48.4611 21.5908 44.2263C26.2739 39.9916 27.1351 33.3126 23.5143 29.3084C19.8935 25.3043 13.1619 25.4912 8.47871 29.726C4.44841 33.3704 3.24874 38.8251 5.3004 42.8272C5.15881 43.4215 4.9232 44.094 4.77108 44.4811C5.08171 44.429 5.79125 44.4582 6.44618 44.521Z"/>
</mask>
<path fill-rule="evenodd" clip-rule="evenodd" d="M6.44618 44.521C6.48204 44.5622 6.51837 44.6032 6.55515 44.6439C10.1759 48.648 16.9076 48.4611 21.5908 44.2263C26.2739 39.9916 27.1351 33.3126 23.5143 29.3084C19.8935 25.3043 13.1619 25.4912 8.47871 29.726C4.44841 33.3704 3.24874 38.8251 5.3004 42.8272C5.15881 43.4215 4.9232 44.094 4.77108 44.4811C5.08171 44.429 5.79125 44.4582 6.44618 44.521Z" fill="#191814"/>
<path d="M6.55515 44.6439L5.0717 45.9853L5.07171 45.9853L6.55515 44.6439ZM6.44618 44.521L7.95521 43.2084L7.43146 42.6063L6.63705 42.5301L6.44618 44.521ZM21.5908 44.2263L22.9322 45.7098L21.5908 44.2263ZM23.5143 29.3084L24.9978 27.967L23.5143 29.3084ZM8.47871 29.726L9.82012 31.2094L9.82012 31.2094L8.47871 29.726ZM5.3004 42.8272L7.24594 43.2908L7.41715 42.5722L7.08017 41.9148L5.3004 42.8272ZM4.77108 44.4811L2.90965 43.7496L1.61773 47.0372L5.10155 46.4536L4.77108 44.4811ZM8.03861 43.3025C8.01042 43.2713 7.98262 43.24 7.95521 43.2084L4.93715 45.8336C4.98147 45.8845 5.02632 45.9351 5.0717 45.9853L8.03861 43.3025ZM20.2494 42.7429C16.159 46.4416 10.7291 46.2779 8.0386 43.3025L5.07171 45.9853C9.62275 51.0182 17.6562 50.4806 22.9322 45.7098L20.2494 42.7429ZM22.0309 30.6498C24.7214 33.6253 24.3397 39.0442 20.2494 42.7429L22.9322 45.7098C28.2081 40.9389 29.5488 32.9999 24.9978 27.967L22.0309 30.6498ZM9.82012 31.2094C13.9104 27.5107 19.3403 27.6744 22.0309 30.6498L24.9978 27.967C20.4467 22.9341 12.4133 23.4717 7.13729 28.2425L9.82012 31.2094ZM7.08017 41.9148C5.51677 38.8651 6.33081 34.3647 9.82012 31.2094L7.13729 28.2425C2.56602 32.3761 0.980712 38.785 3.52064 43.7396L7.08017 41.9148ZM3.35486 42.3637C3.24256 42.835 3.04197 43.4129 2.90965 43.7496L6.63252 45.2125C6.80442 44.7751 7.07505 44.008 7.24594 43.2908L3.35486 42.3637ZM5.10155 46.4536C5.04931 46.4623 5.04879 46.4581 5.13151 46.4556C5.20174 46.4535 5.29896 46.4536 5.42154 46.4571C5.66662 46.4642 5.96253 46.4838 6.25531 46.5119L6.63705 42.5301C6.2749 42.4954 5.88857 42.469 5.53749 42.4588C5.23321 42.45 4.80612 42.4473 4.44061 42.5086L5.10155 46.4536Z" fill="#FAEC03" mask="url(#path-5-inside-3_78_20707)"/>
<mask id="path-7-inside-4_78_20707" fill="white">
<path fill-rule="evenodd" clip-rule="evenodd" d="M12.679 57.9806C12.7177 58.0191 12.7569 58.0573 12.7966 58.0952C16.6981 61.8264 23.3985 61.152 27.7624 56.589C32.1263 52.0259 32.5011 45.3021 28.5996 41.5709C24.6981 37.8397 17.9977 38.514 13.6338 43.0771C9.87826 47.0041 9.07709 52.5313 11.4134 56.3743C11.3153 56.9772 11.129 57.665 11.0054 58.0621C11.3114 57.9877 12.0212 57.9654 12.679 57.9806Z"/>
</mask>
<path fill-rule="evenodd" clip-rule="evenodd" d="M12.679 57.9806C12.7177 58.0191 12.7569 58.0573 12.7966 58.0952C16.6981 61.8264 23.3985 61.152 27.7624 56.589C32.1263 52.0259 32.5011 45.3021 28.5996 41.5709C24.6981 37.8397 17.9977 38.514 13.6338 43.0771C9.87826 47.0041 9.07709 52.5313 11.4134 56.3743C11.3153 56.9772 11.129 57.665 11.0054 58.0621C11.3114 57.9877 12.0212 57.9654 12.679 57.9806Z" fill="#191814"/>
<path d="M12.7966 58.0952L11.4142 59.5406L11.4142 59.5406L12.7966 58.0952ZM12.679 57.9806L14.0889 56.5621L13.5229 55.9995L12.725 55.9811L12.679 57.9806ZM27.7624 56.589L29.2078 57.9713L29.2078 57.9713L27.7624 56.589ZM28.5996 41.5709L29.9819 40.1255L28.5996 41.5709ZM13.6338 43.0771L15.0792 44.4594L15.0792 44.4594L13.6338 43.0771ZM11.4134 56.3743L13.3875 56.6956L13.5061 55.9665L13.1224 55.3353L11.4134 56.3743ZM11.0054 58.0621L9.09582 57.4675L8.04559 60.8401L11.4779 60.0055L11.0054 58.0621ZM14.1789 56.6498C14.1485 56.6208 14.1185 56.5915 14.0889 56.5621L11.269 59.399C11.3169 59.4466 11.3653 59.4938 11.4142 59.5406L14.1789 56.6498ZM26.317 55.2067C22.5055 59.1921 17.078 59.4224 14.1789 56.6498L11.4142 59.5406C16.3181 64.2304 24.2915 63.112 29.2078 57.9713L26.317 55.2067ZM27.2173 43.0163C30.1164 45.7889 30.1284 51.2212 26.317 55.2067L29.2078 57.9713C34.1241 52.8306 34.8858 44.8153 29.9819 40.1255L27.2173 43.0163ZM15.0792 44.4594C18.8907 40.474 24.3182 40.2437 27.2173 43.0163L29.9819 40.1255C25.0781 35.4357 17.1047 36.5541 12.1884 41.6948L15.0792 44.4594ZM13.1224 55.3353C11.3421 52.4069 11.8278 47.8593 15.0792 44.4594L12.1884 41.6948C7.92875 46.1489 6.81212 52.6557 9.70448 57.4132L13.1224 55.3353ZM9.43941 56.0529C9.36157 56.5312 9.20339 57.1221 9.09582 57.4675L12.9149 58.6567C13.0547 58.208 13.269 57.4233 13.3875 56.6956L9.43941 56.0529ZM11.4779 60.0055C11.4265 60.018 11.4256 60.0138 11.508 60.0054C11.5779 59.9982 11.6748 59.9912 11.7974 59.9858C12.0423 59.9752 12.3389 59.9732 12.6329 59.98L12.725 55.9811C12.3613 55.9727 11.9741 55.9743 11.6232 55.9896C11.3191 56.0029 10.8929 56.0312 10.5328 56.1188L11.4779 60.0055Z" fill="#FAEC03" mask="url(#path-7-inside-4_78_20707)"/>
<mask id="path-9-inside-5_78_20707" fill="white">
<path fill-rule="evenodd" clip-rule="evenodd" d="M30.4327 69.8282C30.4874 69.8279 30.5421 69.827 30.597 69.8255C35.9936 69.6848 40.235 64.4541 40.0704 58.1423C39.9059 51.8306 35.3976 46.828 30.001 46.9687C24.6043 47.1094 20.3629 52.3402 20.5275 58.6519C20.6691 64.0838 24.0278 68.546 28.4012 69.5949C28.76 70.0893 29.117 70.706 29.3117 71.0735C29.4745 70.8039 29.9586 70.2844 30.4327 69.8282Z"/>
</mask>
<path fill-rule="evenodd" clip-rule="evenodd" d="M30.4327 69.8282C30.4874 69.8279 30.5421 69.827 30.597 69.8255C35.9936 69.6848 40.235 64.4541 40.0704 58.1423C39.9059 51.8306 35.3976 46.828 30.001 46.9687C24.6043 47.1094 20.3629 52.3402 20.5275 58.6519C20.6691 64.0838 24.0278 68.546 28.4012 69.5949C28.76 70.0893 29.117 70.706 29.3117 71.0735C29.4745 70.8039 29.9586 70.2844 30.4327 69.8282Z" fill="#191814"/>
<path d="M30.597 69.8255L30.6491 71.8248L30.6491 71.8248L30.597 69.8255ZM30.4327 69.8282L30.4192 67.8283L29.6211 67.8337L29.0461 68.387L30.4327 69.8282ZM40.0704 58.1423L42.0698 58.0902L42.0698 58.0902L40.0704 58.1423ZM30.001 46.9687L29.9488 44.9694L30.001 46.9687ZM20.5275 58.6519L22.5268 58.5998L22.5268 58.5998L20.5275 58.6519ZM28.4012 69.5949L30.0198 68.4202L29.5859 67.8223L28.8676 67.6501L28.4012 69.5949ZM29.3117 71.0735L27.5445 72.01L29.1984 75.1312L31.0239 72.1071L29.3117 71.0735ZM30.5448 67.8262C30.5028 67.8273 30.4609 67.828 30.4192 67.8283L30.4463 71.8282C30.5138 71.8277 30.5814 71.8266 30.6491 71.8248L30.5448 67.8262ZM38.0711 58.1945C38.2149 63.7072 34.555 67.7216 30.5448 67.8262L30.6491 71.8248C37.4322 71.648 42.2552 65.2009 42.0698 58.0902L38.0711 58.1945ZM30.0531 48.968C34.0632 48.8635 37.9274 52.6817 38.0711 58.1945L42.0698 58.0902C41.8843 50.9795 36.732 44.7925 29.9488 44.9694L30.0531 48.968ZM22.5268 58.5998C22.3831 53.087 26.0429 49.0726 30.0531 48.968L29.9488 44.9694C23.1657 45.1463 18.3428 51.5933 18.5282 58.704L22.5268 58.5998ZM28.8676 67.6501C25.535 66.8508 22.6494 63.3025 22.5268 58.5998L18.5282 58.704C18.6888 64.865 22.5206 70.2413 27.9347 71.5398L28.8676 67.6501ZM26.7825 70.7696C27.0671 71.1618 27.3751 71.6903 27.5445 72.01L31.0789 70.1371C30.8588 69.7218 30.4529 69.0169 30.0198 68.4202L26.7825 70.7696ZM31.0239 72.1071C30.9965 72.1525 30.993 72.1501 31.045 72.0857C31.0891 72.031 31.1525 71.9573 31.235 71.8666C31.4 71.6852 31.6075 71.4734 31.8194 71.2694L29.0461 68.387C28.7839 68.6393 28.5123 68.9153 28.2759 69.1751C28.0711 69.4003 27.791 69.7227 27.5995 70.0399L31.0239 72.1071Z" fill="#FAEC03" mask="url(#path-9-inside-5_78_20707)"/>
<mask id="path-11-inside-6_78_20707" fill="white">
<path fill-rule="evenodd" clip-rule="evenodd" d="M52.5825 53.8658C52.6138 53.8211 52.6449 53.776 52.6755 53.7305C55.6905 49.2524 53.8888 42.7636 48.6513 39.2374C43.4139 35.7112 36.724 36.4828 33.709 40.9609C30.694 45.4391 32.4957 51.9278 37.7332 55.4541C42.2405 58.4887 47.8235 58.3402 51.2142 55.3856C51.8251 55.38 52.5345 55.4468 52.9469 55.5013C52.8216 55.2123 52.6792 54.5166 52.5825 53.8658Z"/>
</mask>
<path fill-rule="evenodd" clip-rule="evenodd" d="M52.5825 53.8658C52.6138 53.8211 52.6449 53.776 52.6755 53.7305C55.6905 49.2524 53.8888 42.7636 48.6513 39.2374C43.4139 35.7112 36.724 36.4828 33.709 40.9609C30.694 45.4391 32.4957 51.9278 37.7332 55.4541C42.2405 58.4887 47.8235 58.3402 51.2142 55.3856C51.8251 55.38 52.5345 55.4468 52.9469 55.5013C52.8216 55.2123 52.6792 54.5166 52.5825 53.8658Z" fill="#191814"/>
<path d="M52.6755 53.7305L54.3345 54.8475L54.3345 54.8475L52.6755 53.7305ZM52.5825 53.8658L50.9453 52.7171L50.4869 53.3704L50.6042 54.1598L52.5825 53.8658ZM48.6513 39.2374L49.7683 37.5784L48.6513 39.2374ZM33.709 40.9609L32.05 39.844L33.709 40.9609ZM37.7332 55.4541L38.8501 53.795L38.8501 53.795L37.7332 55.4541ZM51.2142 55.3856L51.1959 53.3857L50.4572 53.3925L49.9003 53.8778L51.2142 55.3856ZM52.9469 55.5013L52.6849 57.4841L56.1869 57.9467L54.7818 54.7058L52.9469 55.5013ZM51.0165 52.6135C50.993 52.6484 50.9693 52.6829 50.9453 52.7171L54.2196 55.0146C54.2584 54.9593 54.2967 54.9036 54.3345 54.8475L51.0165 52.6135ZM47.5344 40.8964C52.1088 43.9763 53.2568 49.2859 51.0165 52.6135L54.3345 54.8475C58.1241 49.2189 55.6687 41.5509 49.7683 37.5784L47.5344 40.8964ZM35.368 42.0779C37.6084 38.7503 42.9599 37.8166 47.5344 40.8964L49.7683 37.5784C43.8679 33.6058 35.8395 34.2154 32.05 39.844L35.368 42.0779ZM38.8501 53.795C34.2757 50.7152 33.1276 45.4055 35.368 42.0779L32.05 39.844C28.2604 45.4726 30.7157 53.1405 36.6162 57.1131L38.8501 53.795ZM49.9003 53.8778C47.3166 56.1292 42.7524 56.4223 38.8501 53.795L36.6162 57.1131C41.7285 60.5551 48.3305 60.5512 52.5282 56.8935L49.9003 53.8778ZM51.2326 57.3855C51.7171 57.3811 52.3262 57.4367 52.6849 57.4841L53.2088 53.5185C52.7428 53.457 51.9332 53.3789 51.1959 53.3857L51.2326 57.3855ZM54.7818 54.7058C54.8029 54.7544 54.7989 54.7559 54.7766 54.6762C54.7577 54.6086 54.7343 54.5142 54.7083 54.3944C54.6562 54.1548 54.604 53.8629 54.5607 53.5719L50.6042 54.1598C50.6576 54.5196 50.725 54.901 50.7996 55.2442C50.8643 55.5416 50.9645 55.9568 51.1119 56.2968L54.7818 54.7058Z" fill="#FAEC03" mask="url(#path-11-inside-6_78_20707)"/>
<mask id="path-13-inside-7_78_20707" fill="white">
<path fill-rule="evenodd" clip-rule="evenodd" d="M33.3589 48.0253C33.4134 48.0222 33.468 48.0185 33.5227 48.0144C38.855 47.6062 42.7761 42.1934 42.2806 35.9246C41.7852 29.6557 37.0608 24.9047 31.7285 25.3129C26.3962 25.7211 22.4751 31.1338 22.9706 37.4027C23.3969 42.7969 26.9544 47.0673 31.3362 47.8938C31.7174 48.3678 32.1032 48.9635 32.3153 49.3194C32.4621 49.0432 32.9138 48.5025 33.3589 48.0253Z"/>
</mask>
<path fill-rule="evenodd" clip-rule="evenodd" d="M33.3589 48.0253C33.4134 48.0222 33.468 48.0185 33.5227 48.0144C38.855 47.6062 42.7761 42.1934 42.2806 35.9246C41.7852 29.6557 37.0608 24.9047 31.7285 25.3129C26.3962 25.7211 22.4751 31.1338 22.9706 37.4027C23.3969 42.7969 26.9544 47.0673 31.3362 47.8938C31.7174 48.3678 32.1032 48.9635 32.3153 49.3194C32.4621 49.0432 32.9138 48.5025 33.3589 48.0253Z" fill="#191814"/>
<path d="M33.5227 48.0144L33.3701 46.0202L33.37 46.0202L33.5227 48.0144ZM33.3589 48.0253L33.2453 46.0285L32.4438 46.0741L31.8963 46.6612L33.3589 48.0253ZM31.7285 25.3129L31.8811 27.3071L31.7285 25.3129ZM22.9706 37.4027L20.9768 37.5603L20.9768 37.5603L22.9706 37.4027ZM31.3362 47.8938L32.8946 46.6403L32.4321 46.0653L31.7069 45.9285L31.3362 47.8938ZM32.3153 49.3194L30.5973 50.3433L32.4149 53.3931L34.0813 50.2582L32.3153 49.3194ZM33.37 46.0202C33.3284 46.0234 33.2868 46.0262 33.2453 46.0285L33.4725 50.0221C33.5401 50.0182 33.6077 50.0137 33.6754 50.0085L33.37 46.0202ZM40.2868 36.0822C40.7201 41.5642 37.3073 45.7188 33.3701 46.0202L33.6753 50.0085C40.4027 49.4936 44.832 42.8226 44.2744 35.767L40.2868 36.0822ZM31.8811 27.3071C35.8244 27.0052 39.8534 30.5986 40.2868 36.0822L44.2744 35.767C43.7169 28.7129 38.2972 22.8042 31.5758 23.3187L31.8811 27.3071ZM24.9643 37.2451C24.5311 31.7631 27.9438 27.6084 31.8811 27.3071L31.5758 23.3187C24.8485 23.8337 20.4191 30.5046 20.9768 37.5603L24.9643 37.2451ZM31.7069 45.9285C28.3783 45.3006 25.3338 41.92 24.9643 37.2451L20.9768 37.5603C21.46 43.6738 25.5306 48.8339 30.9654 49.8591L31.7069 45.9285ZM29.7777 49.1473C30.08 49.5232 30.4127 50.0337 30.5973 50.3433L34.0333 48.2955C33.7937 47.8934 33.3547 47.2123 32.8946 46.6403L29.7777 49.1473ZM34.0813 50.2582C34.0562 50.3054 34.0521 50.304 34.0999 50.2377C34.1404 50.1815 34.199 50.1053 34.2756 50.0112C34.429 49.823 34.6228 49.6024 34.8215 49.3894L31.8963 46.6612C31.6499 46.9254 31.3954 47.2137 31.1749 47.4843C30.9839 47.7186 30.7228 48.0542 30.5493 48.3807L34.0813 50.2582Z" fill="#FAEC03" mask="url(#path-13-inside-7_78_20707)"/>
<mask id="path-15-inside-8_78_20707" fill="white">
<path d="M24.9803 37.9357C25.4007 43.2544 28.792 47.6559 33.3161 47.3096C37.8402 46.9633 41.196 42.906 40.7757 37.5873C39.0332 34.4509 26.3743 35.1477 24.9803 37.9357Z"/>
</mask>
<path d="M24.9803 37.9357C25.4007 43.2544 28.792 47.6559 33.3161 47.3096C37.8402 46.9633 41.196 42.906 40.7757 37.5873C39.0332 34.4509 26.3743 35.1477 24.9803 37.9357Z" fill="#FAEC03"/>
<path d="M24.9803 37.9357L23.1915 37.0413L22.9427 37.5388L22.9866 38.0933L24.9803 37.9357ZM40.7757 37.5873L42.7695 37.4297L42.7352 36.9962L42.524 36.616L40.7757 37.5873ZM33.1634 45.3154C31.6566 45.4307 30.266 44.7823 29.1322 43.4505C27.9784 42.0952 27.1562 40.0822 26.9741 37.7781L22.9866 38.0933C23.2248 41.1079 24.3085 43.955 26.0864 46.0435C27.8844 48.1555 30.4515 49.5347 33.4687 49.3037L33.1634 45.3154ZM38.7819 37.7449C39.1279 42.123 36.4284 45.0655 33.1634 45.3154L33.4687 49.3037C39.252 48.8611 43.2642 43.6889 42.7695 37.4297L38.7819 37.7449ZM26.7692 38.8301C26.6936 38.9813 26.6631 38.9118 26.9903 38.7223C27.2869 38.5505 27.7377 38.3618 28.3478 38.1851C29.5635 37.833 31.1621 37.5994 32.8207 37.5385C34.4818 37.4775 36.0874 37.5939 37.323 37.8763C37.9414 38.0176 38.4016 38.1858 38.7109 38.3512C39.0335 38.5237 39.063 38.6228 39.0274 38.5586L42.524 36.616C42.0527 35.7677 41.3055 35.2026 40.5968 34.8237C39.8749 34.4377 39.0493 34.1676 38.2141 33.9768C36.5425 33.5948 34.5696 33.4716 32.6739 33.5412C30.7758 33.6109 28.8394 33.8783 27.235 34.343C26.4351 34.5747 25.6546 34.8733 24.9853 35.261C24.3466 35.631 23.6156 36.1932 23.1915 37.0413L26.7692 38.8301Z" fill="#FAEC03" mask="url(#path-15-inside-8_78_20707)"/>
<path d="M34.0005 10.5C31.0005 13 24.5005 18 22.5005 18" stroke="#191814" stroke-width="3" stroke-linejoin="round"/>
<path d="M36.4877 2.19568C36.5958 1.37433 36.0176 0.620891 35.1962 0.512819C34.3749 0.404746 33.6214 0.982971 33.5133 1.80432L36.4877 2.19568ZM34.4939 27.8642C34.4025 26.8595 34.4182 22.138 34.9349 16.1285L31.9459 15.8715C31.4263 21.9157 31.3898 26.8553 31.5062 28.1358L34.4939 27.8642ZM34.9349 16.1285C35.246 12.5101 35.7367 7.90347 36.4877 2.19568L33.5133 1.80432C32.7572 7.55069 32.2614 12.2025 31.9459 15.8715L34.9349 16.1285ZM44.4268 22.5619C42.8353 22.0901 40.418 21.1402 38.3891 19.8572C37.3758 19.2164 36.5133 18.5261 35.8992 17.8159C35.2842 17.1045 34.9861 16.4535 34.9346 15.8685L31.9462 16.1315C32.0707 17.5465 32.7588 18.7705 33.6298 19.7779C34.5016 20.7864 35.6246 21.6586 36.7857 22.3928C39.1055 23.8598 41.7923 24.9099 43.5742 25.4381L44.4268 22.5619Z" fill="#191814"/>
</svg>
