<svg width="63" height="73" viewBox="0 0 63 73" fill="none" xmlns="http://www.w3.org/2000/svg">
<path d="M45.1032 65.4998C79.1032 41 39.1032 -1.90735e-06 15.6032 27.9998C13.6016 31 12.1016 33.5 12.1016 39C12.1016 45.0415 10.1016 51.5 4.10165 56C0.235097 58.9 2.60324 62.1667 4.10324 64C14.9032 76 35.9366 69.9999 45.1032 65.4998Z" fill="#191814"/>
<path d="M38.6016 61.5C44.1016 59.3333 54.1016 51.5 50.1016 37.5M15.6032 27.9998C39.1032 -1.90735e-06 79.1032 41 45.1032 65.4998C35.9366 69.9999 14.9032 76 4.10324 64C2.60324 62.1667 0.235097 58.9 4.10165 56C10.1016 51.5 12.1016 45.0415 12.1016 39C12.1016 33.5 13.6016 31 15.6032 27.9998Z" stroke="#FAEC03" stroke-width="3" stroke-linecap="round"/>
<path d="M60 15.7222C48.2182 5.58889 42.1181 9.38889 40.5408 12.5556C40.5813 13.2672 40.5928 13.9745 40.5808 14.6667C48.1726 23.1111 56.6902 18.8889 60 15.7222Z" fill="#191814"/>
<path d="M36.8956 0.796717C36.2311 0.302087 35.2913 0.439839 34.7967 1.10439C34.3021 1.76895 34.4398 2.70865 35.1044 3.20328L36.8956 0.796717ZM60 15.7222L61.037 16.8061L62.2316 15.6631L60.9781 14.585L60 15.7222ZM40.5808 14.6667L39.081 14.6407L39.081 14.6407L40.5808 14.6667ZM42.0384 12.4703C41.8009 8.29848 40.5862 3.54362 36.8956 0.796717L35.1044 3.20328C37.7018 5.13655 38.821 8.73654 39.0433 12.6408L42.0384 12.4703ZM41.8835 13.2243C42.4404 12.1063 43.8763 10.7155 46.4809 10.6509C49.1473 10.5849 53.2655 11.9085 59.0219 16.8595L60.9781 14.585C54.9527 9.40262 50.1299 7.55959 46.4066 7.65185C42.6213 7.74564 40.2186 9.83816 39.1982 11.8868L41.8835 13.2243ZM41.2773 21.348C41.6814 19.6535 42.0358 17.2713 42.0805 14.6927L39.081 14.6407C39.0402 16.9956 38.7145 19.162 38.3591 20.652L41.2773 21.348ZM42.0805 14.6927C42.0931 13.9666 42.0812 13.222 42.0384 12.4703L39.0433 12.6408C39.0815 13.3124 39.0924 13.9824 39.081 14.6407L42.0805 14.6927ZM58.963 14.6384C57.4876 16.05 54.8221 17.7073 51.7272 18.0582C48.7312 18.3978 45.1777 17.5363 41.6962 13.6638L39.4653 15.6695C43.5757 20.2415 48.077 21.4911 52.0651 21.0391C55.9544 20.5982 59.2026 18.5611 61.037 16.8061L58.963 14.6384Z" fill="#191814"/>
</svg>
