<svg width="30" height="69" viewBox="0 0 30 69" fill="none" xmlns="http://www.w3.org/2000/svg">
<path d="M0.104492 41.6734C0.104492 33.5928 6.65507 27.0422 14.7356 27.0422V27.0422C22.8161 27.0422 29.3667 33.5928 29.3667 41.6734V53.5264C29.3667 61.6069 22.8161 68.1575 14.7356 68.1575V68.1575C6.65507 68.1575 0.104492 61.6069 0.104492 53.5264V41.6734Z" fill="#191814"/>
<path fill-rule="evenodd" clip-rule="evenodd" d="M28.9963 53.5264V41.6734C28.9963 33.7974 22.6116 27.4126 14.7356 27.4126C6.85964 27.4126 0.4749 33.7974 0.4749 41.6734V53.5264C0.4749 61.4024 6.85964 67.7871 14.7356 67.7871C22.6116 67.7871 28.9963 61.4024 28.9963 53.5264ZM14.7356 27.0422C6.65507 27.0422 0.104492 33.5928 0.104492 41.6734V53.5264C0.104492 61.6069 6.65507 68.1575 14.7356 68.1575C22.8161 68.1575 29.3667 61.6069 29.3667 53.5264V41.6734C29.3667 33.5928 22.8161 27.0422 14.7356 27.0422Z" fill="#FAEC03"/>
<path fill-rule="evenodd" clip-rule="evenodd" d="M7.05184 38.0418L0.208917 42.7157L0 42.4098L6.71909 37.8205L2.09421 34.7449L2.29932 34.4365L7.04908 37.5951L13.8866 32.9249L8.17938 29.0471L8.38755 28.7408L14.2153 32.7004L20.5576 28.3684L20.7666 28.6743L14.5445 32.9241L21.3179 37.5263L26.6634 33.5583L26.8842 33.8558L21.6424 37.7468L29.1004 42.8141C29.1266 42.8319 29.1478 42.8561 29.1619 42.8844L29.3471 43.2548L29.0158 43.4205L28.9261 43.2411L22.3672 47.7819L29.0988 52.2584C29.1499 52.2924 29.1809 52.3494 29.1815 52.4108C29.1821 52.4721 29.1523 52.5298 29.1019 52.5648L21.4872 57.8544L26.8396 61.5817L26.6279 61.8857L21.1627 58.0798L14.5941 62.6427L20.3732 66.7071L20.1601 67.0101L14.2701 62.8677L8.57934 66.8209L8.36802 66.5167L13.9475 62.6408L7.4772 58.0903L2.61753 61.4547L2.40669 61.1502L7.15439 57.8633L0.188127 52.964L0.401209 52.6611L0.672158 52.8516L6.95644 48.1868L0.18883 43.474L0.400506 43.17L7.27018 47.9539L14.2103 42.8023L7.05184 38.0418ZM7.38183 37.8164L14.5264 42.5676L21.003 37.7601L14.2158 33.1486L7.38183 37.8164ZM21.3274 37.9806L14.8542 42.7856L22.0353 47.5611L28.6688 42.9687L21.3274 37.9806ZM21.7076 47.788L14.5381 43.0202L7.59083 48.1772L14.3482 52.8829L21.7076 47.788ZM14.0232 53.108L7.27708 48.4101L0.991272 53.076L7.47886 57.6387L14.0232 53.108ZM7.80167 57.8657L14.3476 53.3339L20.8385 57.854L14.2715 62.4158L7.80167 57.8657ZM21.163 57.6286L14.6727 53.1089L22.0395 48.0087L28.6668 52.416L21.163 57.6286Z" fill="#FAEC03"/>
<path d="M26.2182 22.5973C23.8476 23.4863 20.909 26.7952 19.9212 28.1534C17.6988 27.2274 13.686 27.1656 12.3279 27.2274C13.9947 20.3748 29.1814 21.486 26.2182 22.5973Z" fill="#191814"/>
<path fill-rule="evenodd" clip-rule="evenodd" d="M26.7165 22.5026C26.6309 22.6156 26.4714 22.7 26.2832 22.7706C25.1351 23.2011 23.8305 24.228 22.6794 25.3329C21.5325 26.4338 20.5582 27.5924 20.0711 28.2622C20.0206 28.3315 19.9292 28.3572 19.85 28.3242C18.7665 27.8728 17.2315 27.6275 15.7848 27.5044C14.3422 27.3816 13.0075 27.3818 12.3363 27.4123C12.2781 27.4149 12.222 27.39 12.1849 27.345C12.1479 27.3 12.1342 27.2401 12.1479 27.1835C12.5817 25.4002 13.893 24.149 15.5324 23.2925C17.1712 22.4363 19.1573 21.9634 20.9871 21.7419C22.817 21.5205 24.5066 21.5487 25.5596 21.705C25.8232 21.7441 26.0512 21.7919 26.2335 21.8474C26.4091 21.9009 26.5659 21.9683 26.6655 22.0593C26.7173 22.1068 26.7684 22.1741 26.7822 22.2628C26.7967 22.3564 26.7645 22.4392 26.7165 22.5026ZM12.5723 27.0331C13.308 27.0126 14.5194 27.025 15.8162 27.1353C17.2143 27.2543 18.7305 27.4886 19.8574 27.9279C20.3801 27.2284 21.3242 26.1204 22.4229 25.0657C23.5807 23.9543 24.9307 22.8822 26.1532 22.4238C26.2758 22.3778 26.3472 22.3381 26.3859 22.3103C26.3393 22.28 26.2563 22.2416 26.1256 22.2018C25.9667 22.1534 25.758 22.1089 25.5052 22.0714C24.4919 21.921 22.8364 21.8913 21.0316 22.1097C19.2268 22.3281 17.2889 22.7928 15.7039 23.6208C14.1971 24.408 13.027 25.5134 12.5723 27.0331ZM26.4236 22.3411C26.4235 22.3411 26.4234 22.3409 26.4232 22.3406Z" fill="#FAEC03"/>
<path d="M1.21558 19.2182C7.73476 17.2921 13.439 21.2554 15.4763 23.4779C11.587 26.256 12.6982 27.2249 12.1426 27.4102C11.7209 27.5507 10.1054 27.9658 9.36455 28.3362C8.92006 22.706 3.7467 19.959 1.21558 19.2182Z" fill="#191814"/>
<path fill-rule="evenodd" clip-rule="evenodd" d="M10.0972 19.621C12.6195 20.6598 14.577 22.2227 15.6128 23.3527C15.6487 23.3917 15.666 23.4443 15.6605 23.4971C15.655 23.5498 15.6271 23.5977 15.584 23.6285C13.6514 25.0089 12.9866 25.9226 12.728 26.4928C12.6165 26.7387 12.5782 26.9243 12.5467 27.0775C12.5417 27.1015 12.5369 27.1248 12.532 27.1474C12.5148 27.2267 12.4924 27.3192 12.4438 27.3986C12.3885 27.4889 12.308 27.5502 12.2012 27.5858C12.092 27.6222 11.9 27.6779 11.6659 27.7458C11.4456 27.8097 11.1881 27.8844 10.9273 27.964C10.3768 28.1321 9.80199 28.3245 9.4474 28.5017C9.39231 28.5293 9.32712 28.5276 9.27349 28.4974C9.21985 28.4671 9.18479 28.4121 9.17995 28.3507C8.96234 25.5943 7.58833 23.5415 5.9494 22.0819C4.30797 20.62 2.40748 19.7599 1.16358 19.3959C1.08472 19.3728 1.0305 19.3005 1.0304 19.2183C1.03029 19.1362 1.08433 19.0638 1.16312 19.0405C4.47257 18.0627 7.57256 18.5812 10.0972 19.621ZM1.86381 19.2355C3.11285 19.6852 4.75043 20.5181 6.19575 21.8053C7.83553 23.2657 9.23409 25.3173 9.52496 28.0593C9.89646 27.902 10.376 27.745 10.8192 27.6098C11.096 27.5253 11.3567 27.4497 11.5749 27.3865C11.7987 27.3217 11.9779 27.2698 12.0841 27.2344C12.1162 27.2237 12.1225 27.2141 12.1279 27.2052C12.1401 27.1853 12.1524 27.15 12.17 27.069C12.1743 27.049 12.1787 27.0275 12.1834 27.0045C12.2152 26.8495 12.2611 26.6255 12.3907 26.3398C12.6789 25.7042 13.3691 24.7817 15.1971 23.4508C14.1627 22.372 12.3125 20.934 9.95615 19.9635C7.64276 19.0107 4.84985 18.5115 1.86381 19.2355Z" fill="#FAEC03"/>
<path d="M2.14172 11.1146C8.06825 13.337 8.50039 17.4091 8.06825 19.0759C9.69805 19.3723 11.0315 20.1255 11.5871 20.3724C11.8835 18.4462 14.4269 16.2385 15.4764 15.5595C11.6242 9.04029 4.98152 9.87988 2.14172 11.1146Z" fill="#191814"/>
<path fill-rule="evenodd" clip-rule="evenodd" d="M2.64426 11.1127C5.36514 12.2249 6.87453 13.7438 7.65314 15.2172C8.41331 16.6558 8.47016 18.039 8.29136 18.9307C9.57991 19.1956 10.6739 19.727 11.3108 20.0364C11.3604 20.0605 11.4073 20.0833 11.4512 20.1045C11.6774 19.1584 12.367 18.1872 13.1127 17.3733C13.8559 16.5621 14.6793 15.8813 15.2269 15.5037C13.3388 12.4 10.8055 11.0465 8.39641 10.6117C6.17786 10.2114 4.05907 10.5897 2.64426 11.1127ZM8.46219 10.2472C11.009 10.7068 13.6806 12.1566 15.6358 15.4654C15.6863 15.5509 15.6603 15.6611 15.5769 15.7151C15.0661 16.0456 14.1798 16.7569 13.3858 17.6235C12.5865 18.4958 11.9094 19.4948 11.7701 20.4007C11.7613 20.4577 11.7265 20.5074 11.6758 20.5351C11.6252 20.5627 11.5645 20.5652 11.5118 20.5418C11.4086 20.4959 11.282 20.4345 11.1345 20.363C10.4603 20.0361 9.34859 19.4972 8.03502 19.2583C7.98436 19.2491 7.93982 19.2192 7.91209 19.1758C7.88437 19.1324 7.87595 19.0795 7.88888 19.0296C8.09372 18.2395 8.09821 16.8523 7.32564 15.3903C6.55537 13.9326 5.00476 12.3862 2.0766 11.2881C2.00594 11.2616 1.95842 11.1949 1.95648 11.1195C1.95454 11.044 1.99857 10.975 2.06778 10.9449C3.51576 10.3153 5.92353 9.78906 8.46219 10.2472Z" fill="#FAEC03"/>
<path d="M27.1443 15.0038C20.477 17.3744 19.6744 20.6834 20.1065 22.0416C18.7731 22.0416 16.5877 22.9059 15.6617 23.338C14.7727 22.1527 12.328 20.9899 11.402 20.3725C14.0689 13.1125 23.1316 13.6457 27.1443 15.0038Z" fill="#191814"/>
<path fill-rule="evenodd" clip-rule="evenodd" d="M18.7329 14.2742C21.8701 13.6627 25.1719 14.1404 27.2036 14.8281C27.2783 14.8533 27.3288 14.9232 27.3294 15.0021C27.33 15.081 27.2806 15.1516 27.2063 15.178C20.5667 17.5387 19.8986 20.7773 20.283 21.9851C20.3009 22.0414 20.2908 22.1029 20.256 22.1505C20.2211 22.1982 20.1656 22.2264 20.1065 22.2264C19.4706 22.2264 18.6142 22.4344 17.7886 22.7035C16.9677 22.971 16.1969 23.2923 15.7399 23.5055C15.6605 23.5426 15.566 23.5189 15.5134 23.4488C15.0925 22.8876 14.2878 22.3164 13.4485 21.7997C13.0534 21.5564 12.657 21.3288 12.2979 21.1226C12.2788 21.1117 12.2598 21.1007 12.2409 21.0899C11.8694 20.8766 11.5369 20.6848 11.2992 20.5262C11.2279 20.4788 11.1985 20.3886 11.2281 20.3083C12.5903 16.6 15.5894 14.887 18.7329 14.2742ZM11.6277 20.2977C11.8405 20.4321 12.1141 20.5899 12.4253 20.7687C12.4446 20.7797 12.4639 20.7908 12.4834 20.802C12.8417 21.0077 13.2426 21.2378 13.6427 21.4842C14.4268 21.967 15.233 22.5268 15.7165 23.1087C16.1931 22.8929 16.912 22.5996 17.6738 22.3513C18.4148 22.1099 19.2121 21.9057 19.8704 21.8639C19.5637 20.3059 20.6509 17.2662 26.5693 15.0175C24.5707 14.4384 21.6149 14.0898 18.8038 14.6378C15.7861 15.2261 12.9554 16.8413 11.6277 20.2977Z" fill="#FAEC03"/>
<path d="M23.4402 3.70624C19.7361 8.00298 19.1805 12.5343 19.3657 14.2629C17.7359 14.2629 16.0937 15.0037 15.4764 15.3741C14.1429 13.448 12.6983 12.2256 12.1427 11.8552C15.4023 5.03971 21.0325 3.58277 23.4402 3.70624Z" fill="#191814"/>
<path fill-rule="evenodd" clip-rule="evenodd" d="M11.9757 11.7757C15.2701 4.88731 20.9736 3.39468 23.4497 3.52166C23.5203 3.52528 23.5827 3.56879 23.6105 3.63381C23.6383 3.69882 23.6267 3.77399 23.5805 3.82755C19.9107 8.08454 19.37 12.5646 19.5499 14.2435C19.5555 14.2958 19.5386 14.3479 19.5035 14.387C19.4684 14.4261 19.4183 14.4485 19.3657 14.4485C17.7818 14.4485 16.173 15.1725 15.5717 15.5333C15.488 15.5835 15.3797 15.5602 15.3241 15.4799C14.0033 13.572 12.5752 12.3665 12.04 12.0097C11.9633 11.9586 11.9359 11.8588 11.9757 11.7757ZM12.3782 11.794C13.0075 12.2493 14.3066 13.3984 15.5311 15.1296C16.2209 14.7492 17.676 14.134 19.1642 14.0816C19.039 12.2228 19.6642 7.97645 23.0466 3.88579C20.5469 3.9309 15.4457 5.51461 12.3782 11.794Z" fill="#FAEC03"/>
<path d="M7.5127 0.187645C9.73514 2.85458 10.0438 8.46009 9.92035 10.9295C10.6612 11.0776 11.7107 11.6086 12.1428 11.8555C12.4391 10.2257 15.2295 7.47234 16.5877 6.29938C12.291 1.26183 8.74739 0.12591 7.5127 0.187645Z" fill="#191814"/>
<path fill-rule="evenodd" clip-rule="evenodd" d="M7.90265 0.388459C8.89234 1.75616 9.46324 3.70357 9.77872 5.60218C10.1068 7.57674 10.1631 9.52739 10.1121 10.783C10.7549 10.9443 11.5482 11.3241 12.0198 11.5763C12.1325 11.1972 12.3458 10.7845 12.6152 10.3646C12.9463 9.84877 13.3715 9.30772 13.8272 8.7844C14.6787 7.80641 15.6459 6.87985 16.3273 6.2804C14.2375 3.85762 12.3367 2.36899 10.8095 1.49177C9.54069 0.763032 8.53837 0.460997 7.90265 0.388459ZM10.994 1.17058C12.5923 2.08861 14.5683 3.64661 16.7284 6.17908C16.7945 6.25657 16.7856 6.37287 16.7085 6.43944C16.0346 7.02147 15.004 7.99691 14.1065 9.02764C13.6578 9.54302 13.2449 10.0692 12.927 10.5647C12.607 11.0633 12.3924 11.5167 12.3248 11.8885C12.314 11.9477 12.2753 11.9979 12.2208 12.0233C12.1663 12.0487 12.1029 12.046 12.0507 12.0162C11.6202 11.7702 10.593 11.2528 9.88381 11.111C9.79381 11.093 9.73057 11.0118 9.73516 10.9201C9.79631 9.69694 9.75042 7.69162 9.41332 5.66289C9.07518 3.6279 8.44887 1.60051 7.3702 0.306104C7.32526 0.252181 7.31467 0.177487 7.34285 0.113198C7.37102 0.0489082 7.43312 0.00607182 7.50323 0.00256656C8.17052 -0.030798 9.40144 0.255893 10.994 1.17058Z" fill="#FAEC03"/>
</svg>
