<svg width="69" height="69" viewBox="0 0 69 69" fill="none" xmlns="http://www.w3.org/2000/svg">
<path d="M69 34.5C69 53.5538 53.5538 69 34.5 69C15.4462 69 0 53.5538 0 34.5C0 15.4462 15.4462 0 34.5 0C53.5538 0 69 15.4462 69 34.5Z" fill="#191814"/>
<path d="M46.3658 6.71894C48.2532 8.33386 52.2437 11.6175 53.1066 11.8329C54.1851 12.102 54.4547 12.9095 54.7243 12.9095C54.994 12.9095 55.8029 13.4478 56.6118 14.7936C57.4207 16.1393 58.4992 17.7543 58.7688 18.8309C59.0384 19.9075 59.5777 20.4458 59.8473 20.715C60.117 20.9841 60.9259 20.715 60.9259 20.9841C60.9259 21.2533 60.6562 22.0607 60.9259 22.599C61.1416 23.0297 61.1955 23.6757 61.1955 23.9448C61.4651 24.214 62.0044 24.9676 62.0044 25.8289C62.0044 26.9055 61.7348 27.4438 62.0044 27.9821C62.274 28.5204 63.3526 32.0195 62.5437 37.6717C61.8965 42.1935 60.6562 45.2977 60.117 46.2846L57.6903 50.0528C56.5219 51.3986 54.1312 54.1439 53.9154 54.3593C53.6458 54.6284 50.6799 58.6657 50.4102 58.6657C50.1406 58.6657 48.2532 58.6657 47.7139 58.9349C47.1747 59.204 45.0176 61.8956 44.4783 61.8956H39.0857L38.5465 61.0881C39.1756 60.7293 40.4339 59.9038 40.4339 59.4732C40.4339 58.9349 42.5909 58.6657 42.8606 58.6657C43.1302 58.6657 47.9836 60.2807 51.2191 54.6284L51.4888 52.206L52.8369 51.3986C53.1066 51.7574 54.0772 52.0984 55.8029 50.5911C57.5285 49.0838 58.3194 47.9893 58.4992 47.6304C58.2296 46.7332 57.8521 44.7774 58.4992 44.1314C59.3081 43.3239 59.3081 41.4399 59.3081 41.1707C59.3081 40.9554 59.4878 40.0044 59.5777 39.5558C60.117 39.6455 61.2494 39.4481 61.4651 37.9408C61.7348 36.0568 61.1955 29.0588 60.9259 28.7896C60.6562 28.5204 59.8473 27.9821 59.3081 27.9821C58.8767 27.9821 58.9486 27.2644 59.0384 26.9055C59.4878 26.6364 60.3327 25.7751 60.117 24.4831C59.8473 22.8682 56.8814 16.9468 55.2636 16.4085C53.9694 15.9778 53.1066 15.8702 52.8369 15.8702L51.4888 14.7936C51.6685 13.9861 51.327 12.0482 48.5228 10.7563C45.4728 9.35105 44.2601 8.14963 42.5755 8.74789C41.1657 10.8514 38.7449 15.2447 37.609 19.9633C37.4593 20.7435 37.3197 21.4549 37.1984 22.0607C37.3025 21.3587 37.4418 20.6575 37.609 19.9633C38.3348 16.1784 39.2962 10.7721 39.5572 7.91859C39.1522 7.42559 38.6021 6.77448 38.2768 6.44978C37.8454 6.01914 37.5578 5.37317 37.4679 5.10401C38.8161 4.92458 41.7281 4.7272 42.5909 5.37317C43.4537 6.01914 45.467 6.5395 46.3658 6.71894Z" fill="#FAEC03"/>
<path d="M36.9287 62.7031C35.4007 62.8825 31.8596 63.026 29.9182 62.1647C29.8284 62.075 29.4329 62.0033 28.5701 62.4339C27.7073 62.8645 27.3118 62.4339 27.2219 62.1647C26.9523 61.8059 25.9816 61.0343 24.256 60.819C22.0989 60.5498 20.2115 60.0115 18.8633 58.9349C18.8633 58.3966 18.378 57.0508 16.4367 55.9742C14.4953 54.8976 13.8302 52.8341 13.7403 51.9369C13.3808 51.8472 12.554 51.5062 12.1226 50.8603C11.5833 50.0528 11.3137 46.2846 10.7744 45.7463C10.2351 45.208 9.15661 43.0548 8.88698 42.2473C8.61735 41.4399 7.80845 40.0941 7.53882 39.2866C7.26919 38.4792 6.99956 38.21 6.72993 36.8642C6.4603 35.5185 6.19066 33.9035 6.19066 33.3652C6.19066 32.8269 5.92103 28.2513 6.99956 26.9055C7.79068 25.9184 8.18892 24.5541 8.31894 23.85C8.32672 23.6889 8.3367 23.5391 8.34778 23.4065C8.40245 23.0245 8.63006 22.171 9.13985 20.9795C9.50068 19.8213 9.84612 18.8309 9.96556 18.8309C10.2352 18.8309 9.96556 17.4851 13.7404 14.5244C14.7697 13.7171 15.5986 12.9498 16.2707 12.2552C16.3498 12.1623 16.4378 12.0704 16.5321 11.9805C18.1306 10.2717 18.7605 9.05812 19.133 8.87218C19.6723 8.60302 23.4471 8.06471 24.256 7.5264C25.0649 6.9881 27.4916 6.18063 27.7612 5.91148C28.0309 5.64232 29.379 5.10401 29.6487 5.10401C29.9183 5.10401 32.8842 5.37317 33.1539 5.37317C33.4235 5.37317 35.8502 5.64232 36.3895 5.64232C36.8209 5.64232 36.9287 6.0012 36.9287 6.18063L35.0413 6.44979L30.9968 6.71894C29.9183 6.62922 27.7612 6.77277 27.7612 8.06471C27.7612 9.35665 26.8625 8.96189 26.4131 8.60302C25.3346 8.42359 22.9079 8.22621 21.8294 8.87218C20.7508 9.51815 19.0432 10.3974 18.3241 10.7563C17.8643 10.9858 17.0882 11.4502 16.5321 11.9805C16.4477 12.0707 16.3606 12.1623 16.2707 12.2552C16.0871 12.471 15.9518 12.6925 15.8975 12.9095C15.6818 13.7708 15.8076 14.8833 15.8975 15.3319L15.0886 15.8702C14.1898 15.601 12.0148 15.7087 10.5048 18.2926C9.91339 19.3047 9.46812 20.2122 9.13985 20.9795C8.84908 21.9128 8.54831 22.955 8.34778 23.6757C8.34031 23.7279 8.33072 23.7862 8.31894 23.85C8.26356 24.9967 8.31964 26.7167 8.88704 26.9055C7.98823 26.9952 6.29847 28.4666 6.72993 33.6344C7.16139 38.8021 8.16802 39.9147 8.61741 39.8249L9.4263 40.0941L9.69593 40.9016C9.51618 41.5296 9.26452 42.9471 9.69593 43.5931C10.2352 44.4006 11.7035 46.9774 11.5834 47.6304C11.4632 48.2835 12.6619 52.206 15.0886 51.6677C17.0299 51.2371 17.1557 52.5649 16.976 53.2827C16.8861 53.9107 16.7603 55.2744 16.976 55.705C17.2456 56.2434 18.5938 57.5891 18.8634 58.1274C19.133 58.6657 22.9078 60.0115 24.256 60.0115C25.3346 60.0115 27.222 59.2938 28.0309 58.9349C28.8398 60.0115 31.1047 62.0571 33.6931 61.6264C36.2816 61.1958 37.7376 61.2676 37.7376 61.3573L36.9287 62.7031Z" fill="#FAEC03"/>
<path fill-rule="evenodd" clip-rule="evenodd" d="M37.5793 5.26518C37.6948 5.56442 37.9579 6.10196 38.3276 6.471C38.6194 6.76236 39.0881 7.31145 39.4721 7.77483C39.5036 7.39227 39.5206 7.06418 39.5206 6.80177C39.5206 6.47498 39.5545 6.22229 39.6201 6.03604C39.6859 5.84914 39.7871 5.72024 39.9263 5.65932C40.0644 5.59888 40.2201 5.61404 40.3768 5.67183C40.5336 5.7297 40.7014 5.8338 40.873 5.9674C41.557 6.50001 42.3699 7.55689 42.9081 8.3628L42.9418 8.41329L42.9067 8.4628C42.8609 8.52727 42.8136 8.59502 42.7648 8.66598C43.5339 8.46464 44.2239 8.63001 45.0405 8.99611C45.4486 9.17907 45.8916 9.41371 46.3934 9.67942C46.4442 9.70631 46.4955 9.73352 46.5475 9.76102C47.1144 10.0608 47.7583 10.3974 48.5161 10.7466C51.2843 12.0221 51.6954 13.9375 51.5331 14.8165L52.8112 15.8372C53.1226 15.8449 53.9768 15.9621 55.2268 16.378C55.4456 16.4508 55.679 16.6113 55.9185 16.8307C56.1591 17.0511 56.4113 17.3361 56.6672 17.6655C57.1791 18.3243 57.7107 19.167 58.1991 20.0413C58.6877 20.9159 59.1342 21.8242 59.4757 22.6153C59.816 23.4039 60.0552 24.0833 60.1243 24.4973C60.3424 25.8037 59.5125 26.683 59.0393 26.9828C58.9995 27.1549 58.9677 27.3924 58.9893 27.588C59.0009 27.6929 59.0268 27.7762 59.0664 27.8312C59.1026 27.8814 59.1524 27.9118 59.2307 27.9118C59.5231 27.9118 59.8757 28.0556 60.1808 28.2248C60.4882 28.3953 60.7642 28.6012 60.9059 28.7427C60.927 28.7638 60.9411 28.792 60.9509 28.8154C60.9617 28.8412 60.972 28.8723 60.9818 28.9073C61.0016 28.9775 61.0216 29.0702 61.0417 29.1814C61.0821 29.4042 61.1244 29.7082 61.1664 30.0695C61.2506 30.7925 61.3348 31.75 61.402 32.7572C61.5363 34.7675 61.6045 36.9909 61.4685 37.941C61.3577 38.7156 61.0083 39.1652 60.6067 39.4062C60.2469 39.6221 59.8533 39.6658 59.57 39.6369C59.5263 39.8581 59.468 40.1634 59.4186 40.4459C59.3906 40.6054 59.3656 40.757 59.3476 40.8818C59.3293 41.0088 59.3191 41.1022 59.3191 41.1485C59.3191 41.284 59.3191 41.8266 59.2171 42.4376C59.1158 43.0443 58.9108 43.7393 58.4868 44.1626C58.3438 44.3054 58.2512 44.5276 58.2014 44.8066C58.1519 45.0843 58.1466 45.4085 58.1698 45.7443C58.2163 46.4159 58.376 47.1204 58.509 47.5631L58.5191 47.5967L58.5034 47.628C58.3167 48.0008 57.5183 49.101 55.7946 50.6066C54.927 51.3645 54.2389 51.667 53.7242 51.728C53.2595 51.7831 52.9354 51.6405 52.7611 51.4593L51.5188 52.2034L51.2528 54.5931L51.2437 54.609C49.6179 57.4493 47.5796 58.4711 45.9079 58.7776C45.074 58.9306 44.334 58.905 43.786 58.8414C43.5119 58.8096 43.2857 58.7682 43.1199 58.7349C43.0692 58.7247 43.0228 58.715 42.9832 58.7067C42.9592 58.7017 42.9377 58.6972 42.9192 58.6934C42.8938 58.6882 42.8737 58.6843 42.8582 58.6817C42.8505 58.6804 42.8445 58.6795 42.84 58.679C42.836 58.6785 42.8343 58.6785 42.8343 58.6785M42.8343 58.6785C42.7089 58.6785 42.1117 58.7441 41.5444 58.8774C41.2609 58.9439 40.9913 59.026 40.7944 59.1223C40.6958 59.1705 40.6202 59.22 40.5705 59.2692C40.521 59.3182 40.5038 59.3599 40.5038 59.3952C40.5038 59.4695 40.477 59.5444 40.4377 59.6156C40.3979 59.6876 40.3419 59.7617 40.2757 59.8362C40.1431 59.9851 39.9619 60.1432 39.764 60.2967C39.4007 60.5786 38.972 60.852 38.6597 61.0345L39.1187 61.7219H44.4472C44.4637 61.7219 44.4909 61.7164 44.5308 61.699C44.5699 61.6821 44.6161 61.6561 44.6691 61.6208C44.7753 61.5504 44.9018 61.4477 45.0433 61.321C45.326 61.0678 45.6599 60.7263 45.9959 60.3741C46.1019 60.263 46.2082 60.1507 46.313 60.04C46.5393 59.801 46.7589 59.5691 46.9545 59.3709C47.0978 59.2258 47.2295 59.0974 47.3429 58.9965C47.4544 58.8973 47.5544 58.8188 47.6331 58.7795C47.7812 58.7056 48.0119 58.6539 48.2687 58.616C48.5285 58.5778 48.8254 58.5524 49.1122 58.5356C49.6718 58.5027 50.199 58.5019 50.3497 58.5019C50.3498 58.5019 50.3497 58.5019 50.3497 58.5019C50.3573 58.4976 50.3691 58.4896 50.3855 58.4763C50.4179 58.4501 50.4607 58.4097 50.5133 58.3553C50.6181 58.2471 50.7551 58.0908 50.9143 57.9005C51.2323 57.5203 51.6347 57.0099 52.0378 56.4901C52.318 56.1288 52.598 55.7636 52.85 55.435C52.9606 55.2909 53.0657 55.1538 53.1631 55.0271C53.3227 54.8196 53.4616 54.6399 53.5691 54.5037C53.6748 54.3698 53.7541 54.2725 53.7923 54.2344C54.0041 54.023 56.3785 51.2964 57.5469 49.9505L59.9609 46.2017C60.4933 45.2258 61.7253 42.1431 62.3686 37.6477C62.7706 34.8382 62.7034 32.5651 62.5028 30.929C62.3017 29.2899 61.9674 28.295 61.8395 28.0396C61.6933 27.7477 61.6958 27.458 61.7298 27.1193C61.7379 27.0379 61.7479 26.9535 61.7583 26.8651C61.7917 26.5824 61.8301 26.2577 61.8301 25.8535C61.8301 25.0273 61.3097 24.2971 61.0497 24.0376L61.0238 24.0117V23.9751C61.0238 23.8456 61.0107 23.6223 60.9711 23.3788C60.9314 23.1345 60.8661 22.8761 60.7643 22.6729C60.6179 22.3806 60.6207 22.0233 60.6547 21.7181C60.6709 21.5727 60.6947 21.4351 60.7149 21.3184L60.7185 21.2978C60.74 21.1729 60.755 21.0812 60.755 21.0235C60.755 21.0164 60.7539 21.0156 60.752 21.014L60.7515 21.0136C60.745 21.0082 60.729 20.9996 60.695 20.9924C60.6263 20.978 60.5279 20.9776 60.4066 20.9776H60.4033C60.2879 20.9776 60.1565 20.9776 60.0367 20.9598C59.917 20.9421 59.7931 20.9048 59.7057 20.8175C59.4327 20.545 58.8818 19.9945 58.6073 18.8982C58.4761 18.3745 58.1458 17.7129 57.7427 17.0087C57.4844 16.5574 57.1992 16.0936 56.9211 15.6412C56.7655 15.3883 56.6122 15.1389 56.4669 14.8972C56.0676 14.2328 55.6698 13.7703 55.3412 13.4751C55.1768 13.3274 55.0308 13.2225 54.9116 13.1551C54.7892 13.0858 54.7049 13.0617 54.6612 13.0617C54.6048 13.0617 54.5546 13.0405 54.5111 13.0126C54.4679 12.985 54.4259 12.9472 54.3845 12.9059C54.347 12.8685 54.3071 12.825 54.265 12.7793L54.2512 12.7643C54.2035 12.7125 54.1521 12.6571 54.0947 12.5998C53.8666 12.3721 53.5441 12.1148 53.027 11.9858C52.9064 11.9556 52.7408 11.8753 52.5455 11.7617C52.3479 11.6469 52.1125 11.4937 51.8499 11.3119C51.3245 10.9482 50.6862 10.4674 50.0171 9.94367C48.6868 8.90261 47.2307 7.68944 46.2887 6.88378C45.8363 6.79248 45.1194 6.61921 44.4066 6.38936C43.6846 6.15656 42.9554 5.86225 42.5126 5.53072C42.3151 5.38287 41.9899 5.27715 41.5792 5.20839C41.1714 5.14013 40.6909 5.11008 40.1928 5.10563C39.2492 5.0972 38.2506 5.18066 37.5793 5.26518M50.345 58.5042C50.3452 58.5042 50.3454 58.5041 50.3456 58.504ZM42.6074 8.8981C43.4048 8.62362 44.0956 8.76604 44.968 9.15718C45.3705 9.33762 45.8082 9.56943 46.3115 9.83592C46.3619 9.86262 46.413 9.88967 46.4647 9.91705C47.0322 10.2172 47.6796 10.5556 48.442 10.9069C51.206 12.1805 51.5181 14.0746 51.3494 14.8326L51.3375 14.8863L52.7487 16.0134H52.7797C53.0354 16.0134 53.8855 16.1178 55.1708 16.5455C55.3552 16.6069 55.567 16.7483 55.7989 16.9608C56.0297 17.1722 56.2752 17.449 56.5275 17.7737C57.032 18.423 57.5587 19.2574 58.0447 20.1273C58.5304 20.9969 58.9743 21.8998 59.3132 22.6852C59.6532 23.473 59.8845 24.1353 59.9498 24.5263C60.1568 25.766 59.3458 26.5939 58.9164 26.8511L58.885 26.8699L58.8761 26.9054C58.83 27.0894 58.7872 27.3691 58.8135 27.6073C58.8266 27.7259 58.8577 27.8439 58.9228 27.9343C58.9913 28.0294 59.0939 28.0884 59.2307 28.0884C59.4758 28.0884 59.7952 28.213 60.0949 28.3792C60.3909 28.5433 60.6513 28.7389 60.7791 28.8658C60.7795 28.8666 60.7827 28.8716 60.7878 28.8838C60.7948 28.9003 60.8027 28.9237 60.8115 28.955C60.8291 29.0174 60.8479 29.1039 60.8677 29.2129C60.9071 29.4303 60.9488 29.7301 60.9907 30.0899C61.0745 30.8092 61.1584 31.7636 61.2255 32.7689C61.3601 34.7837 61.4263 36.9877 61.2934 37.916C61.1893 38.644 60.8667 39.0442 60.5156 39.2549C60.1605 39.468 59.7659 39.4933 59.514 39.4514L59.4295 39.4373L59.4127 39.5212C59.3678 39.7453 59.3005 40.0948 59.2443 40.4155C59.2163 40.5758 59.1909 40.7294 59.1725 40.8567C59.1545 40.9818 59.1422 41.0875 59.1422 41.1485C59.1422 41.2815 59.1422 41.8122 59.0426 42.4086C58.9423 43.0094 58.7441 43.656 58.3618 44.0377C58.1823 44.2169 58.08 44.4799 58.0273 44.7756C57.9743 45.0727 57.9696 45.4126 57.9934 45.7565C58.0398 46.4272 58.1958 47.1263 58.3294 47.5795C58.1293 47.9526 57.347 49.0159 55.6782 50.4737C54.8255 51.2185 54.1696 51.4974 53.7033 51.5527C53.2381 51.6078 52.9625 51.4414 52.8504 51.2922L52.8026 51.2285L51.3527 52.097L51.0811 54.5372C49.483 57.3197 47.4939 58.3073 45.876 58.604C45.0636 58.7529 44.342 58.7282 43.8064 58.666C43.5387 58.6349 43.3177 58.5945 43.1548 58.5618C43.1039 58.5516 43.0599 58.5423 43.0213 58.5343C42.9971 58.5292 42.975 58.5246 42.9546 58.5204C42.9489 58.5192 42.9434 58.5181 42.938 58.517C42.9191 58.5132 42.9021 58.51 42.8875 58.5076C42.8809 58.5064 42.8739 58.5053 42.8669 58.5044C42.8558 58.5029 42.8446 58.5019 42.8345 58.5019C42.6907 58.5019 42.0786 58.5705 41.5038 58.7055C41.2161 58.7731 40.9313 58.8587 40.7166 58.9637C40.6095 59.0161 40.5149 59.0756 40.446 59.1438C40.3768 59.2122 40.3269 59.2963 40.3269 59.3952C40.3269 59.4282 40.3145 59.473 40.2828 59.5303C40.2515 59.5869 40.2045 59.6503 40.1434 59.7189C40.0212 59.8562 39.8496 60.0067 39.6555 60.1573C39.2678 60.4581 38.8012 60.751 38.4899 60.9285L38.4077 60.9755L39.0241 61.8985H44.4472C44.4979 61.8985 44.5505 61.883 44.6014 61.8609C44.6532 61.8385 44.7088 61.8065 44.7671 61.7679C44.8835 61.6906 45.0173 61.5815 45.1614 61.4524C45.4499 61.1941 45.788 60.848 46.124 60.4959C46.2311 60.3836 46.338 60.2707 46.443 60.1597C46.6687 59.9214 46.8861 59.6918 47.0805 59.4949C47.2228 59.3507 47.3514 59.2255 47.4606 59.1283C47.5718 59.0294 47.6565 58.9653 47.7122 58.9375C47.833 58.8772 48.039 58.8284 48.2946 58.7907C48.5472 58.7535 48.8383 58.7286 49.1226 58.7119C49.6911 58.6785 50.2265 58.6785 50.3606 58.6785C50.3927 58.6785 50.4203 58.6649 50.4371 58.6554C50.4565 58.6445 50.4767 58.6298 50.4969 58.6135C50.5374 58.5806 50.586 58.5343 50.6405 58.4781C50.7498 58.3651 50.89 58.2049 51.05 58.0137C51.3703 57.6308 51.7744 57.1182 52.1776 56.5982C52.4579 56.2368 52.7383 55.8712 52.9903 55.5426C53.1009 55.3983 53.2061 55.2612 53.3034 55.1346C53.463 54.9271 53.6013 54.7483 53.708 54.613C53.8166 54.4754 53.8884 54.3882 53.9174 54.3593C54.1354 54.1416 56.5222 51.4004 57.6847 50.0613L57.6889 50.0565L60.1131 46.2919L60.1147 46.2891C60.6583 45.2942 61.8974 42.1889 62.5437 37.6726C62.948 34.8471 62.8808 32.5585 62.6783 30.9075C62.4762 29.2595 62.1385 28.2419 61.9977 27.9606C61.8751 27.7159 61.8725 27.4689 61.9058 27.1368C61.9135 27.0598 61.9231 26.9783 61.9334 26.8917C61.9669 26.6078 62.007 26.2692 62.007 25.8535C62.007 24.9889 61.485 24.2361 61.2003 23.9389C61.1982 23.7977 61.1834 23.5826 61.1457 23.3505C61.1048 23.0985 61.0358 22.8201 60.9225 22.594C60.8001 22.3496 60.7973 22.0361 60.8305 21.7376C60.8461 21.5977 60.869 21.465 60.8893 21.3476L60.8928 21.3278C60.9132 21.2094 60.9318 21.0999 60.9318 21.0235C60.9318 20.9641 60.9079 20.914 60.865 20.8782C60.8263 20.8458 60.7773 20.8293 60.7314 20.8197C60.6425 20.801 60.5258 20.801 60.4141 20.801H60.4066C60.2876 20.801 60.1684 20.8008 60.0626 20.7852C59.9555 20.7693 59.8778 20.7396 59.8308 20.6927L59.8302 20.6921C59.5655 20.4278 59.0417 19.905 58.7789 18.8554C58.6412 18.3058 58.2996 17.6257 57.8963 16.9211C57.6368 16.4677 57.3487 15.9991 57.0693 15.5448C56.9142 15.2926 56.7619 15.0447 56.6186 14.8064C56.2115 14.1291 55.803 13.6524 55.4596 13.3439C55.288 13.1897 55.1316 13.0766 54.9988 13.0014C54.8693 12.9282 54.752 12.8852 54.6612 12.8852C54.6504 12.8852 54.6335 12.8812 54.6066 12.864C54.5795 12.8466 54.548 12.8194 54.5096 12.781C54.4749 12.7465 54.4376 12.7059 54.3949 12.6595L54.3814 12.6448C54.3336 12.5928 54.28 12.5351 54.2198 12.475C53.9775 12.2331 53.628 11.9537 53.0699 11.8145C52.9756 11.7909 52.8287 11.722 52.6345 11.6091C52.4425 11.4976 52.2113 11.3472 51.9506 11.1668C51.4294 10.806 50.7943 10.3275 50.1262 9.8047C48.7903 8.75923 47.3264 7.53919 46.3863 6.73473L46.3687 6.71972L46.3461 6.71519C45.9009 6.62632 45.1785 6.45271 44.4609 6.22133C43.7404 5.98902 43.0361 5.70194 42.6187 5.38947C42.3861 5.21532 42.0259 5.10414 41.6084 5.03425C41.1881 4.96388 40.6975 4.93356 40.1944 4.92906C39.188 4.92007 38.122 5.0144 37.447 5.10425L37.3409 5.11837L37.3748 5.21968C37.4665 5.49452 37.7588 6.15294 38.2025 6.59586C38.5171 6.90993 39.0483 7.53744 39.4501 8.02576C39.1856 10.8744 38.2334 16.229 37.5128 19.9872C37.3458 20.6808 37.2066 21.3818 37.1024 22.0839L37.2766 22.1141C37.3976 21.5104 37.5367 20.8017 37.6857 20.0244C38.8108 15.3524 41.2037 10.9988 42.6074 8.8981ZM42.493 8.75133C42.5746 8.62987 42.6528 8.51611 42.7272 8.41046C42.1909 7.61393 41.4105 6.60987 40.7642 6.10663C40.5998 5.97861 40.4484 5.88649 40.3154 5.83745C40.1823 5.78832 40.0776 5.78587 39.9973 5.82103C39.9181 5.85569 39.8429 5.93559 39.787 6.0946C39.7307 6.25425 39.6975 6.48455 39.6975 6.80177C39.6975 7.11179 39.6744 7.50746 39.6328 7.96974C39.7553 8.1191 39.8636 8.25273 39.9468 8.35662L39.9701 8.38573L39.9655 8.42272C39.944 8.59452 39.9432 8.79169 39.9788 8.97341C40.0146 9.15594 40.0854 9.31463 40.1999 9.42027C40.3113 9.52313 40.4742 9.58498 40.7167 9.55673C40.9625 9.52811 41.2879 9.40676 41.7124 9.1419C41.9859 8.97129 42.2438 8.84241 42.493 8.75133ZM39.6091 8.22001C39.3712 10.6218 38.692 14.6184 38.0648 18.0114C39.2593 14.2398 41.1028 10.8771 42.3195 9.0133C42.1553 9.08794 41.9848 9.18015 41.8062 9.29163C41.3705 9.56344 41.0195 9.69925 40.7372 9.73212C40.4517 9.76537 40.2349 9.69305 40.0798 9.54993C39.9277 9.4096 39.8451 9.21051 39.8052 9.00731C39.7679 8.81683 39.7667 8.61545 39.7857 8.43821C39.7344 8.37438 39.6748 8.3007 39.6091 8.22001ZM28.193 5.83595C28.0247 5.92414 27.9014 6.00265 27.8448 6.05919C27.8005 6.10346 27.7218 6.1508 27.629 6.19923C27.5329 6.24932 27.4111 6.3058 27.2719 6.36689C27.0308 6.47263 26.733 6.59407 26.4181 6.72249C26.3692 6.74246 26.3198 6.76259 26.2702 6.78286C25.5272 7.08631 24.731 7.41802 24.337 7.68023C24.1218 7.82344 23.7219 7.96066 23.2488 8.09022C22.7716 8.22092 22.2067 8.34714 21.652 8.46459C21.4173 8.5143 21.1848 8.56235 20.9614 8.60854C20.6553 8.67181 20.3661 8.73157 20.1113 8.78731C19.8912 8.83544 19.6984 8.88018 19.5444 8.92108C19.3881 8.96257 19.2787 8.99838 19.2205 9.0274C19.1469 9.06416 19.0488 9.15968 18.9117 9.32714C18.7992 9.46455 18.6678 9.64075 18.5094 9.85322C18.4785 9.89456 18.4467 9.93727 18.4137 9.98133C18.1378 10.3505 17.7896 10.8094 17.341 11.3364C17.7096 11.0847 18.0734 10.8784 18.335 10.7478C19.0515 10.3902 20.7513 9.51488 21.8234 8.87273C22.383 8.5375 23.278 8.42636 24.1527 8.41741C25.0323 8.4084 25.9111 8.50288 26.4528 8.59302L26.4756 8.5968L26.4936 8.61117C26.601 8.69698 26.7349 8.7845 26.8741 8.84802C27.0144 8.91206 27.153 8.94847 27.2726 8.94083C27.3875 8.9335 27.4869 8.8859 27.5613 8.77259C27.6388 8.65446 27.6938 8.45743 27.6938 8.14344C27.6938 7.79321 27.8414 7.5196 28.0764 7.31176C28.3088 7.10623 28.6255 6.96563 28.9682 6.87097C29.651 6.68239 30.4649 6.66868 31.0084 6.71324L35.0304 6.44557L36.826 6.18948C36.815 6.12368 36.7894 6.04718 36.7418 5.98127C36.6776 5.8922 36.5698 5.81672 36.3835 5.81672C36.1094 5.81672 35.3645 5.74898 34.6616 5.68215C34.5404 5.67063 34.4202 5.65911 34.3036 5.64793C34.0807 5.62656 33.8709 5.60645 33.6917 5.58994C33.4162 5.56455 33.22 5.54839 33.1581 5.54839C33.02 5.54839 32.2198 5.48181 31.424 5.41561L31.4036 5.41391C30.5933 5.3465 29.7933 5.28005 29.6638 5.28005C29.6413 5.28005 29.5995 5.28622 29.5376 5.30116C29.4775 5.31565 29.4042 5.33694 29.3215 5.36377C29.1563 5.4174 28.9569 5.49199 28.757 5.57513C28.5571 5.65829 28.358 5.74944 28.193 5.83595ZM16.3932 12.3805C16.4818 12.2888 16.5677 12.1984 16.6511 12.1094C17.1966 11.5898 17.9605 11.1322 18.4141 10.9057C19.1312 10.5478 20.8361 9.66999 21.9144 9.02414C22.4299 8.71538 23.282 8.6029 24.1545 8.59397C25.01 8.58521 25.8663 8.67587 26.4014 8.76349C26.5147 8.85195 26.6537 8.94161 26.8005 9.00861C26.9542 9.07873 27.1235 9.12729 27.2839 9.11704C27.4491 9.10649 27.6016 9.03334 27.7092 8.86937C27.8137 8.71022 27.8707 8.47345 27.8707 8.14344C27.8707 7.84966 27.9919 7.62239 28.1937 7.44393C28.3981 7.26318 28.6862 7.13208 29.0154 7.04115C29.6738 6.85931 30.4688 6.84552 31.0004 6.88975L31.007 6.8903L35.0488 6.6213L37.0096 6.34167V6.2651C37.0096 6.16153 36.9792 6.00813 36.8854 5.8781C36.7883 5.74356 36.6274 5.64015 36.3835 5.64015C36.1201 5.64015 35.3867 5.57372 34.6784 5.50638C34.5575 5.49489 34.4375 5.48338 34.321 5.47222C34.0979 5.45082 33.8874 5.43065 33.708 5.41411C33.4375 5.38919 33.2305 5.37181 33.1581 5.37181C33.0285 5.37181 32.2285 5.30536 31.4183 5.23795L31.3979 5.23625C30.6021 5.17005 29.8019 5.10348 29.6638 5.10348C29.6191 5.10348 29.5601 5.11408 29.496 5.12953C29.4301 5.14544 29.3522 5.16817 29.2669 5.19585C29.0962 5.25123 28.8923 5.32758 28.689 5.41214C28.4857 5.49669 28.2817 5.59003 28.1107 5.67961C27.943 5.76752 27.7975 5.85671 27.7197 5.93434C27.6969 5.95716 27.6411 5.99367 27.5471 6.04273C27.4562 6.09011 27.3386 6.14474 27.2007 6.20524C26.962 6.30996 26.6667 6.43039 26.3515 6.55894C26.3025 6.57892 26.253 6.59909 26.2032 6.61943C25.4679 6.91973 24.6513 7.25885 24.2389 7.53331C24.0509 7.65843 23.6781 7.78954 23.202 7.91994C22.7301 8.04919 22.1694 8.17453 21.6153 8.29186C21.3827 8.34113 21.1508 8.38906 20.9274 8.43525C20.6201 8.49877 20.3287 8.55899 20.0734 8.61483C19.8525 8.66313 19.6568 8.70853 19.4989 8.75044C19.3434 8.79175 19.2177 8.83142 19.1414 8.86947C19.0294 8.92541 18.9097 9.05063 18.7748 9.2154C18.6595 9.35619 18.5251 9.53636 18.3668 9.74869C18.3361 9.78985 18.3045 9.83221 18.272 9.87573C17.8704 10.413 17.3178 11.1377 16.5252 11.9852C16.4308 12.0754 16.3421 12.1679 16.262 12.2619C15.595 12.951 14.7723 13.7125 13.7505 14.514C11.8632 15.9944 10.9817 17.0751 10.5381 17.7905C10.316 18.1486 10.2047 18.4136 10.1326 18.5872L10.1323 18.5881C10.0954 18.6768 10.0722 18.7325 10.051 18.7677C10.0438 18.7795 10.0388 18.7857 10.036 18.7887C10.0016 18.7905 9.9758 18.8078 9.96101 18.82C9.94389 18.834 9.92893 18.8517 9.91601 18.8692C9.88994 18.9047 9.86263 18.9532 9.83452 19.0101C9.77784 19.1248 9.71115 19.2876 9.63789 19.484C9.49145 19.8765 9.31537 20.4122 9.13586 20.9883C8.62731 22.1778 8.39776 23.035 8.34181 23.426L8.34144 23.4285L8.34123 23.4311C8.33024 23.5628 8.32033 23.7111 8.31257 23.8704C8.18305 24.5674 7.78976 25.9065 7.01629 26.8716C6.73375 27.2242 6.54569 27.7784 6.41907 28.4062C6.29186 29.037 6.22435 29.7546 6.19065 30.4444C6.13756 31.5309 6.16815 32.5591 6.18345 33.0732C6.18754 33.2109 6.19054 33.3117 6.19054 33.3668C6.19054 33.6433 6.25902 34.1868 6.35962 34.8229C6.46063 35.4616 6.59525 36.2007 6.72984 36.8725C6.91066 37.775 7.0955 38.2063 7.2764 38.6284C7.36521 38.8356 7.45307 39.0406 7.53903 39.2981C7.67542 39.7065 7.94632 40.2474 8.21306 40.78L8.21581 40.7855C8.48576 41.3245 8.75105 41.8546 8.88298 42.2497C9.01965 42.6591 9.35827 43.402 9.72851 44.1076C9.91398 44.4611 10.1083 44.8069 10.2904 45.0986C10.4714 45.3886 10.6438 45.6308 10.7859 45.7726C10.8392 45.8259 10.8969 45.9285 10.9559 46.0819C11.0139 46.2327 11.0696 46.4227 11.1238 46.6412C11.2322 47.0782 11.3325 47.6205 11.4334 48.1745L11.4513 48.2729C11.5461 48.7937 11.6417 49.3195 11.745 49.7675C11.7999 50.0058 11.8573 50.2236 11.9184 50.408C11.979 50.5912 12.045 50.7469 12.1188 50.8575C12.3438 51.1945 12.6696 51.4488 12.9812 51.6295C13.2617 51.7921 13.5354 51.8979 13.7239 51.9515C13.8382 52.8927 14.5236 54.9156 16.4501 55.984C18.3651 57.0461 18.8237 58.3619 18.8237 58.8585V58.901L18.8569 58.9275C20.22 60.0161 22.1212 60.5554 24.277 60.8245C25.9598 61.0345 26.902 61.7802 27.1657 62.1208C27.2209 62.2731 27.3571 62.4609 27.5947 62.5562C27.842 62.6555 28.1827 62.6481 28.6281 62.4258C29.0523 62.2141 29.3557 62.1289 29.5595 62.1059C29.6613 62.0943 29.7364 62.0985 29.7883 62.1089C29.8421 62.1196 29.8646 62.1356 29.87 62.1409L29.8816 62.1525L29.8966 62.1592C30.8803 62.5956 32.2606 62.7749 33.578 62.8242C34.8979 62.8735 36.1658 62.7928 36.9314 62.7029L36.9745 62.6978L37.8159 61.298V61.2735C37.8159 61.2385 37.7978 61.2144 37.7849 61.2019C37.7723 61.1897 37.7584 61.182 37.7485 61.1773C37.7281 61.1677 37.7035 61.1608 37.6788 61.1555C37.6281 61.1445 37.5565 61.1357 37.4667 61.1293C37.2861 61.1164 37.0206 61.1125 36.676 61.1249C35.9864 61.1497 34.9746 61.2396 33.6811 61.4548C32.4184 61.6649 31.2302 61.2716 30.2535 60.6879C29.2766 60.1041 28.5189 59.3341 28.1218 58.8055L28.0795 58.7493L28.0151 58.7778C27.6145 58.9556 26.9456 59.2227 26.2435 59.4452C25.5389 59.6685 24.8109 59.8436 24.2879 59.8436C23.9631 59.8436 23.4845 59.7619 22.9399 59.6281C22.3972 59.4947 21.7952 59.3111 21.2263 59.1107C20.6572 58.9102 20.123 58.6934 19.7154 58.4941C19.5115 58.3944 19.3411 58.3 19.2145 58.215C19.1512 58.1726 19.1003 58.1334 19.0621 58.0982C19.023 58.0622 19.0013 58.0339 18.9913 58.014C18.9194 57.8705 18.7794 57.6795 18.6116 57.4701C18.4428 57.2593 18.2404 57.0237 18.0393 56.7895L18.0386 56.7886C17.8367 56.5535 17.6362 56.3199 17.4693 56.1116C17.3011 55.9018 17.1723 55.7239 17.1097 55.599C17.0639 55.5074 17.0323 55.3561 17.0154 55.1605C16.9988 54.9677 16.997 54.7417 17.0048 54.5077C17.0203 54.0421 17.0732 53.5514 17.1176 53.2404C17.2088 52.8722 17.2263 52.3348 16.9558 51.9394C16.6761 51.5305 16.1155 51.3087 15.1299 51.5273C13.9802 51.7824 13.1077 50.9859 12.5261 50.0015C12.2372 49.5127 12.0262 48.9865 11.8949 48.5425C11.8293 48.3206 11.784 48.1205 11.7588 47.9569C11.7331 47.7906 11.7297 47.6705 11.7418 47.6044C11.76 47.5055 11.7472 47.3802 11.7168 47.2426C11.686 47.103 11.635 46.9419 11.5698 46.7673C11.4394 46.4179 11.2492 46.0073 11.0395 45.5938C10.62 44.7669 10.1179 43.9203 9.84689 43.5145C9.64927 43.2186 9.60188 42.7305 9.63311 42.2205C9.66401 41.716 9.77016 41.2125 9.85834 40.9044L9.86586 40.8781L9.57443 40.0054L8.70383 39.7156L8.6808 39.7202C8.61212 39.734 8.49433 39.7061 8.33972 39.5439C8.18678 39.3834 8.01103 39.1036 7.83289 38.6541C7.47687 37.7556 7.11944 36.2002 6.90469 33.6278C6.69037 31.0606 7.00405 29.423 7.47454 28.42C7.94551 27.4159 8.56858 27.0553 8.97574 27.0146L8.99491 26.843C8.89148 26.8086 8.79524 26.6975 8.71393 26.4988C8.63417 26.3039 8.57712 26.0447 8.53866 25.7504C8.46211 25.1647 8.46147 24.4589 8.48867 23.8908C8.49969 23.8307 8.50881 23.7752 8.51609 23.725C8.71552 23.0084 9.01369 21.9752 9.30207 21.0493C9.6277 20.2886 10.0694 19.3886 10.6561 18.3846C12.1394 15.846 14.2644 15.7523 15.1237 16.0097L15.1636 16.0216L16.0538 15.4291L16.0422 15.3711C15.9536 14.9288 15.8309 13.8348 16.0413 12.9949C16.0907 12.7977 16.2155 12.5897 16.3932 12.3805ZM15.8884 12.8862C15.3161 13.4421 14.6464 14.0359 13.8598 14.6529C11.984 16.1242 11.1184 17.1901 10.6885 17.8835C10.4737 18.2298 10.3667 18.4847 10.296 18.6548L10.2932 18.6614C10.3611 18.5411 10.4311 18.4191 10.5033 18.2956C12.0088 15.7192 14.1794 15.5652 15.1342 15.8289L15.8576 15.3475C15.7684 14.8629 15.6589 13.7938 15.8697 12.952C15.8752 12.9301 15.8814 12.9081 15.8884 12.8862ZM10.1448 18.9281C10.1235 18.9455 10.0979 18.9587 10.0668 18.9633C10.0646 18.9659 10.0618 18.9693 10.0586 18.9737C10.0416 18.9968 10.0197 19.0345 9.99315 19.0882C9.94052 19.1947 9.87632 19.3508 9.80364 19.5456C9.79281 19.5747 9.7818 19.6045 9.77064 19.6351C9.88684 19.4069 10.0114 19.1711 10.1448 18.9281ZM8.29595 24.678C8.08313 25.3902 7.71779 26.2789 7.15441 26.982C6.89937 27.3002 6.71784 27.8194 6.59247 28.441C6.46769 29.0597 6.4008 29.7676 6.36731 30.453C6.3147 31.5295 6.34466 32.5399 6.36005 33.0588C6.36428 33.2017 6.36741 33.3073 6.36741 33.3668C6.36741 33.627 6.43333 34.1568 6.53433 34.7953C6.6349 35.4312 6.76908 36.168 6.90328 36.8378C7.08087 37.7243 7.25452 38.128 7.43193 38.5406C7.52225 38.7506 7.61355 38.9629 7.70683 39.2422C7.83877 39.6374 8.10405 40.1675 8.374 40.7065L8.37673 40.7119C8.64347 41.2445 8.91439 41.7854 9.05078 42.1939C9.1829 42.5896 9.51625 43.3225 9.88519 44.0257C10.0693 44.3766 10.2614 44.7183 10.4405 45.0052C10.5769 45.2237 10.7038 45.4071 10.8124 45.5383C10.4109 44.7611 9.95167 43.9897 9.69973 43.6125C9.46729 43.2644 9.42508 42.7239 9.45657 42.2097C9.48752 41.7043 9.5914 41.202 9.68081 40.8823L9.4346 40.1449L8.6907 39.8974C8.54163 39.9159 8.3754 39.8375 8.21156 39.6656C8.03691 39.4823 7.85091 39.1795 7.66842 38.719C7.30316 37.7972 6.94379 36.2221 6.72843 33.6425C6.51263 31.0576 6.82614 29.3859 7.31437 28.3451C7.73364 27.4513 8.2855 27.0172 8.7427 26.882C8.6635 26.7995 8.60067 26.6889 8.5502 26.5656C8.46212 26.3503 8.40259 26.074 8.36327 25.7732C8.31843 25.4301 8.29913 25.0488 8.29595 24.678ZM11.2683 46.4922C11.2774 46.5271 11.2865 46.5626 11.2954 46.5988C11.4054 47.0422 11.5067 47.5901 11.6074 48.1429L11.6251 48.2399C11.7201 48.7621 11.8151 49.2841 11.9174 49.728C11.9717 49.9635 12.0276 50.1754 12.0863 50.3526C12.1453 50.531 12.2054 50.6688 12.2659 50.7595C12.471 51.0665 12.7724 51.3042 13.07 51.4768C13.3675 51.6493 13.6554 51.7535 13.8266 51.7962L13.8869 51.8113L13.8931 51.8731C13.9809 52.7499 14.6345 54.7751 16.536 55.8297C16.9612 56.0655 17.318 56.3147 17.6161 56.5663C17.5154 56.4473 17.4188 56.3313 17.3312 56.2219C17.1634 56.0126 17.0234 55.8215 16.9515 55.678C16.8899 55.5549 16.8565 55.3753 16.8392 55.1757C16.8217 54.9733 16.8201 54.7397 16.828 54.5019C16.8438 54.0261 16.898 53.5264 16.9431 53.211L16.9437 53.2065L16.9449 53.2021C17.0318 52.8548 17.0399 52.3754 16.8098 52.039C16.5878 51.7144 16.1181 51.489 15.1683 51.6997C13.8989 51.9813 12.9644 51.0908 12.3737 50.0913C12.0764 49.5881 11.86 49.0482 11.7253 48.5925C11.6579 48.3646 11.6106 48.1567 11.584 47.9838C11.5578 47.8138 11.5501 47.6692 11.5679 47.5726C11.5796 47.5088 11.5729 47.4114 11.5441 47.2806C11.5157 47.152 11.4677 46.9993 11.4041 46.829C11.3643 46.7224 11.3186 46.6095 11.2683 46.4922ZM18.7341 57.9281C18.9159 58.2874 18.9908 58.5987 18.9996 58.8152C20.3223 59.8562 22.1714 60.3838 24.2989 60.6493C26.0388 60.8664 27.0298 61.6455 27.3154 62.0256L27.324 62.037L27.3285 62.0506C27.3665 62.1643 27.4712 62.3164 27.6606 62.3924C27.8478 62.4675 28.1343 62.4749 28.549 62.2679C28.985 62.0503 29.3088 61.9565 29.5395 61.9304C29.655 61.9174 29.749 61.921 29.823 61.9358C29.8872 61.9486 29.9421 61.971 29.9812 62.0035C30.9321 62.4217 32.2782 62.5988 33.5847 62.6477C34.8699 62.6958 36.106 62.6194 36.8676 62.5325L37.5964 61.32C37.5599 61.3146 37.5127 61.3096 37.4541 61.3054C37.2819 61.2931 37.0232 61.2891 36.6824 61.3014C36.0012 61.3258 34.9971 61.4148 33.7102 61.6289C32.3925 61.8482 31.1615 61.4364 30.1627 60.8394C29.1977 60.2627 28.4421 59.5091 28.0229 58.9674C27.6123 59.1466 26.97 59.4002 26.2971 59.6135C25.5905 59.8374 24.8402 60.0201 24.2879 60.0201C23.9408 60.0201 23.445 59.9341 22.8976 59.7996C22.3484 59.6646 21.7408 59.4792 21.1674 59.2772C20.5942 59.0752 20.0532 58.8559 19.6376 58.6527C19.43 58.5512 19.2518 58.4527 19.1159 58.3616C19.0479 58.316 18.9892 58.2713 18.9421 58.2279C18.8959 58.1853 18.8567 58.1402 18.8331 58.093C18.8092 58.0454 18.7757 57.99 18.7341 57.9281ZM10.033 18.7912C10.033 18.7911 10.0335 18.7906 10.0345 18.7902C10.0335 18.791 10.033 18.7913 10.033 18.7912Z" fill="#FAEC03"/>
<path d="M39.0117 31.5474C38.6969 31.8873 38.41 32.1379 38.1964 32.2918C38.4786 32.0338 38.7502 31.7858 39.0117 31.5474C39.7984 30.6979 40.7595 29.2909 41.1867 27.4443C41.9343 26.9057 43.6786 25.5053 44.6753 24.2127C45.9213 22.5969 50.9051 16.1336 51.1542 15.0564C51.3536 14.1946 52.7324 15.595 53.3969 16.4029C52.8155 16.2233 50.4067 17.4801 45.4229 23.9434C45.2568 24.3025 44.9744 25.236 45.1737 26.0978C45.0166 26.1827 43.5525 27.4073 39.0117 31.5474Z" fill="#FAEC03"/>
<path d="M39.4424 33.9076C41.4359 33.2793 45.5226 31.8609 45.9213 31.2146C46.32 30.5683 49.576 30.0476 51.1542 29.8681C51.4588 29.8681 51.9123 29.8413 52.3832 29.7658C53.5749 29.1417 54.4774 28.7004 54.1445 29.0602C53.7901 29.4432 53.0682 29.656 52.3832 29.7658C50.8989 30.5431 48.966 31.6038 48.4132 31.7532C47.4164 32.0225 45.6721 33.0997 44.177 33.369C42.6818 33.6383 41.9343 34.1769 39.6916 34.4462C37.8974 34.6617 38.7779 34.1769 39.4424 33.9076Z" fill="#FAEC03"/>
<path fill-rule="evenodd" clip-rule="evenodd" d="M51.0429 14.9937C51.0039 15.0203 50.9669 15.0703 50.9438 15.163C50.9067 15.3117 50.787 15.5395 50.6141 15.8188C50.439 16.1017 50.2027 16.4476 49.9236 16.8362C49.3653 17.6135 48.6325 18.5656 47.8671 19.5335C46.3362 21.4695 44.6724 23.472 44.0071 24.2727L44.0071 24.2727C42.9467 25.549 41.106 26.9253 40.2909 27.4736C39.9613 28.7727 39.3484 29.8523 38.7192 30.6718C40.6576 29.0375 41.9929 27.9323 42.8822 27.21C43.3915 26.7963 43.7549 26.508 44.0016 26.3176C44.125 26.2225 44.2196 26.1515 44.2889 26.1015C44.321 26.0783 44.3489 26.0588 44.3723 26.0432C44.1818 25.1789 44.482 24.2671 44.6599 23.9103L44.6644 23.9012L44.6709 23.8934C47.3343 20.6879 49.3124 18.77 50.705 17.675C51.4012 17.1275 51.9531 16.7841 52.3729 16.5885C52.5828 16.4907 52.7615 16.4289 52.91 16.3976C52.9575 16.3876 53.0027 16.3806 53.0453 16.3765C52.6991 16.002 52.2347 15.5524 51.8198 15.2603C51.5796 15.0913 51.3685 14.9841 51.2122 14.9645C51.1365 14.955 51.0821 14.967 51.0429 14.9937ZM37.8321 31.4212C37.5538 31.6567 37.2646 31.9017 36.9643 32.1566L37.0694 32.2967C37.3026 32.1408 37.6123 31.8894 37.9507 31.5506C40.3735 29.5006 41.9754 28.1725 42.9924 27.3464C43.5012 26.9333 43.8632 26.6459 44.1084 26.4568C44.231 26.3623 44.3239 26.2926 44.3912 26.2441C44.4606 26.194 44.4976 26.1702 44.5112 26.1634L44.574 26.1319L44.557 26.0636C44.353 25.245 44.6389 24.3506 44.812 23.9979C47.4676 20.8025 49.4348 18.897 50.8131 17.8132C51.5029 17.2707 52.0431 16.9358 52.4467 16.7477C52.6484 16.6537 52.8142 16.5973 52.946 16.5695C53.079 16.5415 53.1713 16.5439 53.2298 16.5607L53.5194 16.6437L53.3193 16.4179C52.9627 16.0156 52.4119 15.4626 51.9204 15.1166C51.6771 14.9453 51.4358 14.8156 51.234 14.7902C51.1306 14.7772 51.0294 14.7906 50.9446 14.8484C50.8596 14.9062 50.804 14.9997 50.7739 15.1204C50.7444 15.2387 50.6396 15.4446 50.4653 15.7262C50.2932 16.0042 50.0596 16.3464 49.7815 16.7335C49.2255 17.5076 48.4947 18.4572 47.7299 19.4244C46.2005 21.3585 44.5379 23.3596 43.8726 24.1603C42.8164 25.4315 40.9622 26.8137 40.1657 27.3463L40.1375 27.3651L40.1293 27.3981C39.6784 29.2069 38.6639 30.5869 37.8321 31.4212ZM54.1736 29.0159C54.1581 29.0366 54.1379 29.059 54.1141 29.0829C53.9111 29.2865 53.6091 29.4395 53.2725 29.5551C52.9383 29.6698 52.5622 29.7502 52.1974 29.805C51.8805 29.9591 51.5441 30.1245 51.2041 30.2917C50.6984 30.5404 50.1849 30.793 49.7161 31.0176C49.3218 31.2066 48.9578 31.3765 48.6551 31.5085C48.3542 31.6397 48.1083 31.7361 47.9528 31.7751C47.5326 31.8804 46.985 32.113 46.3696 32.3745C46.2178 32.4389 46.062 32.5051 45.9028 32.5716C45.1046 32.9052 44.2314 33.2426 43.422 33.3779C42.7808 33.4851 42.2708 33.6353 41.7272 33.7954C41.5994 33.833 41.4697 33.8712 41.336 33.9095C40.6342 34.1107 39.8309 34.3121 38.6272 34.4462C38.1479 34.4996 37.8388 34.5108 37.6581 34.4904C37.6123 34.4852 37.5722 34.4778 37.5384 34.4675C37.5055 34.4575 37.473 34.4431 37.4471 34.4208C37.4191 34.3966 37.3984 34.3623 37.3969 34.3197C37.3955 34.2807 37.4109 34.2476 37.427 34.2235C37.4582 34.1765 37.5123 34.1331 37.5701 34.0945C37.6302 34.0543 37.7043 34.0131 37.785 33.9726C37.9467 33.8915 38.1416 33.8102 38.3207 33.7429L38.3238 33.7417L38.3269 33.7408C39.3903 33.4297 41.0117 32.9232 42.4199 32.4146C43.1242 32.1603 43.7735 31.906 44.2725 31.676C44.5221 31.5609 44.7324 31.4526 44.8924 31.3542C45.0559 31.2538 45.1558 31.1701 45.1976 31.1073C45.2628 31.0092 45.3789 30.9228 45.5219 30.8449C45.6669 30.7659 45.8493 30.6907 46.0579 30.6192C46.4753 30.4762 47.0067 30.3452 47.5748 30.2293C48.7116 29.9972 50.0052 29.8234 50.8497 29.7342L50.8542 29.7337H50.8588C51.1773 29.7337 51.6516 29.7079 52.1452 29.6352C52.776 29.3287 53.3331 29.0658 53.6899 28.9232C53.7798 28.8873 53.8584 28.8585 53.923 28.8384C53.9849 28.8192 54.0424 28.8052 54.0865 28.8049C54.106 28.8047 54.1424 28.8066 54.1732 28.8305C54.1911 28.8443 54.2047 28.8638 54.2108 28.8873C54.2165 28.9093 54.2143 28.9294 54.2106 28.9443C54.2038 28.9721 54.188 28.9967 54.1736 29.0159ZM52.825 29.5033C53.2002 29.3255 53.522 29.1794 53.7547 29.0864C53.8161 29.0619 53.8707 29.0413 53.9179 29.0249C53.7438 29.1708 53.5001 29.2913 53.2158 29.3889C53.0912 29.4317 52.9599 29.4697 52.825 29.5033ZM51.6661 29.8691C51.3575 29.8977 51.0773 29.9092 50.8634 29.9093C50.0225 29.9983 48.7373 30.1712 47.6097 30.4014C47.0446 30.5167 46.5216 30.6459 46.1145 30.7854C45.9109 30.8552 45.7386 30.9267 45.6054 30.9993C45.4701 31.0729 45.3845 31.1427 45.3433 31.2048C45.2785 31.3021 45.149 31.4025 44.9839 31.504C44.8155 31.6075 44.5983 31.719 44.3456 31.8355C43.84 32.0687 43.1854 32.3249 42.4793 32.5799C41.068 33.0895 39.4447 33.5967 38.3791 33.9085C38.2043 33.9743 38.0168 34.0527 37.8633 34.1297C37.7861 34.1684 37.719 34.206 37.6671 34.2407C37.6316 34.2644 37.6068 34.2844 37.5909 34.2999C37.6111 34.3059 37.6393 34.3115 37.6776 34.3159C37.8372 34.3338 38.1292 34.325 38.6079 34.2716C39.7992 34.1389 40.5926 33.9399 41.2879 33.7407C41.4193 33.703 41.5475 33.6652 41.6745 33.6278C42.219 33.4674 42.7407 33.3137 43.3932 33.2047C44.1806 33.0731 45.0371 32.7432 45.8355 32.4095C45.9906 32.3447 46.1438 32.2796 46.2939 32.2158C46.9106 31.9538 47.4755 31.7137 47.9103 31.6047C48.05 31.5697 48.2835 31.479 48.5853 31.3474C48.8852 31.2166 49.247 31.0478 49.6406 30.8591C50.1091 30.6346 50.6207 30.383 51.1255 30.1348C51.3074 30.0453 51.4884 29.9563 51.6661 29.8691ZM37.5704 34.3249C37.5704 34.3249 37.5704 34.3248 37.5705 34.3246Z" fill="#FAEC03"/>
<path d="M52.2429 31.8473C52.6371 31.6067 52.0786 31.3461 51.75 31.2459C52.1443 30.5243 52.5714 30.845 52.7357 31.0956L52.9821 31.9976C52.5714 32.0477 51.8486 32.0878 52.2429 31.8473Z" fill="#FAEC03"/>
<path fill-rule="evenodd" clip-rule="evenodd" d="M52.5986 30.9214C52.6638 30.9758 52.7165 31.0419 52.7537 31.1027L52.7565 31.1073L52.9821 31.9909L52.9155 31.9995C52.737 32.0229 52.4823 32.0451 52.3122 32.0314C52.2691 32.0279 52.2271 32.0218 52.1916 32.0112C52.1564 32.0006 52.1201 31.9831 52.1029 31.9543C52.0853 31.925 52.094 31.8946 52.1139 31.8675C52.1336 31.8407 52.1673 31.8127 52.2126 31.7831C52.2867 31.7348 52.3106 31.6895 52.3093 31.6486C52.3079 31.6061 52.279 31.5612 52.2272 31.5158C52.1228 31.4242 51.9419 31.3447 51.8044 31.2998L51.75 31.282L51.7692 31.2444C51.8557 31.0751 51.9464 30.9616 52.0405 30.8923C52.1364 30.8216 52.2425 30.793 52.3504 30.8069C52.4513 30.8199 52.5347 30.8682 52.5986 30.9214ZM51.9216 31.2366C51.9992 31.0935 52.0756 31.0045 52.1455 30.9531C52.2192 30.8988 52.2783 30.8909 52.3232 30.8967C52.3751 30.9034 52.432 30.9311 52.4881 30.9779C52.5414 31.0223 52.5871 31.0783 52.6207 31.1322L52.8213 31.9179C52.6553 31.9371 52.4578 31.9509 52.3294 31.9405C52.2935 31.9376 52.2673 31.9331 52.2503 31.928C52.2391 31.9247 52.235 31.922 52.2338 31.921C52.2337 31.9195 52.2344 31.9153 52.2404 31.9071C52.2504 31.8935 52.2718 31.8739 52.3118 31.8479C52.4083 31.7849 52.4518 31.7165 52.4496 31.6467C52.4474 31.5784 52.4017 31.5154 52.3398 31.4611C52.2314 31.3661 52.061 31.2869 51.9216 31.2366ZM52.2339 31.9217C52.2339 31.9217 52.2338 31.9216 52.2338 31.9214Z" fill="#FAEC03"/>
<path d="M55.8464 27.745C55.6991 27.7694 55.564 27.7872 55.4464 27.7989C55.5413 27.7612 55.6789 27.7448 55.8464 27.745C56.8339 27.5813 58.3699 27.1182 58.8428 26.1777C59.3862 25.0969 59.0692 27.1684 58.8428 28.3393C58.0952 28.1163 56.638 27.746 55.8464 27.745Z" fill="#FAEC03"/>
<path fill-rule="evenodd" clip-rule="evenodd" d="M60.168 26.0564C60.1251 26.0893 60.0622 26.1595 59.9768 26.2829C59.6563 26.7469 58.9858 27.0825 58.2557 27.3205C57.7977 27.4698 57.3081 27.5833 56.85 27.6662C57.8327 27.7642 59.0681 27.9945 59.8236 28.1556C59.9636 27.6188 60.1222 26.9168 60.1699 26.4534C60.1824 26.3317 60.187 26.2291 60.1822 26.1517C60.1798 26.1129 60.1752 26.0826 60.1692 26.0605C60.1688 26.059 60.1684 26.0577 60.168 26.0564ZM56.061 27.785C57.0638 27.7874 58.9146 28.129 59.8718 28.3368C59.8967 28.3422 59.923 28.3387 59.9448 28.3271C59.9667 28.3155 59.9822 28.2967 59.988 28.275C60.1332 27.7285 60.3087 26.9678 60.3601 26.4682C60.3729 26.3431 60.3784 26.2317 60.3729 26.1428C60.3702 26.0984 60.3646 26.0574 60.3549 26.022C60.3456 25.9882 60.3305 25.9514 60.3023 25.9227C60.2698 25.8896 60.2218 25.8696 60.1656 25.8763C60.1181 25.8819 60.0772 25.9052 60.0442 25.9301C59.9771 25.9808 59.9009 26.0705 59.8131 26.1976C59.5276 26.6108 58.9106 26.9299 58.1885 27.1653C57.4735 27.3984 56.6754 27.5432 56.0479 27.6192C55.8335 27.6193 55.647 27.6345 55.5117 27.6737C55.4659 27.687 55.4387 27.7279 55.4484 27.769C55.4581 27.8101 55.5017 27.8385 55.5499 27.835C55.7006 27.8241 55.8732 27.8076 56.061 27.785Z" fill="#FAEC03"/>
<path d="M46.3779 37.1842C45.6615 37.022 44.8917 36.853 44.073 36.6799C43.1939 36.494 42.4923 36.2733 41.9367 36.0333C40.3413 35.7493 38.8572 35.75 38.4384 36.6799C37.8237 38.0447 38.5238 35.1634 38.9506 33.5522L40.2313 33.2678C39.8237 33.8711 39.7729 35.0985 41.9367 36.0333C43.2683 36.2703 44.6775 36.7055 45.6097 36.9643C45.872 37.0371 46.129 37.1108 46.3779 37.1842C49.4268 37.8742 51.5083 38.4401 52.2687 38.6703C54.3176 39.239 58.7228 40.2057 59.9522 39.5233C61.1815 38.8409 59.4399 42.4615 58.4155 44.3571C58.5862 43.125 58.4155 40.5469 56.3666 40.092C54.3176 39.6371 50.732 38.5755 49.1953 38.1016C48.765 37.9424 47.6842 37.5692 46.3779 37.1842Z" fill="#FAEC03"/>
<path fill-rule="evenodd" clip-rule="evenodd" d="M39.2589 33.3108C39.2784 33.343 39.2768 33.3845 39.2548 33.415C39.0575 33.6893 38.9466 34.1037 39.1475 34.5589C39.3499 35.0174 39.8763 35.5353 40.9941 35.9901C42.131 36.1807 43.3213 36.4998 44.2485 36.7484C44.4607 36.8053 44.6592 36.8585 44.84 36.9057C45.1144 36.9771 45.3832 37.0496 45.6435 37.1216C48.8362 37.7999 51.0173 38.3564 51.8169 38.5836C52.8879 38.8627 54.5745 39.2392 56.153 39.4623C56.9426 39.5739 57.7031 39.6467 58.3451 39.6502C58.9914 39.6537 59.5026 39.5864 59.8043 39.4292C59.8892 39.385 59.966 39.3556 60.0346 39.3432C60.1032 39.3308 60.1697 39.3344 60.2276 39.3642C60.349 39.4268 60.3782 39.5712 60.3747 39.7114C60.3711 39.8586 60.3312 40.0455 60.2676 40.2567C60.2035 40.4694 60.1134 40.7125 60.0054 40.974C59.5737 42.0189 58.8469 43.3792 58.3096 44.3124C58.2879 44.3501 58.2436 44.3666 58.204 44.3516C58.1643 44.3367 58.1403 44.2946 58.1467 44.2511C58.2345 43.656 58.234 42.7355 57.9497 41.9125C57.6666 41.0933 57.1056 40.3768 56.0702 40.161C53.9202 39.7128 50.161 38.668 48.5513 38.2021L48.5469 38.2008L48.547 38.2007C48.0983 38.0448 46.9689 37.6787 45.6032 37.3008C44.8538 37.1416 44.0486 36.9756 43.1923 36.8057C42.272 36.623 41.5344 36.4058 40.9476 36.1687C40.1178 36.0306 39.3244 35.9633 38.6864 36.0411C38.0427 36.1196 37.5838 36.3421 37.385 36.7564C37.3049 36.9233 37.2414 37.0363 37.1919 37.0945C37.1791 37.1096 37.1639 37.125 37.1463 37.1368C37.1298 37.1478 37.1001 37.1629 37.0633 37.1563C37.0227 37.1491 36.9987 37.1207 36.9867 37.0984C36.9755 37.0775 36.9706 37.0551 36.968 37.0376C36.9583 36.9705 36.9686 36.8618 36.9877 36.7354C37.0075 36.6043 37.0391 36.4403 37.079 36.2548C37.2384 35.513 37.5342 34.4061 37.7579 33.6135C37.7672 33.5807 37.7931 33.5559 37.8253 33.5492L39.1669 33.2696C39.2028 33.2621 39.2394 33.2785 39.2589 33.3108ZM40.3542 35.8967C39.5912 35.4986 39.1744 35.06 38.9871 34.6358C38.7965 34.2039 38.8492 33.7994 39.0012 33.4918L37.9123 33.7188C37.6908 34.5062 37.4059 35.5758 37.2513 36.295C37.2118 36.4788 37.1811 36.6385 37.1621 36.764C37.1592 36.7835 37.1566 36.8019 37.1543 36.8192C37.1756 36.7789 37.1998 36.7309 37.2271 36.6742C37.467 36.1741 38.0048 35.939 38.6659 35.8583C39.1622 35.7978 39.7429 35.8222 40.3542 35.8967ZM48.0298 37.8352C48.272 37.9136 48.4661 37.9787 48.6007 38.0254C50.2119 38.4918 53.9629 39.5341 56.1048 39.9805C57.2158 40.2121 57.8175 40.9869 58.1158 41.8501C58.351 42.531 58.3996 43.2706 58.3643 43.8551C58.868 42.9579 59.469 41.8072 59.8432 40.9012C59.9498 40.6431 60.0375 40.4062 60.0991 40.2016C60.1612 39.9955 60.1952 39.828 60.1982 39.7066C60.2015 39.5782 60.1703 39.54 60.1492 39.5291C60.1358 39.5221 60.1105 39.5162 60.0648 39.5245C60.0192 39.5327 59.9594 39.5541 59.8833 39.5938C59.541 39.7721 58.9924 39.8377 58.3442 39.8342C57.6915 39.8307 56.9227 39.7567 56.1293 39.6446C54.5422 39.4204 52.8486 39.0421 51.7732 38.7619L51.7713 38.7614L51.7714 38.7614C51.1984 38.5986 49.9049 38.2638 48.0298 37.8352Z" fill="#FAEC03"/>
<path d="M38.4075 36.6105C37.8742 37.1631 37.2343 38.4895 38.9408 39.3738C41.074 40.4791 45.3403 44.6241 45.607 45.1768C45.8736 45.7294 52.0066 51.2561 52.8065 52.0851C53.4465 52.7483 52.1843 53.651 51.4733 54.0194C49.5178 50.7034 44.0071 43.0214 37.6075 38.8211C37.4872 38.7422 37.3706 38.665 37.2578 38.5897C36.815 40.5152 36.9403 44.0394 39.2075 48.2164C41.1274 51.7535 41.7851 57.7959 41.874 60.375H40.8075C40.5942 55.2905 39.2965 50.5192 38.6743 48.7691C38.2298 47.4795 37.181 44.0714 36.5411 40.7554C35.7412 36.6105 33.6079 37.9921 33.3412 37.9921C33.1279 37.9921 33.4301 37.4395 33.6079 37.1631C34.0307 37.0906 34.5699 37.0291 35.1076 37.017C32.7105 34.976 36.0059 35.7809 38.4075 36.6105Z" fill="#FAEC03"/>
<path fill-rule="evenodd" clip-rule="evenodd" d="M34.9495 37.0155C34.7394 36.8264 34.5818 36.6627 34.4716 36.5219C34.3364 36.3492 34.2591 36.1943 34.2655 36.0598C34.2688 35.988 34.2959 35.926 34.3431 35.8769C34.3885 35.8296 34.449 35.7979 34.5158 35.7764C34.6482 35.7339 34.8279 35.7248 35.0352 35.7374C35.8653 35.7876 37.2871 36.1971 38.4767 36.6087C38.5053 36.6186 38.5269 36.6431 38.5338 36.6736C38.5407 36.704 38.532 36.736 38.5106 36.7581C38.255 37.0234 37.9802 37.4691 37.9678 37.9448C37.9558 38.4085 38.1927 38.9291 39.0166 39.3566C40.0851 39.9111 41.6785 41.2215 43.0326 42.4555C43.7109 43.0737 44.3317 43.675 44.7997 44.1565C45.0337 44.3972 45.2301 44.6085 45.3766 44.7774C45.5201 44.9427 45.6236 45.076 45.6629 45.1575C45.6738 45.1802 45.7059 45.2259 45.7656 45.2969C45.8232 45.3655 45.9012 45.4516 45.9971 45.553C46.189 45.7559 46.4502 46.0174 46.7596 46.3193C47.3784 46.9229 48.1872 47.6853 49.013 48.4567C49.5136 48.9243 50.0209 49.3956 50.4958 49.8369C51.5856 50.8494 52.505 51.7036 52.7826 51.9917C52.9618 52.1777 53.0119 52.3885 52.9662 52.6015C52.9221 52.8071 52.7909 53.0066 52.6256 53.1874C52.2942 53.5503 51.7952 53.8713 51.4385 54.0564C51.3981 54.0774 51.349 54.0628 51.3254 54.0228C49.3902 50.7361 43.9365 43.1238 37.6096 38.965C37.5269 38.9106 37.446 38.8571 37.3668 38.8045C36.9671 40.717 37.1283 44.1309 39.3179 48.171C40.2763 49.9394 40.9171 52.3281 41.3296 54.5898C41.7423 56.853 41.9278 58.9972 41.972 60.2816C41.9728 60.306 41.964 60.3298 41.9476 60.3475C41.9312 60.3651 41.9087 60.375 41.8851 60.375H40.8279C40.7814 60.375 40.7431 60.337 40.741 60.2887C40.5301 55.2526 39.2462 50.5254 38.6319 48.795L38.6317 48.7942C38.1902 47.5113 37.1492 44.1238 36.5139 40.8266C36.1201 38.7827 35.4062 38.1408 34.7941 37.9819C34.4829 37.9012 34.1847 37.941 33.9442 38.0034C33.8251 38.0343 33.7215 38.0703 33.637 38.0997L33.6348 38.1005C33.593 38.115 33.5545 38.1285 33.5221 38.1381C33.4921 38.1471 33.4577 38.1561 33.4275 38.1561C33.382 38.1561 33.3348 38.1403 33.3024 38.0973C33.2731 38.0583 33.2672 38.0114 33.2679 37.974C33.2694 37.8997 33.2986 37.8088 33.3343 37.7218C33.4079 37.543 33.5301 37.332 33.6195 37.1928C33.6328 37.172 33.6539 37.1579 33.6776 37.1539C34.0407 37.0915 34.4893 37.0373 34.9495 37.0155ZM35.2088 37.0069C34.9271 36.765 34.7311 36.5672 34.6066 36.4081C34.475 36.2399 34.4362 36.1313 34.4392 36.0686C34.4404 36.0418 34.4493 36.0219 34.4663 36.0043C34.485 35.9849 34.5167 35.9651 34.5672 35.9489C34.6692 35.9161 34.8238 35.9054 35.0251 35.9176C35.8005 35.9645 37.1312 36.3396 38.293 36.7357C38.0482 37.0261 37.8064 37.4626 37.794 37.94C37.7796 38.4912 38.0713 39.0679 38.9389 39.5181C39.9848 40.0609 41.5629 41.3564 42.9178 42.5912C43.594 43.2073 44.2121 43.8061 44.6773 44.2847C44.91 44.5241 45.1039 44.7328 45.2474 44.8982C45.394 45.0672 45.4805 45.1825 45.5073 45.2382C45.5294 45.2841 45.5758 45.3456 45.6345 45.4155C45.6954 45.488 45.7759 45.5768 45.873 45.6795C46.0673 45.8849 46.3305 46.1484 46.6405 46.4508C47.2607 47.0559 48.0707 47.8194 48.8967 48.5909C49.4012 49.0622 49.9113 49.5361 50.3879 49.9789C51.4739 50.9879 52.3856 51.8349 52.6596 52.1194C52.7976 52.2625 52.829 52.4107 52.7965 52.5623C52.7624 52.7213 52.6558 52.8921 52.4994 53.0633C52.2084 53.3818 51.7717 53.6731 51.4317 53.8573C49.4545 50.5229 44.0167 42.9628 37.7027 38.8125C37.602 38.7463 37.5041 38.6815 37.4087 38.6179C37.4298 38.5303 37.452 38.4464 37.4753 38.3661C37.555 38.091 37.5335 37.8564 37.4234 37.6636C37.315 37.4738 37.1282 37.3377 36.9021 37.2406C36.4592 37.0504 35.8305 36.9952 35.2088 37.0069ZM37.2546 38.5147C37.2719 38.4457 37.29 38.3788 37.3087 38.3141C37.3775 38.0768 37.3541 37.8964 37.2738 37.7557C37.1917 37.612 37.0427 37.4963 36.8356 37.4074C36.4739 37.252 35.9632 37.1902 35.4234 37.1861C35.863 37.5441 36.4632 37.9826 37.2546 38.5147ZM37.211 38.7004C36.2867 38.0807 35.6139 37.5833 35.1482 37.1888C34.6463 37.202 34.1447 37.2584 33.7435 37.3256C33.6597 37.4591 33.5565 37.6413 33.4943 37.7926C33.4609 37.8738 33.4439 37.9356 33.442 37.9732C33.4503 37.9714 33.4608 37.9686 33.4739 37.9647C33.5019 37.9563 33.5366 37.9443 33.5795 37.9294L33.5832 37.9281C33.6672 37.8988 33.7762 37.8609 33.902 37.8283C34.1571 37.7621 34.4867 37.7161 34.8362 37.8068C35.5456 37.9909 36.2854 38.7205 36.6844 40.7912C37.3176 44.0771 38.3557 47.4555 38.7953 48.7331C39.411 50.4677 40.6883 55.169 40.9111 60.1945H41.7947C41.7452 58.9095 41.5598 56.823 41.1587 54.6234C40.7474 52.3682 40.1108 50.0022 39.1663 48.2595C36.9337 44.1402 36.7834 40.6493 37.211 38.7004Z" fill="#FAEC03"/>
<path d="M28.0301 60.3751C32.4604 48.0416 33.3629 39.629 33.2603 36.9644L32.9527 37.5353C32.7065 46.6712 28.9531 56.3781 27.1071 60.0896L28.0301 60.3751Z" fill="#FAEC03"/>
<path fill-rule="evenodd" clip-rule="evenodd" d="M33.1834 36.9665C33.2272 36.9755 33.2589 37.0117 33.2605 37.0542C33.3604 39.7126 32.4832 48.07 28.1917 60.3113C28.1746 60.3602 28.1191 60.3865 28.0678 60.3703L27.1742 60.087C27.1477 60.0787 27.1263 60.06 27.1152 60.0356C27.1041 60.0113 27.1045 59.9837 27.1162 59.9596C28.9003 56.2841 32.5289 46.6675 32.7667 37.6217C32.7671 37.608 32.7706 37.5946 32.777 37.5823L33.0749 37.0159C33.0949 36.9778 33.1396 36.9574 33.1834 36.9665ZM32.9621 37.6471C32.7204 46.6449 29.1442 56.1897 27.3398 59.9431L28.0367 60.164C32.1103 48.5173 33.0806 40.4185 33.0718 37.4385L32.9621 37.6471Z" fill="#FAEC03"/>
<path d="M16.2296 54.2144L14.7857 51.7501C16.1334 50.9286 19.233 48.8477 20.8502 47.0953C22.8716 44.9048 22.2941 45.1786 26.337 41.8929C27.9197 40.6067 29.0138 39.5302 29.741 38.7021C29.8644 38.5503 29.9807 38.4124 30.0924 38.2871C30.614 37.646 30.8759 37.1967 30.9576 36.9644L30.9362 37.5256C30.6569 37.706 30.3915 37.9513 30.0924 38.2871C29.9862 38.4175 29.8693 38.556 29.741 38.7021C28.1566 40.6503 25.3932 44.8902 16.2296 54.2144Z" fill="#FAEC03"/>
<path fill-rule="evenodd" clip-rule="evenodd" d="M30.9062 36.9658C30.9523 36.9737 30.9852 37.0124 30.9835 37.0567L30.9688 37.4433C31.2717 37.2753 31.549 37.204 31.8007 37.2083C32.089 37.2132 32.3338 37.3173 32.5354 37.472C32.9342 37.7782 33.1701 38.2873 33.2678 38.6578L33.0853 38.701C32.9925 38.3489 32.771 37.8824 32.417 37.6106C32.2421 37.4763 32.0366 37.3907 31.7973 37.3866C31.5572 37.3824 31.2731 37.4602 30.9417 37.6697L30.8998 37.6101L30.9417 37.6697C30.9349 37.674 30.9281 37.6783 30.9213 37.6827C30.655 37.8545 30.3989 38.0902 30.1061 38.4186C30.001 38.5478 29.8853 38.6847 29.7585 38.8291C29.4739 39.179 29.1505 39.6041 28.7573 40.1209C26.987 42.4478 23.8026 46.6337 16.378 54.186C16.3575 54.2069 16.3277 54.2172 16.2978 54.2137C16.2679 54.2102 16.2416 54.1934 16.227 54.1685L14.7976 51.7297C14.7735 51.6886 14.7872 51.6368 14.8289 51.6114C16.1622 50.799 19.221 48.7452 20.8126 47.021C21.2596 46.5369 21.5796 46.1727 21.8517 45.8629C22.1847 45.4838 22.446 45.1864 22.7805 44.8507C23.3919 44.2371 24.2531 43.4891 26.2541 41.8635C27.8168 40.5939 28.8957 39.5325 29.6117 38.7175C29.7336 38.5677 29.8488 38.4311 29.9597 38.3066C30.4736 37.675 30.7246 37.2405 30.8003 37.0253C30.8151 36.9833 30.8602 36.9579 30.9062 36.9658ZM30.6958 37.6169C30.7224 37.5978 30.7492 37.5792 30.776 37.5612L30.779 37.4826C30.7536 37.5252 30.7259 37.57 30.6958 37.6169ZM28.555 40.0819C27.9626 40.6536 27.2432 41.2947 26.3765 41.9988C24.3751 43.6249 23.521 44.3673 22.9173 44.9731C22.5847 45.3069 22.3298 45.5972 22.0017 45.9709C21.7307 46.2795 21.4099 46.6449 20.9542 47.1385C19.373 48.8513 16.3765 50.8734 15.0048 51.716L16.3286 53.9747C23.6124 46.5582 26.7813 42.4131 28.555 40.0819Z" fill="#FAEC03"/>
<path d="M25.3879 36.525C24.7002 36.8829 22.0869 37.867 17.1354 38.9405C12.1839 40.0141 10.2583 41.356 9.91445 41.8928L9.65656 40.0141C16.1038 39.2089 24.6142 36.525 25.13 36.2566C25.5426 36.0419 25.4738 36.3461 25.3879 36.525Z" fill="#FAEC03"/>
<path d="M30.3595 37.2555C30.337 37.3034 30.3124 37.3302 30.2878 37.3302L30.3595 37.2555C30.5738 36.8016 30.6069 34.4547 28.7404 35.1831L26.4194 36.2567C26.2475 36.1672 26.0584 35.9346 26.6773 35.7199C27.451 35.4515 28.4826 34.9147 28.7404 34.3779C28.9468 33.9485 28.4826 32.9465 28.2247 32.4992C27.0212 32.1414 23.4795 31.211 18.9406 30.3521C13.267 29.2786 12.2355 29.0102 8.625 27.1315L9.14078 26.0579C9.82849 26.9525 12.5965 29.0102 18.1669 30.0837C23.7374 31.1573 26.5054 31.7835 27.1931 31.9625C28.106 32.166 29.563 32.3387 29.7631 31.3795L29.5141 30.0837C24.7002 25.6106 15.0207 16.2886 14.8144 15.8592C14.6081 15.4298 15.588 14.9646 16.1038 14.7856C17.995 17.559 23.4279 24.4476 30.0299 29.8154L29.5141 30.0837C29.7632 30.654 29.8268 31.0741 29.7631 31.3795L30.8036 36.7934L30.3595 37.2555Z" fill="#FAEC03"/>
<path fill-rule="evenodd" clip-rule="evenodd" d="M15.288 14.7902C15.3251 14.7779 15.3659 14.7911 15.3886 14.8226C17.3661 17.573 23.0516 24.4102 29.959 29.7367C29.983 29.7552 29.9957 29.7846 29.9927 29.8145C29.9896 29.8445 29.9713 29.8708 29.944 29.8843L29.4797 30.1134C29.711 30.639 29.7784 31.047 29.7155 31.3601L30.8018 36.7215C30.8077 36.7503 30.7985 36.78 30.7775 36.8007L30.3222 37.2501C30.3095 37.2735 30.2944 37.296 30.276 37.3144C30.2543 37.336 30.2201 37.3597 30.1744 37.3597C30.1384 37.3597 30.106 37.3383 30.0923 37.3056C30.0785 37.2728 30.0861 37.235 30.1115 37.21L30.1756 37.1467C30.2207 37.046 30.2612 36.8381 30.2653 36.5827C30.2694 36.3194 30.2345 36.0198 30.1356 35.7585C30.0368 35.4972 29.8774 35.2822 29.6372 35.1712C29.3981 35.0608 29.0606 35.0453 28.5871 35.22L26.1582 36.2856C26.134 36.2962 26.1061 36.2956 26.0824 36.2839C26.0305 36.2583 25.9741 36.2211 25.9307 36.1729C25.8874 36.1247 25.8504 36.0577 25.858 35.9773C25.8656 35.8966 25.9159 35.825 25.997 35.7634C26.0778 35.7019 26.1975 35.6437 26.3642 35.5889C26.7646 35.4571 27.2316 35.2595 27.6307 35.0297C28.0344 34.7972 28.3515 34.5415 28.474 34.2996C28.5166 34.2154 28.5285 34.0935 28.51 33.9401C28.4916 33.7886 28.4448 33.617 28.3819 33.4415C28.2616 33.1061 28.0861 32.7673 27.9548 32.5471C26.6655 32.1857 22.9819 31.2707 18.2719 30.4254C15.3013 29.8923 13.5404 29.5582 12.0491 29.1233C10.5557 28.6878 9.33456 28.1518 7.44199 27.2178C7.4209 27.2074 7.40487 27.1891 7.39741 27.167C7.38996 27.145 7.39169 27.1209 7.40224 27.1001L7.94254 26.0335C7.95609 26.0067 7.98253 25.9886 8.01267 25.9854C8.04282 25.9823 8.07251 25.9945 8.09144 26.0179C8.44022 26.4482 9.33237 27.1746 10.8711 27.9273C12.4074 28.6789 14.5832 29.4542 17.4935 29.9862C23.3248 31.0521 26.2268 31.6745 26.9527 31.8535C27.4284 31.9541 28.0373 32.0449 28.55 31.9953C29.0596 31.9461 29.4353 31.7643 29.5339 31.3586L29.2826 30.1184C26.7606 27.8953 22.9774 24.4799 19.7942 21.5639C18.1979 20.1017 16.7523 18.7648 15.6921 17.7667C15.162 17.2677 14.728 16.853 14.4195 16.5496C14.2653 16.3979 14.142 16.2736 14.0535 16.1801C14.0094 16.1334 13.9733 16.0937 13.9462 16.0619C13.9211 16.0325 13.898 16.0031 13.8858 15.9792C13.8126 15.8346 13.8504 15.691 13.9361 15.5685C14.0201 15.4485 14.1564 15.3377 14.3085 15.2398C14.6145 15.0431 15.014 14.8803 15.288 14.7902ZM29.3781 29.9673L29.7388 29.7894C22.9087 24.4966 17.2903 17.757 15.2821 14.9776C15.0206 15.0681 14.6723 15.2154 14.4056 15.3869C14.2606 15.4801 14.1469 15.576 14.0824 15.6682C14.0196 15.7579 14.0101 15.8321 14.0448 15.9007L14.0449 15.9008C14.0451 15.9012 14.0475 15.9053 14.0542 15.9143C14.0609 15.9233 14.0701 15.9348 14.0823 15.949C14.1065 15.9775 14.1403 16.0146 14.1835 16.0603C14.2698 16.1515 14.3913 16.2742 14.545 16.4253C14.8521 16.7274 15.285 17.141 15.8148 17.6397C16.8741 18.637 18.3191 19.9733 19.9151 21.4353C23.0882 24.342 26.8573 27.7448 29.3781 29.9673ZM29.5962 31.6659C29.3926 31.9905 28.9955 32.1286 28.5673 32.17C28.0259 32.2223 27.3943 32.1264 26.9139 32.0248L26.911 32.0242L26.911 32.0241C26.5623 31.9381 25.6987 31.747 24.2332 31.4508C26.0395 31.858 27.3751 32.2011 28.0376 32.3879C28.0593 32.3941 28.0778 32.4081 28.0894 32.4272C28.2267 32.653 28.4187 33.0183 28.5495 33.383C28.6148 33.5652 28.666 33.7502 28.6865 33.9193C28.7067 34.0865 28.6984 34.249 28.633 34.3781C28.4853 34.6695 28.127 34.9471 27.7203 35.1813C27.3089 35.4181 26.8304 35.6204 26.4204 35.7553C26.2629 35.8071 26.1642 35.8578 26.1054 35.9024C26.0469 35.9469 26.0364 35.9787 26.035 35.9935C26.0336 36.0086 26.0394 36.0294 26.0636 36.0563C26.0801 36.0746 26.1022 36.0921 26.1267 36.1074L28.5174 35.0586C28.5183 35.0582 28.5193 35.0578 28.5202 35.0574C28.5209 35.0572 28.5216 35.0569 28.5223 35.0566C29.0251 34.8705 29.4158 34.8752 29.7126 35.0123C30.0088 35.1491 30.1933 35.4095 30.3021 35.6971C30.4109 35.9846 30.4474 36.3072 30.443 36.5854C30.4412 36.6998 30.4324 36.8092 30.4181 36.9073L30.6182 36.7099L29.5962 31.6659ZM15.4321 29.723C13.4954 29.2411 11.9622 28.6569 10.7921 28.0845C9.35363 27.3808 8.45959 26.6926 8.04135 26.2307L7.601 27.1C9.4452 28.0083 10.642 28.53 12.0995 28.955C13.0264 29.2254 14.0595 29.4568 15.4321 29.723ZM25.1843 36.3467C25.1697 36.4045 25.1456 36.4628 25.121 36.5113C25.1124 36.5283 25.0985 36.542 25.0813 36.5505C24.3502 36.9113 21.6034 37.8908 16.4148 38.9578C13.8261 39.4901 12.0315 40.0884 10.8411 40.6184C10.2459 40.8835 9.8027 41.131 9.48714 41.3442C9.1697 41.5585 8.98711 41.7343 8.90644 41.8537C8.886 41.884 8.84876 41.8987 8.81283 41.8906C8.77689 41.8826 8.74971 41.8535 8.7445 41.8175L8.47435 39.9509C8.47097 39.9275 8.47727 39.9038 8.49184 39.8851C8.5064 39.8663 8.528 39.8542 8.55175 39.8514C11.9229 39.4521 15.8356 38.5866 18.9747 37.787C20.5439 37.3873 21.9189 37.0043 22.9351 36.7046C23.4432 36.5548 23.8614 36.4259 24.1691 36.3262C24.4801 36.2254 24.6713 36.1567 24.7316 36.1269C24.8432 36.0719 24.9357 36.0428 25.0105 36.0444C25.0497 36.0452 25.0881 36.0545 25.121 36.0769C25.1544 36.0997 25.1751 36.1311 25.1864 36.1635C25.2073 36.2237 25.1981 36.2921 25.1843 36.3467ZM25.0067 36.2198C24.9763 36.2191 24.9157 36.2323 24.8111 36.2839C24.7364 36.3207 24.5307 36.3937 24.2245 36.4929C23.9148 36.5932 23.4951 36.7226 22.986 36.8728C21.9676 37.1731 20.5904 37.5567 19.0191 37.9569C15.9051 38.7501 12.0252 39.6095 8.66317 40.0148L8.89212 41.5967C9.00629 41.4799 9.16974 41.3459 9.38676 41.1993C9.71281 40.9791 10.1656 40.7267 10.768 40.4585C11.973 39.9219 13.7805 39.3203 16.3786 38.786C21.4997 37.7329 24.2243 36.768 24.9746 36.4068C24.9899 36.3733 25.0034 36.3375 25.0119 36.3041C25.0232 36.2593 25.0221 36.2322 25.0184 36.221C25.0162 36.2205 25.0125 36.2199 25.0067 36.2198Z" fill="#FAEC03"/>
<path d="M32.2063 29.6032C32.2063 30.6774 30.2964 30.2298 29.3414 29.8718C28.6469 31.304 27.6225 34.3295 29.081 34.974C30.9041 35.7796 29.6019 37.9279 29.8623 37.6594C30.1227 37.3908 30.6436 37.3908 30.9041 37.3908C31.1124 37.3908 31.3381 37.5698 31.425 37.6594L31.9458 38.1964L32.2063 37.3908L33.248 37.1223L36.6338 36.3167L38.1964 33.3627L37.4151 32.5571C36.9984 32.1275 37.2415 31.662 37.4151 31.483C37.6756 30.7669 37.9881 29.5495 37.1547 30.4088C36.3213 31.2682 35.592 30.9459 35.3316 30.6774C33.7689 29.6032 35.3316 28.7976 35.3316 28.2605C35.3316 27.8309 35.158 28.0815 35.0711 28.2605C34.9843 28.4396 34.7065 28.905 34.2898 29.3347C33.7689 29.8718 33.5085 29.6032 32.9876 29.6032C32.4667 29.6032 31.6854 26.6493 31.425 26.1122C31.2166 25.6826 31.1645 25.9332 31.1645 26.1122C31.5118 26.8283 32.2063 28.5291 32.2063 29.6032Z" fill="#FAEC03"/>
<path fill-rule="evenodd" clip-rule="evenodd" d="M31.2849 26.176C31.412 26.4405 31.5828 26.8312 31.7484 27.2722C31.7318 27.2225 31.7155 27.1735 31.6995 27.1256C31.6836 27.0779 31.668 27.0311 31.6528 26.9855C31.5358 26.6351 31.442 26.3608 31.3811 26.2349C31.3448 26.1599 31.3157 26.1114 31.2938 26.0816C31.2886 26.1095 31.2857 26.1428 31.2849 26.176ZM32.0072 28.0282C32.1795 28.5894 32.3086 29.1692 32.3086 29.6376C32.3086 29.7837 32.2761 29.9091 32.2135 30.0134C32.1509 30.1177 32.0614 30.1958 31.9551 30.2527C31.7452 30.3651 31.4638 30.3977 31.1654 30.3865C30.5955 30.3651 29.9223 30.1815 29.4508 30.0105C29.1179 30.7131 28.7211 31.7647 28.5701 32.7226C28.492 33.218 28.4809 33.681 28.5734 34.0554C28.6651 34.4269 28.8569 34.7066 29.1857 34.8524C29.6509 35.0586 29.9235 35.3544 30.069 35.682C30.2136 36.0074 30.2292 36.3558 30.1962 36.6629C30.165 36.9537 30.0895 37.2128 30.0337 37.3882C30.1533 37.3223 30.2892 37.2846 30.4186 37.2623C30.6175 37.228 30.8152 37.228 30.9428 37.228H30.9445C31.0683 37.228 31.1903 37.2806 31.2876 37.3391C31.3861 37.3983 31.4686 37.4692 31.516 37.5182L31.9316 37.9481L32.1445 37.2876C32.1536 37.2593 32.1761 37.2378 32.204 37.2306L33.2294 36.9655L36.5204 36.1801L38.0081 33.3595L37.2847 32.6114C37.0605 32.3795 37.0094 32.1306 37.0435 31.9136C37.0753 31.7117 37.1796 31.5434 37.2715 31.4432C37.3329 31.2725 37.3966 31.0746 37.4461 30.8856C37.4977 30.6887 37.5323 30.5072 37.5352 30.3769C37.5367 30.3106 37.5297 30.2673 37.5196 30.2434C37.515 30.2325 37.5112 30.2292 37.5106 30.2287C37.5103 30.2285 37.5102 30.2284 37.5099 30.2283C37.5095 30.2282 37.5082 30.2278 37.5055 30.2276C37.4915 30.2269 37.4561 30.2342 37.391 30.2781C37.3283 30.3204 37.2482 30.3896 37.1478 30.4934C36.725 30.9307 36.3198 31.0754 35.9794 31.0683C35.6466 31.0612 35.3859 30.9091 35.2428 30.7644C34.8552 30.4958 34.6479 30.2351 34.5681 29.9787C34.4871 29.718 34.5431 29.4785 34.645 29.2677C34.7291 29.0937 34.8487 28.9315 34.954 28.7888C34.9743 28.7612 34.9941 28.7344 35.0129 28.7084C35.0727 28.626 35.1234 28.5518 35.1593 28.4834C35.1954 28.4144 35.2121 28.3592 35.2121 28.3139C35.2121 28.2656 35.2097 28.2288 35.206 28.2013C35.1994 28.2097 35.1924 28.2193 35.1853 28.2298C35.1603 28.2668 35.1357 28.3114 35.1157 28.3529C35.0267 28.5369 34.7485 29.0036 34.3319 29.4345C34.0637 29.7118 33.8513 29.7909 33.6324 29.7909C33.5365 29.7909 33.4411 29.7756 33.347 29.7606C33.3392 29.7593 33.3314 29.758 33.3236 29.7568C33.22 29.7403 33.1135 29.7247 32.9924 29.7247C32.8908 29.7247 32.8014 29.6545 32.7274 29.5699C32.6504 29.4818 32.5737 29.359 32.4984 29.216C32.3475 28.9291 32.1938 28.5438 32.0496 28.1459C32.0354 28.1068 32.0213 28.0675 32.0072 28.0282ZM31.3886 25.9299C31.4329 25.9742 31.4797 26.0493 31.5318 26.157C31.5989 26.2959 31.697 26.5842 31.812 26.9287C31.8273 26.9745 31.8429 27.0213 31.8588 27.0691C31.964 27.3849 32.0826 27.741 32.2073 28.0848C32.351 28.4812 32.5013 28.857 32.6464 29.1327C32.7191 29.2709 32.7884 29.3798 32.8524 29.453C32.9194 29.5298 32.966 29.5505 32.9924 29.5505C33.1273 29.5505 33.2447 29.568 33.3492 29.5846C33.3561 29.5857 33.363 29.5868 33.3698 29.5879C33.4671 29.6035 33.55 29.6167 33.6324 29.6167C33.7974 29.6167 33.969 29.5634 34.2128 29.3113C34.6154 28.8949 34.8833 28.4439 34.965 28.275C34.9876 28.2282 35.0163 28.1757 35.0473 28.1299C35.0761 28.0874 35.1146 28.0387 35.1592 28.0129C35.1828 27.9992 35.2185 27.986 35.2591 27.9969C35.3009 28.0082 35.3273 28.0396 35.3426 28.0694C35.3707 28.1239 35.3805 28.2075 35.3805 28.3139C35.3805 28.401 35.3492 28.4864 35.3074 28.5664C35.2652 28.6469 35.2079 28.7299 35.1477 28.8129C35.1272 28.8412 35.1063 28.8695 35.0853 28.8981C34.9801 29.041 34.872 29.1877 34.7957 29.3456C34.7056 29.5319 34.6655 29.7227 34.7285 29.9253C34.7923 30.1307 34.967 30.3649 35.343 30.6241C35.3476 30.6273 35.3519 30.6309 35.3559 30.635C35.4701 30.7531 35.6931 30.888 35.9828 30.8941C36.2695 30.9001 36.6323 30.7802 37.0287 30.3702C37.1331 30.2622 37.2226 30.1837 37.2989 30.1322C37.3728 30.0824 37.4458 30.05 37.5142 30.0536C37.5507 30.0556 37.5848 30.0678 37.6137 30.091C37.6419 30.1135 37.661 30.1431 37.6739 30.1736C37.6988 30.2324 37.7053 30.306 37.7036 30.3809C37.7002 30.533 37.6612 30.731 37.6087 30.9311C37.5559 31.1329 37.4878 31.3429 37.4231 31.5214C37.4189 31.533 37.4123 31.5436 37.4038 31.5524C37.328 31.6308 37.2362 31.7738 37.2098 31.9416C37.1842 32.1041 37.2184 32.2965 37.4038 32.4882L38.1718 33.2824C38.1982 33.3097 38.204 33.3518 38.1862 33.3857L36.6502 36.2978C36.6387 36.3197 36.6187 36.3354 36.5952 36.341L33.2688 37.1349L33.2673 37.1352L32.2897 37.388L32.0483 38.1369C32.0391 38.1655 32.0162 38.1872 31.9878 38.1941C31.9594 38.201 31.9295 38.1923 31.9089 38.1709L31.3969 37.6414C31.359 37.6022 31.2879 37.5408 31.2029 37.4897C31.1168 37.4379 31.0254 37.4022 30.9445 37.4022C30.816 37.4022 30.6305 37.4024 30.4463 37.4341C30.2602 37.4662 30.0894 37.5284 29.9801 37.6414C29.9709 37.6509 29.9604 37.661 29.9493 37.6691C29.9437 37.6731 29.9354 37.6786 29.9249 37.6828C29.9153 37.6867 29.8955 37.693 29.8713 37.6875C29.8427 37.681 29.8228 37.6617 29.8122 37.6413C29.8033 37.6241 29.8016 37.6079 29.8011 37.5996C29.8002 37.5828 29.803 37.5666 29.8051 37.5566C29.8117 37.5243 29.8289 37.4717 29.8489 37.4102C29.854 37.3946 29.8593 37.3785 29.8646 37.362C29.9202 37.1896 29.9978 36.932 30.0288 36.6436C30.0598 36.3551 30.0434 36.0416 29.916 35.7547C29.7895 35.4702 29.5501 35.2034 29.1193 35.0125C28.7314 34.8405 28.5115 34.5091 28.4101 34.0985C28.3095 33.6909 28.324 33.2009 28.4038 32.6946C28.5635 31.6813 28.9897 30.5739 29.3332 29.8634C29.3523 29.8238 29.3971 29.8054 29.4373 29.8205C29.9028 29.9956 30.5974 30.1908 31.1715 30.2124C31.4598 30.2233 31.7063 30.1898 31.8777 30.098C31.9621 30.0529 32.0266 29.9945 32.0704 29.9216C32.1141 29.8488 32.1402 29.7563 32.1402 29.6376C32.1402 29.1233 31.9735 28.4508 31.7608 27.8128C31.5488 27.177 31.2943 26.5849 31.1251 26.2349C31.1193 26.2229 31.1162 26.2095 31.1162 26.196C31.1162 26.1483 31.1196 26.0937 31.1291 26.0449C31.1338 26.0205 31.1405 25.9951 31.1503 25.9719C31.1596 25.9497 31.1747 25.9225 31.1999 25.9022C31.2287 25.8791 31.2657 25.8692 31.3044 25.8784C31.3385 25.8866 31.3665 25.9077 31.3886 25.9299Z" fill="#FAEC03"/>
<path d="M28.8532 20.26C26.692 16.5096 25.2512 10.0568 24.801 7.29911C25.7015 6.8395 27.4484 5.97544 27.2323 6.19605C26.9622 6.47182 26.9622 9.78099 27.2323 11.4356C27.5025 13.0902 29.9338 22.4661 30.4741 23.0177C30.9064 23.4589 31.0144 24.3046 31.0144 24.6723C31.0144 24.8561 30.9604 25.0583 30.7443 24.3965C30.5281 23.7347 29.3935 21.3631 28.8532 20.26Z" fill="#FAEC03"/>
<path d="M7.7816 50.8699C7.51145 50.8699 6.701 50.5941 6.16071 49.7668H6.97115C7.33135 50.1345 7.99772 50.8699 7.7816 50.8699Z" fill="#FAEC03"/>
<path d="M55.8681 59.1428C55.4359 59.1428 55.3278 58.4074 55.3278 58.0397C55.9762 57.5985 56.4985 58.2236 56.6786 58.5913C56.5885 58.7751 56.3004 59.1428 55.8681 59.1428Z" fill="#FAEC03"/>
<path fill-rule="evenodd" clip-rule="evenodd" d="M27.3363 6.31741C27.3283 6.33024 27.3183 6.3414 27.3096 6.35029C27.3062 6.35376 27.2959 6.36828 27.2825 6.40422C27.2699 6.43809 27.2574 6.48363 27.2453 6.54102C27.2211 6.65565 27.2005 6.80941 27.1838 6.99458C27.1505 7.36439 27.1337 7.85092 27.1337 8.38188C27.1337 9.4445 27.2009 10.6756 27.3344 11.4931C27.4681 12.3121 28.1397 15.0556 28.8466 17.6674C29.1998 18.9723 29.5612 20.2421 29.8677 21.2195C30.0211 21.7083 30.1603 22.1229 30.2777 22.4317C30.3364 22.5862 30.3891 22.713 30.435 22.8088C30.4824 22.9079 30.518 22.9641 30.5401 22.9866C30.7714 23.2228 30.9113 23.5612 30.9938 23.8794C31.0766 24.199 31.1044 24.5091 31.1044 24.6995C31.1044 24.748 31.101 24.8036 31.09 24.8485C31.0848 24.8698 31.0757 24.8983 31.0575 24.9223C31.0478 24.9351 31.0331 24.9498 31.0121 24.9594C30.9897 24.9696 30.9656 24.9716 30.9428 24.9664C30.9025 24.9573 30.8747 24.9281 30.8577 24.9068C30.8385 24.8826 30.8196 24.8508 30.8006 24.8126C30.7623 24.7357 30.7169 24.6197 30.6626 24.4533C30.557 24.1299 30.2233 23.3798 29.8455 22.5672C29.4696 21.7585 29.0534 20.8949 28.7843 20.3455C27.7026 18.4672 26.8033 15.9177 26.1188 13.4981C25.4335 11.0761 24.9617 8.7779 24.7368 7.40051C24.7304 7.36136 24.7498 7.32253 24.7846 7.30477C25.2336 7.07557 25.8941 6.7453 26.4158 6.49968C26.6761 6.37712 26.904 6.27461 27.054 6.21643C27.1257 6.18866 27.1898 6.16677 27.2313 6.16186C27.2418 6.16063 27.2595 6.15923 27.2784 6.16375C27.2978 6.16837 27.3413 6.1864 27.3519 6.23923C27.3599 6.27869 27.3416 6.30892 27.3363 6.31741ZM24.9224 7.43666C25.1503 8.81429 25.6166 11.0712 26.2889 13.4479C26.9725 15.864 27.8674 18.3975 28.9386 20.2565C28.9396 20.2583 28.9405 20.2601 28.9414 20.2619C29.2108 20.8119 29.6284 21.6782 30.0056 22.4896C30.3816 23.2984 30.7209 24.0599 30.8307 24.3961C30.8681 24.5107 30.9 24.5971 30.9269 24.661C30.9234 24.4824 30.8957 24.2078 30.8225 23.9256C30.7435 23.6209 30.6142 23.318 30.4148 23.1145C30.3696 23.0684 30.3231 22.9871 30.2758 22.8882C30.2269 22.7859 30.1721 22.6539 30.1125 22.4971C29.9933 22.1833 29.8528 21.7648 29.699 21.2746C29.3915 20.2939 29.0294 19.0215 28.6759 17.7156C27.9695 15.1058 27.2951 12.3529 27.1596 11.5229C27.0239 10.6914 26.9565 9.44914 26.9565 8.38188C26.9565 7.8479 26.9734 7.35537 27.0074 6.97802C27.0244 6.78959 27.0458 6.62773 27.0721 6.50297C27.0805 6.46286 27.0897 6.42574 27.0996 6.39227C26.9555 6.44915 26.7399 6.54622 26.49 6.6639C25.9929 6.89793 25.3681 7.20971 24.9224 7.43666ZM27.2529 6.3414C27.2529 6.34141 27.2526 6.34145 27.252 6.34147ZM6.17119 49.6657C6.1866 49.6363 6.21661 49.618 6.24928 49.618H7.05688C7.08037 49.618 7.1029 49.6275 7.11951 49.6445C7.29988 49.8286 7.55793 50.1058 7.74454 50.3381C7.83679 50.453 7.91613 50.5624 7.95836 50.646C7.96918 50.6674 7.97862 50.6892 7.98518 50.7105C7.99145 50.7309 7.99686 50.7563 7.99458 50.7832C7.99211 50.8125 7.97993 50.8464 7.9492 50.8708C7.92094 50.8932 7.88868 50.8981 7.86449 50.8981C7.70959 50.8981 7.42532 50.8223 7.11482 50.6463C6.80146 50.4685 6.45369 50.1844 6.17558 49.7585C6.15746 49.7308 6.15577 49.6951 6.17119 49.6657ZM6.42139 49.7988C6.66247 50.1204 6.94432 50.3427 7.20085 50.4882C7.44403 50.6261 7.65934 50.6922 7.79157 50.7113C7.75593 50.6468 7.69134 50.5571 7.60756 50.4528C7.43484 50.2377 7.19665 49.9803 7.0201 49.7988H6.42139ZM56.1384 57.8486C56.3902 58.0068 56.5749 58.2697 56.6692 58.4623C56.6817 58.4877 56.6817 58.5177 56.6692 58.5432C56.6192 58.6453 56.5174 58.793 56.3702 58.9162C56.2223 59.04 56.0236 59.1428 55.7824 59.1428C55.5063 59.1428 55.3514 58.9062 55.2683 58.6708C55.183 58.4287 55.1554 58.1426 55.1554 57.9531C55.1554 57.9228 55.1702 57.8946 55.1949 57.8778C55.3696 57.7589 55.5407 57.7089 55.703 57.7115C55.8647 57.7141 56.0113 57.7687 56.1384 57.8486ZM55.3332 58.0024C55.466 57.921 55.5888 57.8905 55.7002 57.8923C55.8235 57.8943 55.9393 57.9359 56.0456 58.0026C56.2437 58.1271 56.3998 58.3341 56.4896 58.5019C56.444 58.5813 56.3653 58.6864 56.2579 58.7763C56.1322 58.8815 55.9719 58.9619 55.7824 58.9619C55.6278 58.9619 55.5135 58.8321 55.435 58.6095C55.3656 58.4128 55.3376 58.1766 55.3332 58.0024Z" fill="#FAEC03"/>
<path d="M41.8929 51.6544C42.4062 51.8981 43.1763 51.6544 42.9196 51.167C42.6629 50.6796 41.8929 51.167 41.8929 51.6544Z" fill="#FAEC03"/>
<path d="M48.0536 44.3435C48.0536 44.7334 47.1979 44.181 46.7701 43.8561L47.7969 43.125C47.8824 43.3687 48.0536 43.9536 48.0536 44.3435Z" fill="#FAEC03"/>
<path fill-rule="evenodd" clip-rule="evenodd" d="M47.746 43.1291C47.7712 43.1377 47.7911 43.1591 47.7995 43.1865C47.8831 43.4608 48.0536 44.129 48.0536 44.5821C48.0536 44.6514 48.0369 44.7176 47.991 44.7648C47.9457 44.8113 47.8868 44.8239 47.8327 44.8224C47.728 44.8196 47.5964 44.7629 47.4654 44.6895C47.198 44.5396 46.8807 44.2892 46.6708 44.1055C46.6509 44.0881 46.6395 44.0617 46.6399 44.0338C46.6403 44.006 46.6525 43.98 46.6728 43.9633L47.6722 43.143C47.6933 43.1256 47.7208 43.1205 47.746 43.1291ZM46.8572 44.0369C47.0576 44.2059 47.3196 44.4057 47.5404 44.5294C47.6697 44.6018 47.7723 44.6408 47.8368 44.6425C47.8673 44.6434 47.8766 44.6355 47.8785 44.6335C47.8798 44.6323 47.8892 44.6221 47.8892 44.5821C47.8892 44.2134 47.7649 43.6748 47.6782 43.363L46.8572 44.0369ZM42.7249 51.9269C42.8586 51.9486 42.9743 52.0367 43.048 52.1978C43.1197 52.3549 43.1238 52.504 43.0681 52.6315C43.0139 52.7555 42.9092 52.845 42.7882 52.9018C42.5475 53.0147 42.2099 53.014 41.9383 52.8654C41.9104 52.8501 41.8929 52.819 41.8929 52.7849C41.8929 52.47 42.1042 52.1708 42.3403 52.0232C42.4599 51.9485 42.5957 51.906 42.7249 51.9269ZM42.0604 52.7287C42.2795 52.8287 42.5407 52.8221 42.7234 52.7364C42.821 52.6906 42.8881 52.6263 42.9198 52.5538C42.95 52.4848 42.9541 52.3947 42.9009 52.2783C42.8496 52.166 42.7779 52.1174 42.7008 52.1049C42.6193 52.0917 42.5209 52.1175 42.4218 52.1795C42.2368 52.2952 42.0838 52.5139 42.0604 52.7287Z" fill="#FAEC03"/>
<path d="M62.2971 23.9772C62.2971 23.7081 62.2429 23.0623 62.0261 22.6318C62.6766 22.6318 62.8393 23.17 62.8393 23.439L62.2971 23.9772Z" fill="#FAEC03"/>
<path d="M61.2129 18.0573H60.1286V17.7882V17.25H60.9418L61.2129 18.0573Z" fill="#FAEC03"/>
<path d="M25.1604 18.3264C25.8109 18.5416 26.1543 18.0573 26.2446 17.7882C25.9736 17.7882 25.3772 17.8958 25.1604 18.3264Z" fill="#FAEC03"/>
<path d="M9.98036 64.0714H8.625L9.70929 62.9951L9.98036 64.0714Z" fill="#FAEC03"/>
<path fill-rule="evenodd" clip-rule="evenodd" d="M59.9597 17.3382C59.9597 17.2895 59.9995 17.25 60.0486 17.25H60.8591C60.8974 17.25 60.9313 17.2743 60.9434 17.3103L61.2136 18.1145C61.2227 18.1414 61.2181 18.171 61.2014 18.194C61.1847 18.217 61.1579 18.2306 61.1293 18.2306H60.0486C59.9995 18.2306 59.9597 18.1911 59.9597 18.1424V17.3382ZM60.1375 17.4264V18.0542H61.006L60.795 17.4264H60.1375ZM25.683 17.8993C25.904 17.8145 26.1312 17.7861 26.2758 17.7861C26.3043 17.7861 26.3312 17.7998 26.3479 17.8228C26.3646 17.8458 26.3691 17.8753 26.3601 17.9022C26.3106 18.0497 26.193 18.2544 25.9968 18.3949C25.7961 18.5386 25.5186 18.6105 25.1669 18.4942C25.1425 18.4861 25.1228 18.4679 25.1129 18.4443C25.103 18.4206 25.104 18.3939 25.1155 18.3711C25.2372 18.1296 25.4624 17.9841 25.683 17.8993ZM25.3322 18.3566C25.5741 18.4084 25.7574 18.3487 25.8928 18.2518C26.0025 18.1733 26.0834 18.0681 26.1364 17.9708C26.0219 17.9835 25.8828 18.0117 25.7472 18.0638C25.584 18.1265 25.4331 18.2207 25.3322 18.3566ZM61.8642 22.6533C61.8804 22.6273 61.909 22.6115 61.9398 22.6115C62.293 22.6115 62.5224 22.7595 62.6604 22.9497C62.7952 23.1355 62.8393 23.3558 62.8393 23.5039C62.8393 23.5273 62.8299 23.5497 62.8133 23.5663L62.2729 24.1024C62.2475 24.1277 62.2092 24.1352 62.176 24.1216C62.1428 24.1079 62.1211 24.0757 62.1211 24.0401C62.1211 23.9107 62.108 23.6876 62.0682 23.4443C62.0284 23.2002 61.9626 22.9421 61.8603 22.7391C61.8466 22.7118 61.848 22.6793 61.8642 22.6533ZM62.0811 22.798C62.1592 22.9938 62.2106 23.2134 62.2437 23.4161C62.2686 23.5682 62.2835 23.7131 62.2915 23.8345L62.6605 23.4684C62.6539 23.35 62.6143 23.1881 62.5161 23.0528C62.429 22.9327 62.2932 22.8297 62.0811 22.798ZM9.81836 62.8259C9.84922 62.8344 9.8731 62.8587 9.88087 62.8895L10.151 63.9618C10.1577 63.9882 10.1517 64.0161 10.1349 64.0375C10.118 64.0589 10.0922 64.0714 10.0648 64.0714H8.7139C8.67794 64.0714 8.64553 64.0499 8.63177 64.017C8.61801 63.984 8.62562 63.9461 8.65104 63.9209L9.73177 62.8486C9.75442 62.8261 9.78749 62.8174 9.81836 62.8259ZM8.92851 63.895H9.95096L9.74647 63.0835L8.92851 63.895Z" fill="#FAEC03"/>
<path d="M41.8929 34.5001C41.8929 37.9025 38.8588 40.6608 35.1161 40.6608C31.3734 40.6608 28.3393 37.9025 28.3393 34.5001C28.3393 31.0976 31.3734 28.3394 35.1161 28.3394C38.8588 28.3394 41.8929 31.0976 41.8929 34.5001Z" fill="#FAEC03"/>
</svg>
