<svg width="160" height="79" viewBox="0 0 160 79" fill="none" xmlns="http://www.w3.org/2000/svg">
<path d="M78.2533 51.7344C78.2533 62.5455 69.4945 71.3096 58.69 71.3096C47.8854 71.3096 39.1266 62.5455 39.1266 51.7344C39.1266 40.9233 47.8854 32.1592 58.69 32.1592C69.4945 32.1592 78.2533 40.9233 78.2533 51.7344Z" fill="#191814"/>
<path d="M65.4185 35.9715C66.4888 36.8878 68.7516 38.7509 69.2409 38.8731C69.8525 39.0258 70.0054 39.484 70.1583 39.484C70.3112 39.484 70.7698 39.7894 71.2285 40.553C71.6872 41.3166 72.2988 42.2329 72.4517 42.8438C72.6046 43.4546 72.9104 43.7601 73.0633 43.9128C73.2162 44.0655 73.6749 43.9128 73.6749 44.0655C73.6749 44.2182 73.522 44.6764 73.6749 44.9818C73.7972 45.2262 73.8277 45.5927 73.8277 45.7454C73.9806 45.8981 74.2864 46.3257 74.2864 46.8144C74.2864 47.4253 74.1335 47.7307 74.2864 48.0362C74.4393 48.3416 75.0509 50.3269 74.5922 53.534C74.2253 56.0997 73.522 57.861 73.2162 58.421L71.8401 60.559C71.1776 61.3226 69.8219 62.8803 69.6996 63.0025C69.5467 63.1552 67.8648 65.446 67.7119 65.446C67.559 65.446 66.4888 65.446 66.183 65.5987C65.8772 65.7514 64.654 67.2786 64.3482 67.2786H61.2903L60.9845 66.8204C61.3413 66.6168 62.0548 66.1485 62.0548 65.9041C62.0548 65.5987 63.278 65.446 63.4309 65.446C63.5838 65.446 66.3359 66.3623 68.1706 63.1552L68.3235 61.7807L69.088 61.3226C69.2409 61.5262 69.7913 61.7197 70.7698 60.8644C71.7484 60.0092 72.1969 59.3882 72.2988 59.1845C72.1459 58.6755 71.9318 57.5657 72.2988 57.1992C72.7575 56.7411 72.7575 55.672 72.7575 55.5193C72.7575 55.3972 72.8594 54.8575 72.9104 54.603C73.2162 54.6539 73.8583 54.5419 73.9806 53.6867C74.1335 52.6177 73.8277 48.647 73.6749 48.4943C73.522 48.3416 73.0633 48.0362 72.7575 48.0362C72.5129 48.0362 72.5536 47.6289 72.6046 47.4253C72.8594 47.2726 73.3385 46.7839 73.2162 46.0508C73.0633 45.1345 71.3814 41.7747 70.4641 41.4693C69.7302 41.225 69.2409 41.1639 69.088 41.1639L68.3235 40.553C68.4254 40.0949 68.2318 38.9953 66.6417 38.2622C64.9122 37.4649 64.2245 36.7832 63.2692 37.1227C62.4698 38.3163 61.0971 40.809 60.4529 43.4863C60.3681 43.929 60.2889 44.3326 60.2201 44.6764C60.2792 44.2781 60.3582 43.8802 60.4529 43.4863C60.8645 41.3388 61.4097 38.2712 61.5577 36.6522C61.328 36.3724 61.0161 36.003 60.8316 35.8188C60.587 35.5744 60.4239 35.2079 60.373 35.0552C61.1374 34.9534 62.7887 34.8414 63.278 35.2079C63.7672 35.5744 64.9089 35.8697 65.4185 35.9715Z" fill="#FAEC03"/>
<path d="M60.0672 67.7367C59.2008 67.8385 57.1927 67.92 56.0919 67.4313C56.0409 67.3804 55.8167 67.3397 55.3274 67.584C54.8382 67.8284 54.6139 67.584 54.5629 67.4313C54.41 67.2277 53.8596 66.7899 52.8811 66.6677C51.6579 66.515 50.5877 66.2096 49.8232 65.5987C49.8232 65.2933 49.548 64.5297 48.4471 63.9188C47.3463 63.3079 46.9691 62.1371 46.9182 61.628C46.7143 61.5771 46.2454 61.3837 46.0008 61.0172C45.695 60.559 45.5421 58.421 45.2363 58.1155C44.9305 57.8101 44.319 56.5884 44.1661 56.1302C44.0132 55.672 43.5545 54.9085 43.4016 54.4503C43.2487 53.9922 43.0958 53.8394 42.9429 53.0758C42.79 52.3123 42.6371 51.396 42.6371 51.0905C42.6371 50.7851 42.4842 48.1889 43.0958 47.4253C43.5444 46.8652 43.7702 46.0911 43.844 45.6916C43.8484 45.6002 43.854 45.5152 43.8603 45.44C43.8913 45.2232 44.0204 44.739 44.3095 44.0629C44.5141 43.4057 44.7099 42.8438 44.7777 42.8438C44.9306 42.8438 44.7777 42.0802 46.9182 40.4003C47.5019 39.9422 47.9719 39.5068 48.353 39.1128C48.3979 39.06 48.4478 39.0079 48.5013 38.9569C49.4077 37.9873 49.7649 37.2987 49.9761 37.1932C50.2819 37.0405 52.4224 36.7351 52.8811 36.4296C53.3398 36.1242 54.7159 35.666 54.8688 35.5133C55.0217 35.3606 55.7861 35.0552 55.939 35.0552C56.0919 35.0552 57.7738 35.2079 57.9267 35.2079C58.0796 35.2079 59.4556 35.3606 59.7614 35.3606C60.006 35.3606 60.0672 35.5642 60.0672 35.666L58.9969 35.8188L56.7035 35.9715C56.0919 35.9206 54.8688 36.002 54.8688 36.7351C54.8688 37.4681 54.3591 37.2441 54.1043 37.0405C53.4927 36.9387 52.1166 36.8267 51.5051 37.1932C50.8935 37.5597 49.9251 38.0586 49.5174 38.2622C49.2567 38.3925 48.8166 38.656 48.5013 38.9569C48.4534 39.0081 48.404 39.06 48.353 39.1128C48.2489 39.2352 48.1722 39.3609 48.1414 39.484C48.0191 39.9727 48.0904 40.6039 48.1414 40.8584L47.6827 41.1639C47.173 41.0112 45.9397 41.0722 45.0835 42.5383C44.7481 43.1126 44.4956 43.6275 44.3095 44.0629C44.1446 44.5924 43.974 45.1838 43.8603 45.5927C43.8561 45.6223 43.8506 45.6554 43.844 45.6916C43.8125 46.3422 43.8443 47.3182 44.1661 47.4253C43.6564 47.4762 42.6982 48.3111 42.9429 51.2432C43.1876 54.1754 43.7584 54.8066 44.0132 54.7557L44.4719 54.9085L44.6248 55.3666C44.5228 55.723 44.3801 56.5273 44.6248 56.8938C44.9306 57.3519 45.7632 58.814 45.695 59.1846C45.6269 59.5551 46.3066 61.7807 47.6827 61.4753C48.7835 61.231 48.8549 61.9844 48.753 62.3916C48.702 62.748 48.6306 63.5217 48.753 63.7661C48.9058 64.0715 49.6703 64.8351 49.8232 65.1405C49.9761 65.446 52.1166 66.2096 52.8811 66.2096C53.4927 66.2096 54.563 65.8023 55.0217 65.5987C55.4803 66.2096 56.7647 67.3702 58.2325 67.1259C59.7003 66.8815 60.5259 66.9222 60.5259 66.9731L60.0672 67.7367Z" fill="#FAEC03"/>
<path fill-rule="evenodd" clip-rule="evenodd" d="M60.4361 35.1466C60.5016 35.3164 60.6508 35.6214 60.8604 35.8308C61.0259 35.9961 61.2917 36.3077 61.5094 36.5706C61.5273 36.3535 61.5369 36.1674 61.5369 36.0185C61.5369 35.8331 61.5562 35.6897 61.5934 35.584C61.6307 35.478 61.6881 35.4048 61.767 35.3702C61.8453 35.336 61.9336 35.3446 62.0224 35.3773C62.1114 35.4102 62.2065 35.4692 62.3038 35.5451C62.6917 35.8473 63.1526 36.4469 63.4578 36.9042L63.4769 36.9328L63.457 36.9609C63.4311 36.9975 63.4042 37.036 63.3766 37.0762C63.8127 36.962 64.204 37.0558 64.667 37.2635C64.8984 37.3673 65.1497 37.5005 65.4342 37.6512C65.463 37.6665 65.4921 37.6819 65.5216 37.6975C65.843 37.8677 66.2081 38.0586 66.6379 38.2568C68.2076 38.9805 68.4407 40.0673 68.3487 40.566L69.0734 41.1452C69.25 41.1495 69.7343 41.216 70.4432 41.452C70.5672 41.4933 70.6996 41.5844 70.8354 41.7089C70.9718 41.8339 71.1149 41.9956 71.26 42.1825C71.5502 42.5563 71.8517 43.0345 72.1287 43.5305C72.4057 44.0268 72.6589 44.5422 72.8525 44.991C73.0455 45.4385 73.1811 45.824 73.2203 46.0589C73.344 46.8001 72.8734 47.299 72.6051 47.4691C72.5825 47.5668 72.5645 47.7015 72.5767 47.8125C72.5833 47.8721 72.598 47.9193 72.6205 47.9505C72.641 47.979 72.6692 47.9963 72.7136 47.9963C72.8794 47.9963 73.0793 48.0779 73.2523 48.1739C73.4267 48.2706 73.5832 48.3874 73.6636 48.4677C73.6755 48.4797 73.6835 48.4957 73.689 48.5089C73.6952 48.5236 73.701 48.5412 73.7066 48.5611C73.7178 48.6009 73.7291 48.6535 73.7405 48.7166C73.7634 48.8431 73.7874 49.0155 73.8113 49.2205C73.859 49.6308 73.9067 50.174 73.9449 50.7455C74.021 51.8861 74.0597 53.1477 73.9826 53.6868C73.9197 54.1263 73.7216 54.3814 73.4939 54.5181C73.2899 54.6407 73.0666 54.6655 72.906 54.6491C72.8812 54.7745 72.8482 54.9478 72.8201 55.1081C72.8043 55.1986 72.7901 55.2846 72.7799 55.3554C72.7695 55.4275 72.7637 55.4804 72.7637 55.5067C72.7637 55.5836 72.7637 55.8915 72.7059 56.2382C72.6485 56.5824 72.5322 56.9767 72.2918 57.2169C72.2107 57.2979 72.1582 57.424 72.1299 57.5823C72.1019 57.7399 72.0988 57.9238 72.112 58.1144C72.1384 58.4955 72.2289 58.8952 72.3044 59.1464L72.3101 59.1654L72.3012 59.1832C72.1953 59.3947 71.7426 60.019 70.7652 60.8732C70.2732 61.3032 69.883 61.4749 69.5911 61.5095C69.3276 61.5408 69.1438 61.4599 69.045 61.357L68.3406 61.7792L68.1897 63.1352L68.1846 63.1442C67.2626 64.7558 66.1068 65.3355 65.1589 65.5095C64.686 65.5962 64.2664 65.5817 63.9556 65.5456C63.8002 65.5276 63.672 65.5041 63.5779 65.4852C63.5492 65.4794 63.5229 65.4739 63.5004 65.4692C63.4868 65.4664 63.4746 65.4638 63.4641 65.4617C63.4497 65.4587 63.4383 65.4565 63.4295 65.455C63.4252 65.4543 63.4218 65.4538 63.4192 65.4535C63.4169 65.4532 63.416 65.4532 63.416 65.4532M63.416 65.4532C63.3449 65.4532 63.0062 65.4904 62.6845 65.566C62.5238 65.6038 62.3709 65.6504 62.2593 65.705C62.2033 65.7324 62.1605 65.7605 62.1323 65.7884C62.1042 65.8162 62.0945 65.8398 62.0945 65.8599C62.0945 65.902 62.0793 65.9445 62.057 65.9849C62.0344 66.0257 62.0027 66.0678 61.9651 66.1101C61.8899 66.1946 61.7872 66.2843 61.675 66.3714C61.469 66.5313 61.2258 66.6865 61.0487 66.79L61.3091 67.18H64.3306C64.34 67.18 64.3554 67.1769 64.378 67.167C64.4001 67.1574 64.4263 67.1427 64.4564 67.1227C64.5166 67.0827 64.5884 67.0245 64.6686 66.9526C64.8289 66.8089 65.0182 66.6151 65.2088 66.4153C65.2689 66.3522 65.3291 66.2886 65.3886 66.2257C65.5169 66.0901 65.6414 65.9586 65.7524 65.8461C65.8336 65.7637 65.9083 65.6909 65.9726 65.6336C66.0358 65.5773 66.0925 65.5328 66.1372 65.5105C66.2211 65.4686 66.352 65.4392 66.4976 65.4178C66.6449 65.3961 66.8132 65.3817 66.9759 65.3721C67.2932 65.3535 67.5921 65.353 67.6776 65.353C67.6777 65.353 67.6776 65.353 67.6776 65.353C67.6819 65.3506 67.6886 65.346 67.6979 65.3385C67.7163 65.3236 67.7405 65.3007 67.7704 65.2698C67.8298 65.2084 67.9075 65.1197 67.9978 65.0118C68.1781 64.796 68.4063 64.5064 68.6348 64.2115C68.7937 64.0065 68.9525 63.7993 69.0954 63.6129C69.1581 63.5311 69.2177 63.4533 69.273 63.3814C69.3635 63.2637 69.4422 63.1617 69.5032 63.0845C69.5631 63.0085 69.6081 62.9533 69.6298 62.9316C69.7499 62.8117 71.0962 61.2646 71.7588 60.5009L73.1277 58.3739C73.4296 57.8202 74.1282 56.0711 74.493 53.5204C74.7209 51.9263 74.6828 50.6365 74.569 49.7082C74.455 48.7782 74.2654 48.2137 74.1929 48.0688C74.11 47.9032 74.1115 47.7388 74.1307 47.5466C74.1353 47.5004 74.141 47.4525 74.1469 47.4023C74.1659 47.242 74.1876 47.0577 74.1876 46.8284C74.1876 46.3596 73.8925 45.9453 73.7451 45.798L73.7304 45.7833V45.7626C73.7304 45.6891 73.723 45.5624 73.7005 45.4242C73.678 45.2856 73.6409 45.139 73.5832 45.0237C73.5002 44.8579 73.5018 44.6552 73.5211 44.482C73.5303 44.3994 73.5438 44.3214 73.5552 44.2551L73.5572 44.2435C73.5695 44.1726 73.5779 44.1206 73.5779 44.0878C73.5779 44.0838 73.5774 44.0834 73.5763 44.0825L73.576 44.0822C73.5723 44.0792 73.5632 44.0743 73.5439 44.0702C73.505 44.062 73.4492 44.0618 73.3804 44.0618H73.3785C73.3131 44.0618 73.2386 44.0618 73.1706 44.0517C73.1028 44.0417 73.0325 44.0205 72.983 43.971C72.8282 43.8164 72.5158 43.504 72.3601 42.882C72.2857 42.5848 72.0984 42.2094 71.8698 41.8099C71.7234 41.5538 71.5617 41.2907 71.4039 41.034C71.3157 40.8904 71.2288 40.7489 71.1464 40.6118C70.92 40.2348 70.6944 39.9724 70.5081 39.8049C70.4149 39.7211 70.332 39.6616 70.2645 39.6233C70.195 39.584 70.1472 39.5704 70.1225 39.5704C70.0905 39.5704 70.062 39.5583 70.0373 39.5425C70.0128 39.5268 69.989 39.5054 69.9656 39.4819C69.9443 39.4607 69.9216 39.4361 69.8978 39.4101L69.89 39.4016C69.8629 39.3722 69.8338 39.3408 69.8012 39.3083C69.6719 39.1791 69.489 39.0331 69.1958 38.9599C69.1274 38.9428 69.0335 38.8972 68.9227 38.8327C68.8107 38.7676 68.6772 38.6807 68.5283 38.5775C68.2304 38.3712 67.8684 38.0983 67.489 37.8012C66.7347 37.2105 65.909 36.5221 65.3748 36.065C65.1183 36.0132 64.7118 35.9149 64.3075 35.7845C63.8981 35.6524 63.4846 35.4854 63.2336 35.2973C63.1216 35.2134 62.9372 35.1534 62.7043 35.1144C62.473 35.0757 62.2006 35.0586 61.9181 35.0561C61.383 35.0513 60.8168 35.0987 60.4361 35.1466M67.675 65.3543C67.675 65.3543 67.6751 65.3543 67.6753 65.3542ZM63.2873 37.2079C63.7395 37.0522 64.1312 37.133 64.6259 37.3549C64.8541 37.4573 65.1024 37.5888 65.3877 37.74C65.4163 37.7552 65.4453 37.7705 65.4746 37.7861C65.7964 37.9564 66.1635 38.1484 66.5958 38.3477C68.1632 39.0703 68.3402 40.1451 68.2445 40.5752L68.2377 40.6056L69.038 41.2451H69.0555C69.2005 41.2451 69.6826 41.3044 70.4115 41.5471C70.516 41.5819 70.6361 41.6621 70.7676 41.7827C70.8985 41.9026 71.0377 42.0597 71.1807 42.2439C71.4668 42.6123 71.7655 43.0858 72.0411 43.5793C72.3165 44.0727 72.5682 44.5851 72.7604 45.0307C72.9532 45.4777 73.0844 45.8535 73.1214 46.0753C73.2387 46.7787 72.7789 47.2485 72.5354 47.3944L72.5176 47.4051L72.5125 47.4252C72.4864 47.5296 72.4621 47.6884 72.477 47.8235C72.4844 47.8908 72.5021 47.9577 72.539 48.009C72.5779 48.063 72.636 48.0965 72.7136 48.0965C72.8526 48.0965 73.0337 48.1671 73.2036 48.2614C73.3715 48.3546 73.5192 48.4655 73.5916 48.5375C73.5919 48.538 73.5937 48.5409 73.5966 48.5478C73.6005 48.5571 73.605 48.5704 73.61 48.5882C73.62 48.6236 73.6307 48.6727 73.6419 48.7345C73.6642 48.8579 73.6879 49.0279 73.7116 49.2321C73.7592 49.6402 73.8067 50.1818 73.8448 50.7522C73.9211 51.8953 73.9586 53.1459 73.8833 53.6726C73.8242 54.0857 73.6413 54.3127 73.4422 54.4323C73.2408 54.5532 73.0171 54.5676 72.8742 54.5438L72.8263 54.5358L72.8168 54.5834C72.7914 54.7105 72.7532 54.9089 72.7213 55.0908C72.7054 55.1818 72.691 55.2689 72.6806 55.3411C72.6704 55.4121 72.6634 55.4721 72.6634 55.5067C72.6634 55.5822 72.6634 55.8833 72.607 56.2217C72.5501 56.5626 72.4377 56.9295 72.2209 57.1461C72.1191 57.2477 72.0611 57.397 72.0312 57.5648C72.0012 57.7333 71.9985 57.9262 72.012 58.1213C72.0383 58.5019 72.1267 58.8985 72.2025 59.1557C72.089 59.3674 71.6455 59.9707 70.6991 60.7978C70.2156 61.2204 69.8437 61.3787 69.5793 61.41C69.3155 61.4413 69.1592 61.3469 69.0957 61.2622L69.0685 61.2261L68.2464 61.7189L68.0923 63.1035C67.1861 64.6823 66.0582 65.2426 65.1408 65.4109C64.6801 65.4954 64.2709 65.4814 63.9672 65.4461C63.8154 65.4285 63.6901 65.4056 63.5977 65.387C63.5689 65.3812 63.5439 65.376 63.522 65.3714C63.5083 65.3685 63.4958 65.3659 63.4842 65.3635C63.481 65.3628 63.4778 65.3622 63.4748 65.3616C63.464 65.3594 63.4544 65.3576 63.4462 65.3562C63.4424 65.3556 63.4384 65.355 63.4345 65.3544C63.4282 65.3536 63.4218 65.353 63.4161 65.353C63.3345 65.353 62.9875 65.3919 62.6615 65.4685C62.4984 65.5069 62.3369 65.5555 62.2151 65.615C62.1544 65.6448 62.1008 65.6785 62.0617 65.7172C62.0225 65.756 61.9942 65.8038 61.9942 65.8599C61.9942 65.8786 61.9871 65.904 61.9691 65.9365C61.9514 65.9686 61.9248 66.0046 61.8901 66.0435C61.8208 66.1214 61.7235 66.2068 61.6134 66.2923C61.3936 66.463 61.129 66.6291 60.9525 66.7299L60.9058 66.7565L61.2554 67.2802H64.3306C64.3593 67.2802 64.3891 67.2715 64.418 67.2589C64.4474 67.2462 64.4789 67.2281 64.512 67.2061C64.578 67.1622 64.6539 67.1004 64.7356 67.0271C64.8992 66.8806 65.0909 66.6842 65.2814 66.4844C65.3421 66.4207 65.4027 66.3566 65.4623 66.2937C65.5903 66.1585 65.7136 66.0281 65.8238 65.9164C65.9045 65.8346 65.9774 65.7636 66.0394 65.7084C66.1024 65.6523 66.1504 65.6159 66.182 65.6002C66.2505 65.566 66.3673 65.5382 66.5122 65.5169C66.6555 65.4958 66.8206 65.4816 66.9818 65.4721C67.3041 65.4532 67.6077 65.4532 67.6838 65.4532C67.702 65.4532 67.7176 65.4455 67.7272 65.4401C67.7382 65.4339 67.7496 65.4256 67.7611 65.4163C67.7841 65.3977 67.8116 65.3714 67.8425 65.3395C67.9045 65.2754 67.984 65.1845 68.0747 65.076C68.2564 64.8587 68.4855 64.5679 68.7142 64.2728C68.8731 64.0678 69.032 63.8604 69.1749 63.6739C69.2377 63.5921 69.2973 63.5142 69.3525 63.4424C69.443 63.3247 69.5214 63.2232 69.582 63.1464C69.6435 63.0684 69.6842 63.0189 69.7007 63.0025C69.8243 62.879 71.1778 61.3236 71.837 60.5638L71.8393 60.5611L73.214 58.4251L73.2149 58.4235C73.5231 57.859 74.2258 56.097 74.5922 53.5345C74.8215 51.9313 74.7834 50.6328 74.6686 49.696C74.554 48.761 74.3625 48.1836 74.2826 48.024C74.2131 47.8851 74.2116 47.745 74.2305 47.5565C74.2349 47.5128 74.2404 47.4666 74.2462 47.4175C74.2652 47.2564 74.2879 47.0642 74.2879 46.8284C74.2879 46.3378 73.9919 45.9107 73.8305 45.742C73.8293 45.6619 73.8209 45.5399 73.7995 45.4082C73.7763 45.2652 73.7372 45.1073 73.6729 44.9789C73.6036 44.8403 73.6019 44.6624 73.6208 44.493C73.6296 44.4137 73.6426 44.3383 73.6541 44.2717L73.6561 44.2605C73.6677 44.1933 73.6782 44.1312 73.6782 44.0878C73.6782 44.0541 73.6646 44.0257 73.6403 44.0054C73.6184 43.987 73.5906 43.9777 73.5646 43.9722C73.5142 43.9616 73.448 43.9616 73.3847 43.9616H73.3804C73.3129 43.9616 73.2453 43.9615 73.1853 43.9526C73.1246 43.9436 73.0805 43.9268 73.0539 43.9002L73.0536 43.8998C72.9034 43.7499 72.6064 43.4532 72.4574 42.8577C72.3794 42.5458 72.1856 42.1599 71.9569 41.7602C71.8098 41.5029 71.6464 41.237 71.488 40.9793C71.4001 40.8361 71.3136 40.6955 71.2324 40.5603C71.0016 40.176 70.7699 39.9055 70.5752 39.7304C70.4779 39.643 70.3892 39.5788 70.3139 39.5362C70.2404 39.4946 70.1739 39.4702 70.1225 39.4702C70.1164 39.4702 70.1067 39.4679 70.0915 39.4582C70.0761 39.4483 70.0583 39.4329 70.0365 39.4111C70.0168 39.3915 69.9957 39.3685 69.9715 39.3421L69.9638 39.3338C69.9367 39.3043 69.9063 39.2715 69.8721 39.2374C69.7348 39.1002 69.5366 38.9417 69.2201 38.8627C69.1666 38.8493 69.0833 38.8102 68.9732 38.7462C68.8643 38.6829 68.7332 38.5976 68.5854 38.4952C68.2899 38.2904 67.9297 38.019 67.5509 37.7223C66.7933 37.1291 65.9632 36.4369 65.4301 35.9804L65.4202 35.9719L65.4073 35.9694C65.1549 35.9189 64.7453 35.8204 64.3384 35.6891C63.9298 35.5573 63.5304 35.3944 63.2937 35.2171C63.1618 35.1183 62.9576 35.0552 62.7209 35.0156C62.4825 34.9757 62.2043 34.9585 61.919 34.9559C61.3483 34.9508 60.7438 35.0043 60.3611 35.0553L60.3009 35.0633L60.3201 35.1208C60.3722 35.2767 60.5379 35.6503 60.7895 35.9016C60.9679 36.0798 61.2691 36.4359 61.4969 36.713C61.347 38.3293 60.807 41.3675 60.3984 43.4998C60.3037 43.8934 60.2248 44.2912 60.1657 44.6895L60.2645 44.7067C60.3331 44.3641 60.4119 43.962 60.4965 43.5209C61.1344 40.8701 62.4913 38.3999 63.2873 37.2079ZM63.2224 37.1246C63.2687 37.0557 63.3131 36.9912 63.3553 36.9312C63.0511 36.4793 62.6086 35.9096 62.2421 35.6241C62.1489 35.5514 62.063 35.4991 61.9877 35.4713C61.9121 35.4434 61.8528 35.4421 61.8073 35.462C61.7624 35.4817 61.7197 35.527 61.688 35.6172C61.6561 35.7078 61.6372 35.8385 61.6372 36.0185C61.6372 36.1944 61.6242 36.4189 61.6006 36.6812C61.67 36.7659 61.7314 36.8417 61.7786 36.9007L61.7919 36.9172L61.7892 36.9382C61.777 37.0357 61.7766 37.1476 61.7968 37.2507C61.8171 37.3542 61.8572 37.4443 61.9221 37.5042C61.9853 37.5626 62.0777 37.5977 62.2152 37.5816C62.3546 37.5654 62.5391 37.4965 62.7798 37.3463C62.9349 37.2495 63.0811 37.1763 63.2224 37.1246ZM61.5871 36.8232C61.4522 38.186 61.0671 40.4536 60.7114 42.3788C61.3888 40.2388 62.4341 38.3308 63.1241 37.2733C63.0309 37.3156 62.9343 37.368 62.833 37.4312C62.5859 37.5854 62.3869 37.6625 62.2268 37.6811C62.0649 37.7 61.942 37.659 61.854 37.5778C61.7678 37.4982 61.7209 37.3852 61.6983 37.2699C61.6772 37.1618 61.6765 37.0476 61.6872 36.947C61.6582 36.9108 61.6244 36.869 61.5871 36.8232ZM55.1136 35.4705C55.0182 35.5205 54.9483 35.5651 54.9161 35.5971C54.891 35.6223 54.8464 35.6491 54.7938 35.6766C54.7393 35.705 54.6702 35.7371 54.5913 35.7717C54.4546 35.8317 54.2857 35.9006 54.1072 35.9735C54.0794 35.9848 54.0514 35.9962 54.0233 36.0077C53.6019 36.1799 53.1505 36.3681 52.9271 36.5169C52.805 36.5982 52.5782 36.676 52.31 36.7495C52.0394 36.8237 51.719 36.8953 51.4045 36.962C51.2714 36.9902 51.1396 37.0174 51.0129 37.0436C50.8393 37.0795 50.6753 37.1134 50.5308 37.1451C50.406 37.1724 50.2967 37.1978 50.2094 37.221C50.1208 37.2445 50.0587 37.2648 50.0257 37.2813C49.984 37.3021 49.9284 37.3563 49.8506 37.4514C49.7868 37.5293 49.7123 37.6293 49.6225 37.7499C49.605 37.7733 49.5869 37.7975 49.5682 37.8226C49.4118 38.032 49.2143 38.2924 48.9599 38.5914C49.1689 38.4486 49.3752 38.3316 49.5236 38.2574C49.9299 38.0545 50.8938 37.5579 51.5017 37.1935C51.819 37.0033 52.3266 36.9403 52.8225 36.9352C53.3213 36.9301 53.8196 36.9837 54.1268 37.0348L54.1397 37.037L54.1499 37.0451C54.2108 37.0938 54.2868 37.1435 54.3657 37.1795C54.4453 37.2158 54.5239 37.2365 54.5917 37.2322C54.6568 37.228 54.7132 37.201 54.7554 37.1367C54.7993 37.0697 54.8305 36.9579 54.8305 36.7797C54.8305 36.581 54.9142 36.4258 55.0475 36.3078C55.1793 36.1912 55.3588 36.1115 55.5532 36.0577C55.9404 35.9507 56.4019 35.943 56.7101 35.9682L58.9908 35.8164L60.009 35.6711C60.0027 35.6337 59.9882 35.5903 59.9612 35.5529C59.9248 35.5024 59.8637 35.4596 59.7581 35.4596C59.6026 35.4596 59.1802 35.4211 58.7816 35.3832C58.7129 35.3767 58.6447 35.3701 58.5786 35.3638C58.4522 35.3517 58.3332 35.3403 58.2317 35.3309C58.0754 35.3165 57.9642 35.3073 57.929 35.3073C57.8507 35.3073 57.397 35.2695 56.9457 35.232L56.9342 35.231C56.4747 35.1928 56.021 35.1551 55.9476 35.1551C55.9349 35.1551 55.9112 35.1586 55.876 35.167C55.842 35.1753 55.8004 35.1873 55.7535 35.2026C55.6598 35.233 55.5468 35.2753 55.4334 35.3225C55.3201 35.3697 55.2072 35.4214 55.1136 35.4705ZM48.4225 39.1838C48.4727 39.1318 48.5215 39.0805 48.5687 39.03C48.878 38.7352 49.3112 38.4755 49.5685 38.3471C49.9751 38.144 50.9419 37.6459 51.5533 37.2794C51.8456 37.1042 52.3288 37.0404 52.8235 37.0354C53.3087 37.0304 53.7942 37.0818 54.0976 37.1316C54.1619 37.1817 54.2407 37.2326 54.324 37.2706C54.4111 37.3104 54.5071 37.338 54.5981 37.3322C54.6917 37.3262 54.7782 37.2847 54.8393 37.1916C54.8985 37.1013 54.9308 36.967 54.9308 36.7797C54.9308 36.613 54.9996 36.4841 55.114 36.3828C55.2299 36.2803 55.3932 36.2059 55.5799 36.1543C55.9533 36.0511 56.4041 36.0433 56.7055 36.0684L56.7093 36.0687L59.0012 35.9161L60.113 35.7574V35.714C60.113 35.6552 60.0958 35.5682 60.0426 35.4944C59.9876 35.418 59.8963 35.3594 59.7581 35.3594C59.6087 35.3594 59.1928 35.3217 58.7911 35.2835C58.7226 35.277 58.6546 35.2704 58.5885 35.2641C58.462 35.2519 58.3426 35.2405 58.2409 35.2311C58.0875 35.217 57.9701 35.2071 57.929 35.2071C57.8556 35.2071 57.402 35.1694 56.9425 35.1312L56.9309 35.1302C56.4797 35.0926 56.0259 35.0549 55.9476 35.0549C55.9222 35.0549 55.8888 35.0609 55.8525 35.0696C55.8151 35.0787 55.7709 35.0916 55.7225 35.1073C55.6257 35.1387 55.5101 35.182 55.3949 35.23C55.2796 35.278 55.1639 35.3309 55.0669 35.3818C54.9718 35.4316 54.8893 35.4823 54.8452 35.5263C54.8323 35.5392 54.8006 35.56 54.7473 35.5878C54.6958 35.6147 54.6291 35.6457 54.5509 35.68C54.4155 35.7394 54.2481 35.8078 54.0693 35.8807C54.0416 35.892 54.0135 35.9035 53.9853 35.915C53.5683 36.0854 53.1053 36.2778 52.8714 36.4335C52.7648 36.5045 52.5534 36.5789 52.2834 36.6529C52.0158 36.7263 51.6979 36.7974 51.3837 36.864C51.2518 36.8919 51.1203 36.9191 50.9936 36.9453C50.8193 36.9813 50.6541 37.0155 50.5094 37.0472C50.3841 37.0746 50.2731 37.1004 50.1836 37.1241C50.0954 37.1476 50.0241 37.1701 49.9809 37.1917C49.9173 37.2234 49.8495 37.2945 49.773 37.388C49.7076 37.4678 49.6314 37.5701 49.5416 37.6906C49.5242 37.7139 49.5063 37.7379 49.4878 37.7626C49.2601 38.0675 48.9468 38.4787 48.4974 38.9595C48.4438 39.0107 48.3935 39.0632 48.3481 39.1165C47.9699 39.5075 47.5034 39.9396 46.9239 40.3944C45.8538 41.2343 45.3539 41.8475 45.1023 42.2535C44.9764 42.4566 44.9133 42.607 44.8724 42.7055L44.8722 42.706C44.8513 42.7564 44.8382 42.788 44.8261 42.8079C44.822 42.8146 44.8192 42.8181 44.8176 42.8198C44.7981 42.8209 44.7835 42.8307 44.7751 42.8376C44.7654 42.8455 44.7569 42.8555 44.7496 42.8655C44.7348 42.8856 44.7193 42.9131 44.7034 42.9454C44.6712 43.0105 44.6334 43.1029 44.5919 43.2143C44.5088 43.4371 44.409 43.741 44.3072 44.0679C44.0188 44.7428 43.8886 45.2292 43.8569 45.451L43.8567 45.4525L43.8566 45.4539C43.8504 45.5286 43.8447 45.6128 43.8403 45.7032C43.7669 46.0987 43.5439 46.8584 43.1053 47.4061C42.9451 47.6061 42.8384 47.9205 42.7666 48.2768C42.6945 48.6347 42.6562 49.0418 42.6371 49.4332C42.607 50.0497 42.6243 50.6331 42.633 50.9248C42.6353 51.0029 42.637 51.0601 42.637 51.0914C42.637 51.2483 42.6759 51.5567 42.7329 51.9176C42.7902 52.28 42.8665 52.6993 42.9428 53.0805C43.0454 53.5926 43.1502 53.8373 43.2528 54.0768C43.3031 54.1944 43.353 54.3107 43.4017 54.4568C43.479 54.6886 43.6327 54.9955 43.7839 55.2976L43.7855 55.3007C43.9385 55.6066 44.089 55.9074 44.1638 56.1316C44.2413 56.3638 44.4333 56.7853 44.6433 57.1857C44.7484 57.3863 44.8586 57.5825 44.9619 57.748C45.0645 57.9125 45.1623 58.05 45.2428 58.1304C45.2731 58.1607 45.3058 58.2189 45.3392 58.3059C45.3721 58.3915 45.4037 58.4993 45.4344 58.6233C45.4959 58.8713 45.5528 59.1789 45.61 59.4933L45.6202 59.5491C45.6739 59.8446 45.7282 60.143 45.7867 60.3972C45.8178 60.5323 45.8504 60.6559 45.885 60.7606C45.9194 60.8645 45.9568 60.9528 45.9987 61.0156C46.1263 61.2068 46.311 61.3511 46.4877 61.4536C46.6467 61.5459 46.802 61.6059 46.9088 61.6363C46.9737 62.1703 47.3623 63.3181 48.4547 63.9244C49.5406 64.527 49.8007 65.2736 49.8007 65.5554V65.5794L49.8195 65.5945C50.5925 66.2122 51.6706 66.5182 52.893 66.6708C53.8472 66.79 54.3815 67.2131 54.5311 67.4064C54.5624 67.4928 54.6396 67.5993 54.7743 67.6534C54.9146 67.7098 55.1078 67.7056 55.3603 67.5794C55.6009 67.4593 55.7729 67.411 55.8884 67.3979C55.9462 67.3913 55.9888 67.3937 56.0182 67.3996C56.0487 67.4057 56.0615 67.4147 56.0645 67.4178L56.0711 67.4244L56.0796 67.4281C56.6374 67.6758 57.4202 67.7775 58.1672 67.8054C58.9156 67.8335 59.6346 67.7876 60.0687 67.7366L60.0932 67.7338L60.5703 66.9395V66.9256C60.5703 66.9058 60.56 66.8921 60.5527 66.885C60.5456 66.8781 60.5377 66.8737 60.532 66.871C60.5205 66.8656 60.5065 66.8617 60.4926 66.8586C60.4638 66.8524 60.4232 66.8474 60.3723 66.8438C60.2698 66.8365 60.1193 66.8343 59.9239 66.8413C59.5328 66.8553 58.9591 66.9063 58.2256 67.0285C57.5096 67.1477 56.8359 66.9246 56.282 66.5934C55.728 66.2621 55.2984 65.8252 55.0732 65.5253L55.0492 65.4934L55.0127 65.5096C54.7856 65.6104 54.4063 65.762 54.0081 65.8882C53.6086 66.0149 53.1958 66.1143 52.8992 66.1143C52.715 66.1143 52.4436 66.0679 52.1348 65.992C51.8271 65.9163 51.4857 65.8122 51.1631 65.6984C50.8404 65.5846 50.5375 65.4617 50.3064 65.3486C50.1907 65.292 50.0941 65.2384 50.0223 65.1902C49.9864 65.1661 49.9576 65.1439 49.9359 65.1239C49.9137 65.1035 49.9014 65.0875 49.8957 65.0762C49.855 64.9948 49.7756 64.8864 49.6805 64.7676C49.5847 64.648 49.4699 64.5143 49.3559 64.3814L49.3555 64.3809C49.241 64.2475 49.1273 64.1149 49.0327 63.9968C48.9373 63.8777 48.8643 63.7767 48.8288 63.7059C48.8028 63.654 48.7849 63.5681 48.7753 63.4571C48.7659 63.3477 48.7649 63.2195 48.7693 63.0867C48.7781 62.8225 48.8081 62.5441 48.8332 62.3677C48.885 62.1588 48.8949 61.8538 48.7415 61.6295C48.5829 61.3974 48.265 61.2716 47.7061 61.3956C47.0542 61.5404 46.5595 61.0885 46.2296 60.5299C46.0658 60.2526 45.9462 59.954 45.8717 59.7021C45.8345 59.5762 45.8088 59.4626 45.7945 59.3698C45.78 59.2754 45.778 59.2073 45.7849 59.1698C45.7952 59.1136 45.7879 59.0426 45.7707 58.9645C45.7532 58.8853 45.7243 58.7939 45.6874 58.6948C45.6134 58.4966 45.5056 58.2636 45.3866 58.029C45.1487 57.5598 44.8641 57.0795 44.7104 56.8492C44.5983 56.6813 44.5714 56.4044 44.5892 56.115C44.6067 55.8287 44.6669 55.5431 44.7169 55.3682L44.7211 55.3533L44.5559 54.8581L44.0622 54.6937L44.0491 54.6963C44.0102 54.7041 43.9434 54.6883 43.8557 54.5963C43.769 54.5052 43.6694 54.3465 43.5683 54.0914C43.3665 53.5816 43.1638 52.6991 43.042 51.2395C42.9205 49.7829 43.0983 48.8537 43.3651 48.2846C43.6322 47.7149 43.9855 47.5103 44.2164 47.4872L44.2273 47.3898C44.1686 47.3703 44.114 47.3073 44.0679 47.1945C44.0227 47.0839 43.9904 46.9369 43.9685 46.7699C43.9251 46.4376 43.9248 46.0371 43.9402 45.7147C43.9464 45.6806 43.9516 45.6492 43.9557 45.6207C44.0688 45.2141 44.2379 44.6279 44.4014 44.1025C44.5861 43.6709 44.8365 43.1602 45.1692 42.5905C46.0104 41.1501 47.2154 41.097 47.7026 41.243L47.7252 41.2498L48.23 40.9136L48.2234 40.8807C48.1732 40.6297 48.1036 40.009 48.2229 39.5324C48.2509 39.4205 48.3217 39.3025 48.4225 39.1838ZM48.1362 39.4707C47.8117 39.7862 47.432 40.1231 46.9859 40.4732C45.9222 41.308 45.4314 41.9128 45.1876 42.3062C45.0658 42.5027 45.0051 42.6473 44.965 42.7439L44.9635 42.7476C45.002 42.6793 45.0417 42.6101 45.0826 42.5401C45.9363 41.0782 47.1672 40.9908 47.7086 41.1405L48.1188 40.8673C48.0682 40.5923 48.0061 39.9857 48.1256 39.5081C48.1287 39.4957 48.1323 39.4832 48.1362 39.4707ZM44.8793 42.8989C44.8672 42.9088 44.8527 42.9163 44.8351 42.9189C44.8338 42.9204 44.8323 42.9223 44.8304 42.9248C44.8208 42.9379 44.8084 42.9593 44.7933 42.9897C44.7635 43.0502 44.7271 43.1388 44.6859 43.2493C44.6797 43.2658 44.6735 43.2827 44.6671 43.3001C44.733 43.1706 44.8037 43.0368 44.8793 42.8989ZM43.8309 46.1614C43.7102 46.5655 43.5031 47.0698 43.1836 47.4687C43.039 47.6492 42.936 47.9438 42.8649 48.2965C42.7942 48.6476 42.7563 49.0492 42.7373 49.4381C42.7074 50.049 42.7244 50.6222 42.7332 50.9167C42.7356 50.9977 42.7373 51.0577 42.7373 51.0914C42.7373 51.2391 42.7747 51.5396 42.832 51.902C42.889 52.2628 42.9651 52.6808 43.0412 53.0609C43.1419 53.5638 43.2404 53.7929 43.341 54.027C43.3922 54.1462 43.444 54.2666 43.4968 54.4251C43.5717 54.6493 43.7221 54.9501 43.8752 55.2559L43.8767 55.259C44.028 55.5612 44.1816 55.8681 44.2589 56.0999C44.3339 56.3244 44.5229 56.7403 44.7321 57.1392C44.8365 57.3383 44.9454 57.5322 45.047 57.695C45.1243 57.819 45.1963 57.9231 45.2579 57.9975C45.0302 57.5565 44.7698 57.1188 44.6269 56.9048C44.4951 56.7073 44.4712 56.4006 44.489 56.1089C44.5066 55.8221 44.5655 55.5371 44.6162 55.3557L44.4766 54.9373L44.0548 54.7969C43.9702 54.8074 43.876 54.7629 43.7831 54.6653C43.684 54.5613 43.5785 54.3895 43.4751 54.1282C43.268 53.6052 43.0642 52.7115 42.942 51.2478C42.8197 49.7812 42.9975 48.8326 43.2743 48.2421C43.5121 47.7349 43.825 47.4887 44.0842 47.412C44.0393 47.3651 44.0037 47.3024 43.9751 47.2324C43.9251 47.1103 43.8914 46.9535 43.8691 46.7828C43.8437 46.5882 43.8327 46.3718 43.8309 46.1614ZM45.5164 58.5387C45.5216 58.5585 45.5267 58.5787 45.5318 58.5992C45.5942 58.8508 45.6516 59.1617 45.7087 59.4753L45.7187 59.5304C45.7726 59.8267 45.8264 60.1229 45.8844 60.3747C45.9152 60.5083 45.947 60.6286 45.9802 60.7291C46.0137 60.8304 46.0478 60.9085 46.0821 60.96C46.1984 61.1342 46.3693 61.269 46.5381 61.367C46.7068 61.4649 46.87 61.524 46.9671 61.5482L47.0013 61.5568L47.0048 61.5918C47.0546 62.0893 47.4252 63.2384 48.5034 63.8368C48.7446 63.9706 48.9469 64.112 49.1159 64.2547C49.0588 64.1872 49.004 64.1214 48.9544 64.0594C48.8592 63.9406 48.7799 63.8322 48.7391 63.7507C48.7041 63.6809 48.6852 63.579 48.6754 63.4657C48.6655 63.3509 48.6646 63.2183 48.669 63.0834C48.678 62.8135 48.7087 62.5299 48.7343 62.351L48.7347 62.3484L48.7353 62.3459C48.7846 62.1489 48.7892 61.8768 48.6587 61.686C48.5328 61.5018 48.2665 61.3739 47.7279 61.4934C47.0081 61.6532 46.4782 61.148 46.1432 60.5808C45.9746 60.2953 45.8519 59.989 45.7755 59.7305C45.7373 59.6012 45.7105 59.4831 45.6954 59.3851C45.6805 59.2886 45.6762 59.2066 45.6863 59.1517C45.6929 59.1155 45.6891 59.0603 45.6728 58.9861C45.6567 58.9131 45.6295 58.8265 45.5934 58.7298C45.5708 58.6693 45.5449 58.6053 45.5164 58.5387ZM49.7499 65.0274C49.853 65.2313 49.8954 65.4079 49.9005 65.5308C50.6505 66.1215 51.699 66.4208 52.9054 66.5714C53.892 66.6946 54.454 67.1367 54.6159 67.3523L54.6208 67.3588L54.6234 67.3665C54.6449 67.431 54.7043 67.5173 54.8117 67.5605C54.9178 67.6031 55.0803 67.6073 55.3155 67.4898C55.5627 67.3664 55.7463 67.3132 55.8771 67.2983C55.9426 67.2909 55.9959 67.293 56.0379 67.3014C56.0743 67.3086 56.1054 67.3214 56.1276 67.3398C56.6668 67.5771 57.4301 67.6776 58.1709 67.7053C58.8998 67.7326 59.6007 67.6893 60.0326 67.64L60.4458 66.952C60.4251 66.9489 60.3983 66.9461 60.3651 66.9437C60.2675 66.9367 60.1208 66.9345 59.9275 66.9414C59.5413 66.9553 58.9719 67.0058 58.2421 67.1273C57.4949 67.2517 56.7969 67.018 56.2305 66.6793C55.6833 66.3521 55.2548 65.9245 55.0171 65.6171C54.7843 65.7188 54.4201 65.8627 54.0385 65.9837C53.6378 66.1108 53.2124 66.2145 52.8992 66.2145C52.7024 66.2145 52.4212 66.1656 52.1108 66.0893C51.7994 66.0127 51.4549 65.9075 51.1297 65.7929C50.8047 65.6783 50.4979 65.5539 50.2622 65.4386C50.1445 65.381 50.0434 65.3251 49.9664 65.2734C49.9279 65.2475 49.8945 65.2222 49.8678 65.1976C49.8416 65.1734 49.8194 65.1478 49.806 65.121C49.7925 65.094 49.7735 65.0626 49.7499 65.0274ZM44.8159 42.8212C44.8159 42.8212 44.8162 42.8209 44.8167 42.8207C44.8162 42.8212 44.8159 42.8213 44.8159 42.8212Z" fill="#FAEC03"/>
<path d="M61.2483 50.0594C61.0698 50.2522 60.9071 50.3945 60.786 50.4818C60.946 50.3354 61.1 50.1947 61.2483 50.0594C61.6944 49.5774 62.2394 48.7791 62.4816 47.7313C62.9056 47.4257 63.8947 46.6312 64.4599 45.8977C65.1664 44.9809 67.9925 41.3136 68.1338 40.7024C68.2468 40.2135 69.0287 41.008 69.4055 41.4664C69.0758 41.3646 67.7099 42.0777 64.8838 45.7449C64.7896 45.9486 64.6295 46.4784 64.7425 46.9673C64.6534 47.0155 63.8232 47.7103 61.2483 50.0594Z" fill="#FAEC03"/>
<path d="M61.4925 51.3986C62.6229 51.0421 64.9403 50.2373 65.1664 49.8706C65.3925 49.5039 67.2388 49.2084 68.1338 49.1066C68.3065 49.1066 68.5636 49.0913 68.8306 49.0485C69.5064 48.6944 70.0182 48.444 69.8294 48.6482C69.6284 48.8655 69.2191 48.9862 68.8306 49.0485C67.989 49.4895 66.8929 50.0914 66.5794 50.1762C66.0142 50.329 65.0251 50.9402 64.1773 51.093C63.3295 51.2458 62.9056 51.5514 61.6338 51.7042C60.6164 51.8264 61.1157 51.5514 61.4925 51.3986Z" fill="#FAEC03"/>
<path fill-rule="evenodd" clip-rule="evenodd" d="M68.0707 40.6669C68.0485 40.682 68.0276 40.7103 68.0144 40.763C67.9934 40.8473 67.9255 40.9766 67.8275 41.1351C67.7282 41.2956 67.5942 41.4918 67.436 41.7123C67.1193 42.1534 66.7038 42.6936 66.2698 43.2428C65.4017 44.3412 64.4582 45.4775 64.081 45.9318L64.081 45.9318C63.4797 46.6559 62.4359 47.4368 61.9737 47.7479C61.7868 48.4851 61.4393 49.0976 61.0825 49.5626C62.1816 48.6353 62.9388 48.0082 63.4431 47.5984C63.7319 47.3637 63.9379 47.2001 64.0779 47.0921C64.1478 47.0381 64.2015 46.9978 64.2408 46.9694C64.259 46.9563 64.2748 46.9452 64.2881 46.9363C64.1801 46.4459 64.3503 45.9286 64.4511 45.7262L64.4537 45.721L64.4574 45.7165C65.9677 43.8977 67.0894 42.8096 67.8791 42.1882C68.2738 41.8776 68.5868 41.6827 68.8248 41.5717C68.9438 41.5163 69.0452 41.4812 69.1294 41.4635C69.1564 41.4578 69.182 41.4538 69.2061 41.4515C69.0098 41.239 68.7465 40.9839 68.5112 40.8182C68.375 40.7222 68.2553 40.6614 68.1666 40.6503C68.1237 40.6449 68.0929 40.6517 68.0707 40.6669ZM60.5795 49.9878C60.4216 50.1214 60.2576 50.2605 60.0873 50.4051L60.147 50.4846C60.2792 50.3961 60.4548 50.2535 60.6467 50.0613C62.0206 48.898 62.9289 48.1445 63.5056 47.6758C63.7941 47.4414 63.9994 47.2783 64.1384 47.171C64.2079 47.1174 64.2607 47.0778 64.2988 47.0503C64.3381 47.0219 64.3591 47.0084 64.3668 47.0045L64.4025 46.9867L64.3928 46.9479C64.2771 46.4834 64.4392 45.976 64.5374 45.7758C66.0433 43.9628 67.1588 42.8816 67.9403 42.2666C68.3315 41.9589 68.6378 41.7688 68.8667 41.6621C68.9811 41.6088 69.0751 41.5768 69.1498 41.561C69.2252 41.5451 69.2776 41.5465 69.3107 41.556L69.4749 41.6031L69.3615 41.475C69.1593 41.2467 68.847 40.9329 68.5682 40.7366C68.4303 40.6394 68.2935 40.5658 68.179 40.5514C68.1204 40.544 68.063 40.5516 68.0149 40.5844C67.9667 40.6172 67.9352 40.6703 67.9181 40.7388C67.9014 40.8059 67.842 40.9227 67.7431 41.0825C67.6455 41.2402 67.5131 41.4344 67.3554 41.6541C67.0401 42.0933 66.6257 42.6321 66.192 43.1808C65.3247 44.2783 64.382 45.4136 64.0047 45.868C63.4058 46.5892 62.3544 47.3735 61.9027 47.6757L61.8867 47.6864L61.8821 47.7051C61.6264 48.7314 61.0511 49.5144 60.5795 49.9878ZM69.846 48.623C69.8371 48.6348 69.8257 48.6475 69.8122 48.6611C69.6971 48.7766 69.5258 48.8634 69.3349 48.929C69.1455 48.9941 68.9322 49.0397 68.7253 49.0708C68.5456 49.1582 68.3548 49.2521 68.162 49.3469C67.8753 49.4881 67.5841 49.6313 67.3183 49.7588C67.0947 49.866 66.8883 49.9624 66.7166 50.0373C66.546 50.1118 66.4066 50.1665 66.3184 50.1886C66.0801 50.2484 65.7696 50.3804 65.4206 50.5287C65.3346 50.5653 65.2462 50.6028 65.156 50.6406C64.7033 50.8298 64.2081 51.0213 63.7492 51.098C63.3856 51.1589 63.0964 51.2441 62.7882 51.3349C62.7157 51.3563 62.6421 51.3779 62.5663 51.3997C62.1684 51.5138 61.7129 51.6281 61.0303 51.7042C60.7585 51.7345 60.5833 51.7408 60.4807 51.7293C60.4548 51.7263 60.4321 51.7221 60.4129 51.7163C60.3943 51.7106 60.3758 51.7024 60.3611 51.6898C60.3452 51.6761 60.3335 51.6566 60.3326 51.6324C60.3319 51.6103 60.3406 51.5915 60.3497 51.5778C60.3674 51.5511 60.3981 51.5265 60.4308 51.5046C60.465 51.4818 60.507 51.4584 60.5527 51.4355C60.6444 51.3895 60.7549 51.3433 60.8565 51.3051L60.8582 51.3045L60.86 51.3039C61.463 51.1274 62.3825 50.84 63.181 50.5515C63.5803 50.4072 63.9485 50.2629 64.2315 50.1324C64.373 50.0671 64.4922 50.0056 64.583 49.9498C64.6757 49.8928 64.7324 49.8453 64.756 49.8097C64.793 49.7541 64.8589 49.705 64.9399 49.6608C65.0222 49.616 65.1256 49.5733 65.2439 49.5328C65.4806 49.4516 65.7819 49.3773 66.1041 49.3115C66.7487 49.1798 67.4822 49.0812 67.9611 49.0306L67.9637 49.0303H67.9663C68.1468 49.0303 68.4158 49.0157 68.6957 48.9744C69.0534 48.8005 69.3693 48.6513 69.5716 48.5705C69.6226 48.5501 69.6672 48.5337 69.7038 48.5223C69.7389 48.5114 69.7715 48.5035 69.7965 48.5033C69.8076 48.5032 69.8282 48.5043 69.8457 48.5178C69.8558 48.5257 69.8635 48.5367 69.867 48.5501C69.8703 48.5626 69.869 48.574 69.8669 48.5824C69.863 48.5982 69.8541 48.6122 69.846 48.623ZM69.0812 48.8996C69.294 48.7987 69.4764 48.7158 69.6084 48.663C69.6432 48.6491 69.6741 48.6374 69.7009 48.6282C69.6022 48.7109 69.464 48.7793 69.3028 48.8347C69.2321 48.859 69.1577 48.8805 69.0812 48.8996ZM68.4241 49.1072C68.2491 49.1234 68.0902 49.1299 67.9689 49.13C67.492 49.1804 66.7633 49.2785 66.1239 49.4091C65.8034 49.4746 65.5068 49.5479 65.276 49.6271C65.1605 49.6666 65.0628 49.7073 64.9873 49.7484C64.9106 49.7902 64.862 49.8298 64.8387 49.865C64.802 49.9202 64.7285 49.9772 64.6349 50.0348C64.5394 50.0935 64.4162 50.1568 64.273 50.2229C63.9862 50.3552 63.615 50.5005 63.2146 50.6452C62.4144 50.9344 61.4939 51.2222 60.8896 51.3991C60.7905 51.4364 60.6842 51.4809 60.5971 51.5246C60.5533 51.5466 60.5153 51.5679 60.4859 51.5876C60.4657 51.601 60.4517 51.6124 60.4427 51.6212C60.4541 51.6246 60.4701 51.6278 60.4918 51.6302C60.5824 51.6404 60.7479 51.6354 61.0193 51.6051C61.6949 51.5298 62.1448 51.4169 62.5391 51.3039C62.6136 51.2825 62.6863 51.2611 62.7583 51.2398C63.0671 51.1488 63.3629 51.0616 63.7329 50.9997C64.1793 50.9251 64.665 50.7379 65.1178 50.5486C65.2057 50.5118 65.2926 50.4749 65.3777 50.4387C65.7274 50.29 66.0478 50.1538 66.2943 50.0919C66.3735 50.072 66.5059 50.0206 66.677 49.946C66.8471 49.8717 67.0523 49.7759 67.2755 49.6689C67.5411 49.5415 67.8313 49.3987 68.1175 49.2579C68.2206 49.2071 68.3233 49.1566 68.4241 49.1072ZM60.431 51.6354C60.431 51.6354 60.431 51.6353 60.4311 51.6352Z" fill="#FAEC03"/>
<path d="M68.7511 50.2295C68.9747 50.093 68.6579 49.9451 68.4716 49.8883C68.6952 49.4788 68.9374 49.6608 69.0306 49.8029L69.1703 50.3148C68.9374 50.3432 68.5275 50.3659 68.7511 50.2295Z" fill="#FAEC03"/>
<path fill-rule="evenodd" clip-rule="evenodd" d="M68.9528 49.7041C68.9898 49.735 69.0197 49.7725 69.0408 49.807L69.0424 49.8096L69.1703 50.3109L69.1325 50.3159C69.0313 50.3291 68.8869 50.3417 68.7904 50.3339C68.766 50.332 68.7421 50.3285 68.722 50.3225C68.7021 50.3165 68.6815 50.3065 68.6717 50.2902C68.6618 50.2736 68.6667 50.2563 68.678 50.2409C68.6891 50.2257 68.7082 50.2098 68.7339 50.1931C68.7759 50.1656 68.7895 50.1399 68.7888 50.1167C68.788 50.0926 68.7716 50.0672 68.7422 50.0414C68.683 49.9894 68.5804 49.9443 68.5025 49.9188L68.4716 49.9087L68.4825 49.8874C68.5315 49.7913 68.583 49.7269 68.6363 49.6876C68.6907 49.6475 68.7509 49.6312 68.8121 49.6391C68.8693 49.6465 68.9166 49.6739 68.9528 49.7041ZM68.5689 49.883C68.6129 49.8018 68.6563 49.7513 68.6959 49.7221C68.7377 49.6913 68.7712 49.6868 68.7967 49.6901C68.8261 49.6939 68.8584 49.7096 68.8902 49.7362C68.9204 49.7614 68.9463 49.7932 68.9653 49.8237L69.0791 50.2696C68.985 50.2804 68.873 50.2882 68.8002 50.2824C68.7798 50.2807 68.765 50.2782 68.7553 50.2753C68.749 50.2734 68.7466 50.2719 68.7459 50.2713C68.7459 50.2704 68.7463 50.268 68.7497 50.2634C68.7554 50.2557 68.7675 50.2446 68.7902 50.2298C68.8449 50.1941 68.8696 50.1553 68.8683 50.1156C68.8671 50.0769 68.8412 50.0412 68.8061 50.0104C68.7446 49.9564 68.648 49.9115 68.5689 49.883ZM68.746 50.2717C68.746 50.2717 68.746 50.2717 68.7459 50.2715Z" fill="#FAEC03"/>
<path d="M70.7945 47.9019C70.7109 47.9157 70.6343 47.9258 70.5677 47.9324C70.6215 47.911 70.6995 47.9018 70.7945 47.9019C71.3545 47.809 72.2255 47.5462 72.4936 47.0126C72.8018 46.3994 72.622 47.5747 72.4936 48.2391C72.0697 48.1125 71.2434 47.9024 70.7945 47.9019Z" fill="#FAEC03"/>
<path fill-rule="evenodd" clip-rule="evenodd" d="M73.2451 46.9437C73.2207 46.9624 73.185 47.0022 73.1367 47.0723C72.9549 47.3356 72.5747 47.5259 72.1607 47.661C71.901 47.7457 71.6234 47.8101 71.3636 47.8572C71.9208 47.9128 72.6213 48.0434 73.0497 48.1348C73.1292 47.8302 73.2191 47.432 73.2461 47.169C73.2532 47.0999 73.2558 47.0418 73.2531 46.9978C73.2518 46.9758 73.2492 46.9586 73.2457 46.946C73.2455 46.9452 73.2453 46.9445 73.2451 46.9437ZM70.9162 47.9246C71.4848 47.9259 72.5343 48.1197 73.0771 48.2376C73.0912 48.2407 73.1061 48.2387 73.1185 48.2321C73.1309 48.2255 73.1397 48.2149 73.143 48.2026C73.2253 47.8925 73.3248 47.4608 73.354 47.1774C73.3613 47.1064 73.3643 47.0432 73.3612 46.9928C73.3597 46.9676 73.3566 46.9443 73.3511 46.9242C73.3458 46.905 73.3372 46.8842 73.3212 46.8679C73.3028 46.8491 73.2755 46.8378 73.2437 46.8415C73.2168 46.8447 73.1935 46.858 73.1748 46.8721C73.1368 46.9008 73.0936 46.9518 73.0438 47.0239C72.8819 47.2583 72.5321 47.4393 72.1226 47.5729C71.7171 47.7052 71.2645 47.7873 70.9087 47.8305C70.7872 47.8305 70.6814 47.8392 70.6047 47.8614C70.5787 47.8689 70.5633 47.8922 70.5688 47.9155C70.5743 47.9388 70.599 47.9549 70.6263 47.9529C70.7118 47.9467 70.8097 47.9374 70.9162 47.9246Z" fill="#FAEC03"/>
<path d="M65.4253 53.2573C65.0191 53.1653 64.5826 53.0694 64.1183 52.9712C63.6198 52.8657 63.222 52.7405 62.9069 52.6043C62.0022 52.4432 61.1607 52.4435 60.9232 52.9712C60.5747 53.7456 60.9716 52.1107 61.2137 51.1965L61.9399 51.0352C61.7088 51.3775 61.6799 52.0739 62.9069 52.6043C63.662 52.7387 64.4611 52.9857 64.9897 53.1325C65.1384 53.1738 65.2842 53.2157 65.4253 53.2573C67.1542 53.6488 68.3345 53.9699 68.7657 54.1005C69.9276 54.4232 72.4255 54.9717 73.1227 54.5845C73.8198 54.1973 72.8322 56.2516 72.2513 57.3272C72.3481 56.6281 72.2513 55.1653 71.0894 54.9072C69.9276 54.649 67.8943 54.0467 67.0229 53.7778C66.779 53.6875 66.1661 53.4757 65.4253 53.2573Z" fill="#FAEC03"/>
<path fill-rule="evenodd" clip-rule="evenodd" d="M61.3885 51.0595C61.3996 51.0778 61.3986 51.1014 61.3862 51.1187C61.2743 51.2743 61.2114 51.5094 61.3253 51.7677C61.4401 52.0279 61.7386 52.3217 62.3724 52.5798C63.0172 52.6879 63.6921 52.869 64.2179 53.01C64.3382 53.0423 64.4507 53.0725 64.5533 53.0993C64.7089 53.1398 64.8613 53.1809 65.0089 53.2218C66.8193 53.6067 68.0561 53.9224 68.5095 54.0513C69.1169 54.2096 70.0732 54.4233 70.9684 54.5499C71.4161 54.6132 71.8473 54.6545 72.2114 54.6565C72.5779 54.6585 72.8677 54.6203 73.0388 54.5311C73.087 54.506 73.1305 54.4893 73.1694 54.4823C73.2083 54.4753 73.246 54.4773 73.2788 54.4942C73.3477 54.5298 73.3643 54.6117 73.3623 54.6912C73.3602 54.7747 73.3376 54.8808 73.3015 55.0006C73.2652 55.1213 73.2141 55.2592 73.1528 55.4076C72.9081 56.0005 72.4959 56.7723 72.1913 57.3018C72.179 57.3232 72.1539 57.3326 72.1313 57.3241C72.1088 57.3156 72.0952 57.2917 72.0989 57.267C72.1487 56.9294 72.1484 56.4071 71.9871 55.9401C71.8266 55.4753 71.5085 55.0688 70.9214 54.9463C69.7022 54.692 67.5706 54.0992 66.6578 53.8348L66.6553 53.8341L66.6553 53.8341C66.4009 53.7456 65.7605 53.5379 64.9861 53.3235C64.5611 53.2331 64.1045 53.139 63.6189 53.0425C63.0971 52.9389 62.6788 52.8157 62.3461 52.6811C61.8756 52.6027 61.4256 52.5646 61.0639 52.6087C60.6988 52.6532 60.4386 52.7795 60.3259 53.0146C60.2805 53.1093 60.2444 53.1734 60.2164 53.2064C60.2092 53.2149 60.2005 53.2237 60.1906 53.2304C60.1812 53.2366 60.1643 53.2452 60.1435 53.2415C60.1205 53.2374 60.1068 53.2213 60.1001 53.2086C60.0937 53.1968 60.0909 53.1841 60.0895 53.1741C60.0839 53.1361 60.0898 53.0744 60.1006 53.0026C60.1119 52.9282 60.1298 52.8352 60.1524 52.73C60.2428 52.3091 60.4105 51.681 60.5374 51.2313C60.5426 51.2127 60.5573 51.1986 60.5756 51.1948L61.3363 51.0362C61.3567 51.0319 61.3774 51.0412 61.3885 51.0595ZM62.0096 52.5268C61.5769 52.3009 61.3406 52.052 61.2344 51.8114C61.1263 51.5663 61.1562 51.3367 61.2424 51.1622L60.6249 51.291C60.4993 51.7378 60.3377 52.3447 60.2501 52.7528C60.2277 52.8571 60.2103 52.9476 60.1995 53.0189C60.1978 53.0299 60.1964 53.0404 60.1951 53.0502C60.2072 53.0273 60.2209 53.0001 60.2363 52.9679C60.3724 52.6841 60.6774 52.5508 61.0522 52.505C61.3336 52.4707 61.6629 52.4845 62.0096 52.5268ZM66.362 53.6267C66.4994 53.6711 66.6095 53.7081 66.6858 53.7346C67.5994 53.9992 69.7264 54.5906 70.941 54.8439C71.571 54.9753 71.9122 55.4149 72.0813 55.9047C72.2147 56.2911 72.2423 56.7107 72.2223 57.0424C72.5079 56.5333 72.8487 55.8804 73.0609 55.3663C73.1213 55.2199 73.171 55.0854 73.206 54.9693C73.2412 54.8524 73.2605 54.7574 73.2622 54.6885C73.264 54.6157 73.2464 54.594 73.2344 54.5878C73.2268 54.5838 73.2124 54.5805 73.1866 54.5852C73.1607 54.5898 73.1268 54.602 73.0836 54.6245C72.8895 54.7257 72.5785 54.7629 72.2108 54.7609C71.8408 54.7589 71.4048 54.717 70.9549 54.6533C70.055 54.5261 69.0946 54.3115 68.4848 54.1525L68.4837 54.1522L68.4837 54.1522C68.1588 54.0598 67.4253 53.8699 66.362 53.6267Z" fill="#FAEC03"/>
<path d="M60.9057 52.9319C60.6033 53.2455 60.2404 53.9981 61.2082 54.4998C62.4178 55.127 64.837 57.4789 64.9882 57.7924C65.1394 58.106 68.6171 61.2418 69.0707 61.7122C69.4336 62.0885 68.7179 62.6007 68.3147 62.8097C67.2059 60.9282 64.081 56.5695 60.4521 54.1863C60.3838 54.1414 60.3178 54.0977 60.2538 54.0549C60.0027 55.1475 60.0737 57.1471 61.3594 59.5171C62.448 61.524 62.821 64.9525 62.8714 66.4159H62.2666C62.1457 63.5309 61.4098 60.8237 61.057 59.8307C60.805 59.099 60.2102 57.1653 59.8474 55.2838C59.3938 52.9319 58.1841 53.7159 58.0329 53.7159C57.9119 53.7159 58.0833 53.4023 58.1841 53.2455C58.4239 53.2044 58.7296 53.1694 59.0345 53.1626C57.6752 52.0045 59.5439 52.4612 60.9057 52.9319Z" fill="#FAEC03"/>
<path fill-rule="evenodd" clip-rule="evenodd" d="M58.9448 53.1618C58.8257 53.0544 58.7363 52.9616 58.6739 52.8817C58.5972 52.7837 58.5534 52.6958 58.557 52.6195C58.5589 52.5788 58.5742 52.5435 58.601 52.5157C58.6268 52.4889 58.6611 52.4709 58.6989 52.4587C58.774 52.4346 58.8759 52.4294 58.9934 52.4365C59.4642 52.465 60.2704 52.6974 60.9449 52.9309C60.9612 52.9365 60.9734 52.9505 60.9773 52.9677C60.9813 52.985 60.9763 53.0032 60.9642 53.0157C60.8193 53.1662 60.6634 53.4191 60.6564 53.689C60.6496 53.9521 60.7839 54.2475 61.2511 54.4901C61.857 54.8047 62.7605 55.5482 63.5284 56.2484C63.9131 56.5992 64.265 56.9403 64.5305 57.2135C64.6631 57.3501 64.7745 57.47 64.8576 57.5658C64.9389 57.6596 64.9976 57.7353 65.0199 57.7815C65.0261 57.7944 65.0443 57.8203 65.0782 57.8606C65.1108 57.8995 65.155 57.9484 65.2094 58.0059C65.3182 58.121 65.4664 58.2694 65.6418 58.4407C65.9927 58.7832 66.4513 59.2158 66.9196 59.6535C67.2035 59.9188 67.4911 60.1862 67.7604 60.4366C68.3784 61.0111 68.8997 61.4957 69.0572 61.6592C69.1588 61.7648 69.1872 61.8843 69.1613 62.0052C69.1363 62.1218 69.0618 62.235 68.9682 62.3377C68.7802 62.5435 68.4972 62.7257 68.295 62.8307C68.2721 62.8426 68.2442 62.8343 68.2309 62.8116C67.1335 60.9468 64.0409 56.6276 60.4533 54.2679C60.4064 54.237 60.3605 54.2067 60.3156 54.1768C60.0889 55.262 60.1803 57.199 61.4219 59.4913C61.9654 60.4947 62.3288 61.8501 62.5627 63.1334C62.7967 64.4175 62.9019 65.6341 62.927 66.3629C62.9274 66.3767 62.9225 66.3902 62.9132 66.4002C62.9039 66.4102 62.8911 66.4159 62.8777 66.4159H62.2782C62.2518 66.4159 62.2301 66.3943 62.229 66.3669C62.1093 63.5094 61.3813 60.8273 61.033 59.8454L61.0328 59.845C60.7825 59.117 60.1922 57.195 59.8319 55.3242C59.6086 54.1644 59.2038 53.8002 58.8567 53.7101C58.6802 53.6643 58.5112 53.6869 58.3748 53.7223C58.3072 53.7398 58.2485 53.7603 58.2006 53.7769L58.1994 53.7774C58.1757 53.7856 58.1538 53.7932 58.1354 53.7987C58.1184 53.8038 58.0989 53.8089 58.0818 53.8089C58.056 53.8089 58.0293 53.8 58.0109 53.7756C57.9942 53.7534 57.9909 53.7268 57.9913 53.7056C57.9921 53.6634 58.0087 53.6119 58.029 53.5625C58.0707 53.461 58.14 53.3413 58.1907 53.2624C58.1982 53.2506 58.2102 53.2426 58.2236 53.2403C58.4295 53.2049 58.6839 53.1741 58.9448 53.1618ZM59.0919 53.1569C58.9321 53.0196 58.821 52.9074 58.7504 52.8171C58.6758 52.7217 58.6538 52.66 58.6555 52.6245C58.6562 52.6093 58.6612 52.598 58.6708 52.588C58.6814 52.577 58.6994 52.5657 58.7281 52.5565C58.7859 52.538 58.8736 52.5319 58.9877 52.5388C59.4274 52.5654 60.182 52.7782 60.8408 53.003C60.702 53.1678 60.5649 53.4154 60.5578 53.6863C60.5497 53.9991 60.7151 54.3263 61.207 54.5817C61.8001 54.8897 62.695 55.6248 63.4633 56.3254C63.8467 56.675 64.1972 57.0147 64.461 57.2863C64.593 57.4221 64.7029 57.5405 64.7843 57.6344C64.8675 57.7303 64.9165 57.7957 64.9317 57.8273C64.9442 57.8533 64.9705 57.8882 65.0038 57.9279C65.0383 57.969 65.084 58.0194 65.1391 58.0777C65.2492 58.1942 65.3985 58.3437 65.5743 58.5153C65.926 58.8586 66.3853 59.2918 66.8537 59.7296C67.1397 59.997 67.429 60.2659 67.6992 60.5171C68.3151 61.0897 68.832 61.5703 68.9874 61.7316C69.0656 61.8129 69.0835 61.8969 69.065 61.9829C69.0457 62.0732 68.9852 62.1701 68.8966 62.2672C68.7316 62.448 68.4839 62.6132 68.2911 62.7178C67.1699 60.8258 64.0864 56.5363 60.5061 54.1814C60.449 54.1438 60.3934 54.107 60.3393 54.0709C60.3513 54.0212 60.3639 53.9736 60.3771 53.9281C60.4223 53.772 60.4101 53.6389 60.3477 53.5295C60.2862 53.4218 60.1803 53.3446 60.0521 53.2895C59.801 53.1815 59.4445 53.1502 59.0919 53.1569ZM60.252 54.0124C60.2618 53.9732 60.272 53.9353 60.2827 53.8986C60.3217 53.7639 60.3084 53.6615 60.2628 53.5817C60.2163 53.5002 60.1318 53.4345 60.0144 53.3841C59.8093 53.296 59.5197 53.2609 59.2136 53.2586C59.4629 53.4617 59.8032 53.7105 60.252 54.0124ZM60.2272 54.1178C59.7031 53.7662 59.3216 53.4839 59.0575 53.2601C58.7729 53.2676 58.4885 53.2996 58.261 53.3377C58.2135 53.4134 58.155 53.5168 58.1197 53.6027C58.1008 53.6487 58.0911 53.6838 58.09 53.7052C58.0947 53.7041 58.1007 53.7025 58.1081 53.7003C58.124 53.6956 58.1437 53.6887 58.168 53.6803L58.1701 53.6796C58.2177 53.663 58.2795 53.6414 58.3509 53.6229C58.4955 53.5854 58.6824 53.5593 58.8806 53.6107C59.2829 53.7152 59.7024 54.1292 59.9287 55.3041C60.2877 57.1685 60.8763 59.0854 61.1256 59.8103C61.4747 60.7945 62.199 63.462 62.3254 66.3135H62.8265C62.7984 65.5843 62.6932 64.4005 62.4658 63.1524C62.2326 61.8728 61.8716 60.5304 61.336 59.5415C60.07 57.2043 59.9847 55.2236 60.2272 54.1178Z" fill="#FAEC03"/>
<path d="M55.0212 66.416C57.5334 59.418 58.0451 54.6447 57.987 53.1328L57.8125 53.4568C57.673 58.6405 55.5446 64.1481 54.4978 66.254L55.0212 66.416Z" fill="#FAEC03"/>
<path fill-rule="evenodd" clip-rule="evenodd" d="M57.9433 53.134C57.9682 53.1392 57.9862 53.1596 57.9871 53.1838C58.0437 54.6922 57.5463 59.4341 55.1128 66.3798C55.1031 66.4075 55.0716 66.4225 55.0425 66.4133L54.5358 66.2526C54.5208 66.2478 54.5086 66.2372 54.5024 66.2234C54.4961 66.2096 54.4963 66.1939 54.5029 66.1803C55.5146 64.0948 57.5722 58.6383 57.7071 53.5058C57.7073 53.498 57.7093 53.4904 57.7129 53.4834L57.8818 53.162C57.8932 53.1404 57.9185 53.1289 57.9433 53.134ZM57.8179 53.5202C57.6808 58.6255 55.6529 64.0412 54.6297 66.1709L55.0249 66.2962C57.3349 59.6879 57.8851 55.0927 57.8801 53.4018L57.8179 53.5202Z" fill="#FAEC03"/>
<path d="M48.3297 62.9204L47.5109 61.5222C48.2751 61.0561 50.0328 59.8754 50.9498 58.8811C52.0961 57.6382 51.7686 57.7936 54.0611 55.9293C54.9586 55.1995 55.579 54.5887 55.9913 54.1188C56.0614 54.0327 56.1273 53.9544 56.1906 53.8833C56.4864 53.5196 56.6349 53.2647 56.6812 53.1328L56.6691 53.4513C56.5107 53.5536 56.3602 53.6928 56.1906 53.8833C56.1304 53.9573 56.0641 54.0359 55.9913 54.1188C55.0929 55.2242 53.5259 57.6299 48.3297 62.9204Z" fill="#FAEC03"/>
<path fill-rule="evenodd" clip-rule="evenodd" d="M56.6521 53.1336C56.6782 53.1381 56.6969 53.1601 56.6959 53.1852L56.6876 53.4046C56.8594 53.3092 57.0166 53.2688 57.1593 53.2712C57.3228 53.274 57.4616 53.333 57.5759 53.4209C57.8021 53.5946 57.9359 53.8834 57.9913 54.0937L57.8878 54.1182C57.8351 53.9184 57.7095 53.6537 57.5088 53.4995C57.4096 53.4233 57.2931 53.3747 57.1574 53.3724C57.0212 53.37 56.8602 53.4142 56.6722 53.533L56.6484 53.4992L56.6722 53.533C56.6683 53.5355 56.6645 53.5379 56.6606 53.5404C56.5097 53.6379 56.3644 53.7716 56.1984 53.9579C56.1388 54.0312 56.0732 54.1089 56.0013 54.1908C55.8399 54.3894 55.6565 54.6306 55.4335 54.9239C54.4297 56.2441 52.624 58.6192 48.4139 62.9043C48.4022 62.9162 48.3853 62.922 48.3684 62.92C48.3514 62.9181 48.3365 62.9086 48.3282 62.8944L47.5176 61.5106C47.504 61.4873 47.5118 61.4579 47.5354 61.4435C48.2915 60.9825 50.026 59.8172 50.9285 58.8389C51.1819 58.5643 51.3634 58.3576 51.5177 58.1818C51.7065 57.9668 51.8547 57.798 52.0444 57.6075C52.3911 57.2594 52.8794 56.835 54.0141 55.9125C54.9002 55.1922 55.512 54.59 55.918 54.1276C55.9872 54.0425 56.0525 53.965 56.1154 53.8944C56.4068 53.536 56.5491 53.2895 56.592 53.1674C56.6004 53.1435 56.626 53.1291 56.6521 53.1336ZM56.5328 53.5031C56.5479 53.4922 56.563 53.4817 56.5783 53.4715L56.58 53.4268C56.5655 53.451 56.5498 53.4765 56.5328 53.5031ZM55.3188 54.9017C54.9829 55.2261 54.575 55.5899 54.0835 55.9894C52.9486 56.912 52.4643 57.3332 52.122 57.677C51.9334 57.8663 51.7888 58.0311 51.6028 58.2431C51.4491 58.4182 51.2672 58.6255 51.0088 58.9056C50.1122 59.8774 48.413 61.0247 47.6351 61.5029L48.3858 62.7844C52.5161 58.5763 54.3131 56.2244 55.3188 54.9017Z" fill="#FAEC03"/>
<path d="M53.5229 52.8837C53.1329 53.0868 51.6511 53.6451 48.8433 54.2543C46.0355 54.8634 44.9436 55.6248 44.7486 55.9294L44.6024 54.8634C48.2583 54.4065 53.0842 52.8837 53.3767 52.7314C53.6106 52.6096 53.5716 52.7822 53.5229 52.8837Z" fill="#FAEC03"/>
<path d="M56.3421 53.2982C56.3293 53.3253 56.3153 53.3406 56.3014 53.3406L56.3421 53.2982C56.4636 53.0406 56.4824 51.709 55.424 52.1223L54.1078 52.7314C54.0103 52.6807 53.9031 52.5487 54.2541 52.4269C54.6928 52.2746 55.2777 51.97 55.424 51.6655C55.541 51.4218 55.2777 50.8533 55.1315 50.5995C54.4491 50.3964 52.4407 49.8685 49.867 49.3812C46.6497 48.7721 46.0648 48.6198 44.0175 47.5538L44.3099 46.9447C44.6999 47.4523 46.2695 48.6198 49.4282 49.2289C52.587 49.8381 54.1566 50.1934 54.5466 50.2949C55.0642 50.4104 55.8904 50.5084 56.0039 49.9641L55.8627 49.2289C53.1329 46.6909 47.6441 41.4016 47.5272 41.158C47.4102 40.9143 47.9659 40.6503 48.2583 40.5488C49.3307 42.1224 52.4115 46.031 56.1552 49.0766L55.8627 49.2289C56.0039 49.5525 56.04 49.7909 56.0039 49.9641L56.5939 53.036L56.3421 53.2982Z" fill="#FAEC03"/>
<path fill-rule="evenodd" clip-rule="evenodd" d="M47.7957 40.5514C47.8168 40.5445 47.84 40.5519 47.8528 40.5698C48.9741 42.1304 52.1981 46.0098 56.115 49.032C56.1286 49.0425 56.1358 49.0592 56.1341 49.0762C56.1324 49.0932 56.1219 49.1081 56.1065 49.1158L55.8432 49.2458C55.9744 49.544 56.0126 49.7755 55.9769 49.9531L56.5929 52.9952C56.5962 53.0115 56.591 53.0284 56.5791 53.0401L56.3209 53.2951C56.3137 53.3084 56.3051 53.3212 56.2947 53.3316C56.2825 53.3438 56.263 53.3573 56.2371 53.3573C56.2167 53.3573 56.1983 53.3452 56.1905 53.3266C56.1827 53.308 56.1871 53.2866 56.2015 53.2723L56.2378 53.2364C56.2634 53.1793 56.2864 53.0614 56.2887 52.9164C56.291 52.767 56.2712 52.597 56.2151 52.4488C56.1591 52.3005 56.0687 52.1785 55.9325 52.1156C55.7969 52.0529 55.6056 52.0441 55.3371 52.1433L53.9597 52.7478C53.946 52.7539 53.9302 52.7535 53.9167 52.7469C53.8873 52.7324 53.8554 52.7112 53.8307 52.6839C53.8062 52.6566 53.7852 52.6186 53.7895 52.5729C53.7938 52.5271 53.8224 52.4865 53.8683 52.4516C53.9142 52.4167 53.982 52.3837 54.0765 52.3525C54.3036 52.2778 54.5684 52.1656 54.7947 52.0353C55.0236 51.9034 55.2034 51.7582 55.2729 51.621C55.2971 51.5732 55.3038 51.5041 55.2933 51.417C55.2829 51.3311 55.2564 51.2337 55.2207 51.1341C55.1525 50.9438 55.053 50.7516 54.9785 50.6266C54.2474 50.4216 52.1586 49.9024 49.4878 49.4228C47.8033 49.1203 46.8048 48.9307 45.9591 48.684C45.1123 48.4369 44.4198 48.1327 43.3466 47.6028C43.3347 47.5969 43.3256 47.5865 43.3214 47.574C43.3171 47.5615 43.3181 47.5478 43.3241 47.536L43.6305 46.9308C43.6382 46.9156 43.6532 46.9054 43.6703 46.9036C43.6874 46.9018 43.7042 46.9087 43.7149 46.922C43.9127 47.1661 44.4186 47.5783 45.2911 48.0054C46.1623 48.4318 47.3961 48.8717 49.0464 49.1736C52.353 49.7784 53.9986 50.1316 54.4102 50.2331C54.68 50.2902 55.0253 50.3417 55.316 50.3136C55.605 50.2856 55.818 50.1825 55.8739 49.9523L55.7314 49.2486C54.3013 47.9872 52.156 46.0493 50.351 44.3948C49.4458 43.5651 48.6261 42.8066 48.0249 42.2403C47.7243 41.9571 47.4782 41.7219 47.3033 41.5497C47.2158 41.4636 47.1459 41.3931 47.0957 41.34C47.0707 41.3135 47.0502 41.291 47.0349 41.273C47.0207 41.2563 47.0075 41.2396 47.0007 41.2261C46.9591 41.144 46.9805 41.0625 47.0292 40.993C47.0768 40.9249 47.1541 40.8621 47.2403 40.8065C47.4138 40.6949 47.6404 40.6025 47.7957 40.5514ZM55.7856 49.1629L55.9901 49.0619C52.1171 46.0588 48.9312 42.2348 47.7924 40.6577C47.6441 40.7091 47.4466 40.7927 47.2954 40.89C47.2132 40.9429 47.1487 40.9973 47.1121 41.0496C47.0765 41.1005 47.0711 41.1426 47.0908 41.1815L47.0908 41.1816C47.091 41.1818 47.0923 41.1841 47.0961 41.1892C47.0999 41.1943 47.1052 41.2008 47.112 41.2089C47.1258 41.2251 47.1449 41.2462 47.1694 41.2721C47.2184 41.3238 47.2873 41.3934 47.3744 41.4792C47.5486 41.6506 47.7941 41.8853 48.0944 42.1682C48.6952 42.7341 49.5145 43.4923 50.4196 44.3218C52.2189 45.9711 54.3562 47.9018 55.7856 49.1629ZM55.9092 50.1266C55.7938 50.3108 55.5686 50.3892 55.3258 50.4126C55.0188 50.4423 54.6607 50.3879 54.3883 50.3303L54.3866 50.3299L54.3866 50.3299C54.1889 50.2811 53.6992 50.1726 52.8682 50.0046C53.8924 50.2356 54.6498 50.4303 55.0254 50.5363C55.0377 50.5398 55.0482 50.5478 55.0548 50.5586C55.1327 50.6867 55.2415 50.894 55.3157 51.1009C55.3528 51.2043 55.3818 51.3093 55.3934 51.4052C55.4049 51.5001 55.4001 51.5923 55.3631 51.6655C55.2793 51.8309 55.0761 51.9884 54.8455 52.1212C54.6122 52.2556 54.3409 52.3704 54.1084 52.447C54.0191 52.4764 53.9631 52.5051 53.9298 52.5304C53.8966 52.5557 53.8907 52.5737 53.8899 52.5821C53.8891 52.5907 53.8924 52.6025 53.9061 52.6177C53.9155 52.6282 53.928 52.6381 53.9419 52.6467L55.2975 52.0517C55.298 52.0514 55.2986 52.0512 55.2991 52.051C55.2995 52.0508 55.2999 52.0507 55.3003 52.0505C55.5854 51.9449 55.8069 51.9476 55.9752 52.0254C56.1432 52.103 56.2478 52.2507 56.3096 52.4139C56.3712 52.5771 56.3919 52.7601 56.3894 52.918C56.3884 52.9829 56.3834 53.045 56.3753 53.1006L56.4888 52.9886L55.9092 50.1266ZM47.8775 49.0243C46.7793 48.7508 45.9098 48.4194 45.2464 48.0946C44.4306 47.6953 43.9237 47.3048 43.6865 47.0427L43.4368 47.536C44.4826 48.0513 45.1612 48.3473 45.9877 48.5885C46.5133 48.7419 47.0991 48.8732 47.8775 49.0243ZM53.4075 52.7825C53.3992 52.8153 53.3855 52.8484 53.3716 52.8759C53.3667 52.8855 53.3588 52.8934 53.3491 52.8982C52.9345 53.1029 51.3769 53.6587 48.4347 54.264C46.9668 54.5661 45.9492 54.9055 45.2741 55.2063C44.9366 55.3567 44.6853 55.4971 44.5064 55.6181C44.3263 55.7397 44.2228 55.8394 44.1771 55.9072C44.1655 55.9244 44.1444 55.9327 44.124 55.9281C44.1036 55.9236 44.0882 55.907 44.0852 55.8866L43.9321 54.8275C43.9301 54.8143 43.9337 54.8008 43.942 54.7902C43.9502 54.7796 43.9625 54.7727 43.9759 54.7711C45.8875 54.5445 48.1063 54.0534 49.8863 53.5997C50.7761 53.373 51.5558 53.1556 52.132 52.9856C52.4202 52.9006 52.6573 52.8274 52.8318 52.7709C53.0082 52.7137 53.1166 52.6747 53.1508 52.6578C53.2141 52.6266 53.2665 52.6101 53.3089 52.611C53.3311 52.6114 53.3529 52.6167 53.3716 52.6295C53.3905 52.6424 53.4022 52.6602 53.4086 52.6786C53.4205 52.7128 53.4153 52.7515 53.4075 52.7825ZM53.3068 52.7105C53.2895 52.7101 53.2551 52.7176 53.1959 52.7469C53.1535 52.7678 53.0369 52.8092 52.8632 52.8655C52.6876 52.9224 52.4496 52.9958 52.1609 53.081C51.5834 53.2514 50.8025 53.469 49.9115 53.6961C48.1457 54.1462 45.9456 54.6338 44.0391 54.8638L44.1689 55.7613C44.2337 55.6951 44.3264 55.6191 44.4494 55.5359C44.6343 55.411 44.8911 55.2677 45.2327 55.1155C45.916 54.8111 46.9409 54.4697 48.4142 54.1666C51.3181 53.5691 52.8631 53.0215 53.2885 52.8166C53.2973 52.7976 53.3049 52.7773 53.3097 52.7584C53.3161 52.7329 53.3155 52.7176 53.3134 52.7112C53.3122 52.7109 53.3101 52.7106 53.3068 52.7105Z" fill="#FAEC03"/>
<path d="M57.3893 48.9562C57.3893 49.5657 56.3063 49.3117 55.7648 49.1086C55.371 49.9212 54.7901 51.6379 55.6171 52.0036C56.6509 52.4607 55.9125 53.6796 56.0602 53.5272C56.2078 53.3749 56.5032 53.3749 56.6509 53.3749C56.769 53.3749 56.897 53.4764 56.9463 53.5272L57.2416 53.832L57.3893 53.3749L57.9801 53.2225L59.8999 52.7654L60.7861 51.0894L60.343 50.6322C60.1067 50.3885 60.2445 50.1244 60.343 50.0228C60.4907 49.6165 60.6679 48.9257 60.1953 49.4133C59.7227 49.9009 59.3092 49.718 59.1615 49.5657C58.2754 48.9562 59.1615 48.4991 59.1615 48.1944C59.1615 47.9506 59.0631 48.0928 59.0138 48.1944C58.9646 48.2959 58.8071 48.56 58.5708 48.8038C58.2754 49.1086 58.1277 48.9562 57.8324 48.9562C57.537 48.9562 57.0939 47.2802 56.9463 46.9754C56.8281 46.7316 56.7986 46.8738 56.7986 46.9754C56.9955 47.3817 57.3893 48.3467 57.3893 48.9562Z" fill="#FAEC03"/>
<path fill-rule="evenodd" clip-rule="evenodd" d="M56.8669 47.0116C56.9389 47.1617 57.0358 47.3834 57.1297 47.6336C57.1202 47.6054 57.111 47.5776 57.1019 47.5504C57.0929 47.5233 57.0841 47.4968 57.0755 47.4709C57.0091 47.2721 56.9559 47.1165 56.9214 47.0451C56.9008 47.0025 56.8843 46.975 56.8719 46.9581C56.8689 46.9739 56.8673 46.9928 56.8669 47.0116ZM57.2765 48.0625C57.3741 48.381 57.4474 48.71 57.4474 48.9757C57.4474 49.0586 57.4289 49.1297 57.3934 49.189C57.3579 49.2481 57.3072 49.2925 57.2469 49.3247C57.1279 49.3885 56.9683 49.407 56.7991 49.4006C56.4759 49.3885 56.0942 49.2843 55.8268 49.1873C55.6381 49.5859 55.413 50.1826 55.3274 50.7261C55.2831 51.0072 55.2768 51.2699 55.3293 51.4824C55.3813 51.6932 55.49 51.8519 55.6765 51.9346C55.9403 52.0516 56.0948 52.2194 56.1774 52.4053C56.2594 52.5899 56.2682 52.7876 56.2495 52.9618C56.2318 53.1269 56.189 53.2739 56.1573 53.3734C56.2252 53.336 56.3023 53.3146 56.3756 53.3019C56.4884 53.2825 56.6005 53.2825 56.6728 53.2825H56.6738C56.7441 53.2825 56.8132 53.3123 56.8684 53.3455C56.9242 53.3791 56.971 53.4194 56.9979 53.4472L57.2336 53.6911L57.3543 53.3163C57.3595 53.3002 57.3722 53.2881 57.388 53.284L57.9695 53.1335L59.8357 52.6879L60.6793 51.0875L60.269 50.663C60.1419 50.5315 60.1129 50.3903 60.1323 50.2671C60.1503 50.1526 60.2095 50.0571 60.2616 50.0002C60.2964 49.9033 60.3325 49.7911 60.3606 49.6838C60.3898 49.5721 60.4094 49.4691 60.4111 49.3952C60.412 49.3575 60.408 49.333 60.4022 49.3194C60.3996 49.3132 60.3975 49.3114 60.3972 49.3111C60.397 49.311 60.3969 49.3109 60.3967 49.3109C60.3965 49.3108 60.3958 49.3106 60.3942 49.3105C60.3863 49.3101 60.3662 49.3142 60.3293 49.3391C60.2938 49.3631 60.2483 49.4024 60.1914 49.4613C59.9517 49.7094 59.7219 49.7915 59.5289 49.7875C59.3402 49.7835 59.1924 49.6972 59.1112 49.615C58.8914 49.4626 58.7738 49.3147 58.7286 49.1692C58.6827 49.0213 58.7144 48.8855 58.7722 48.7659C58.8199 48.6671 58.8877 48.5751 58.9474 48.4941C58.9589 48.4785 58.9701 48.4633 58.9808 48.4485C59.0147 48.4017 59.0435 48.3596 59.0638 48.3208C59.0843 48.2817 59.0938 48.2503 59.0938 48.2247C59.0938 48.1973 59.0924 48.1764 59.0903 48.1608C59.0866 48.1656 59.0826 48.171 59.0786 48.177C59.0644 48.1979 59.0505 48.2232 59.0391 48.2468C58.9886 48.3512 58.8309 48.616 58.5947 48.8605C58.4426 49.0178 58.3221 49.0627 58.198 49.0627C58.1436 49.0627 58.0895 49.054 58.0362 49.0455C58.0317 49.0448 58.0273 49.0441 58.0229 49.0433C57.9642 49.034 57.9038 49.0251 57.8351 49.0251C57.7775 49.0251 57.7268 48.9853 57.6848 48.9373C57.6412 48.8873 57.5977 48.8177 57.555 48.7365C57.4694 48.5737 57.3823 48.3551 57.3004 48.1293C57.2924 48.1072 57.2844 48.0849 57.2765 48.0625ZM56.9257 46.872C56.9508 46.8971 56.9773 46.9397 57.0068 47.0008C57.0449 47.0796 57.1006 47.2432 57.1658 47.4387C57.1744 47.4646 57.1833 47.4912 57.1923 47.5184C57.2519 47.6975 57.3192 47.8996 57.3899 48.0946C57.4714 48.3195 57.5566 48.5328 57.6389 48.6892C57.6801 48.7676 57.7194 48.8294 57.7557 48.871C57.7937 48.9145 57.8201 48.9263 57.8351 48.9263C57.9116 48.9263 57.9782 48.9362 58.0374 48.9456C58.0414 48.9463 58.0453 48.9469 58.0491 48.9475C58.1043 48.9563 58.1513 48.9639 58.198 48.9639C58.2916 48.9639 58.3889 48.9336 58.5271 48.7906C58.7554 48.5543 58.9073 48.2984 58.9536 48.2026C58.9665 48.176 58.9828 48.1462 59.0003 48.1203C59.0167 48.0961 59.0385 48.0685 59.0638 48.0539C59.0771 48.0461 59.0974 48.0386 59.1204 48.0448C59.1442 48.0512 59.1591 48.069 59.1678 48.0859C59.1837 48.1168 59.1893 48.1643 59.1893 48.2247C59.1893 48.2741 59.1715 48.3225 59.1478 48.3679C59.1239 48.4136 59.0914 48.4607 59.0573 48.5078C59.0456 48.5238 59.0338 48.5399 59.0219 48.5561C58.9622 48.6372 58.9009 48.7204 58.8576 48.8101C58.8066 48.9158 58.7838 49.024 58.8196 49.139C58.8558 49.2555 58.9548 49.3884 59.168 49.5355C59.1706 49.5373 59.1731 49.5393 59.1753 49.5416C59.2401 49.6087 59.3666 49.6852 59.5308 49.6886C59.6934 49.6921 59.8991 49.624 60.1239 49.3914C60.1831 49.3301 60.2338 49.2856 60.2771 49.2563C60.319 49.2281 60.3604 49.2097 60.3992 49.2118C60.4199 49.2129 60.4392 49.2198 60.4556 49.233C60.4716 49.2458 60.4824 49.2625 60.4897 49.2798C60.5038 49.3132 60.5076 49.355 60.5066 49.3975C60.5047 49.4837 60.4825 49.5961 60.4528 49.7097C60.4228 49.8241 60.3842 49.9433 60.3475 50.0446C60.3451 50.0512 60.3414 50.0572 60.3366 50.0622C60.2936 50.1066 60.2415 50.1878 60.2266 50.283C60.2121 50.3752 60.2315 50.4843 60.3366 50.5931L60.7721 51.0438C60.787 51.0593 60.7904 51.0831 60.7802 51.1024L59.9093 52.7547C59.9027 52.7671 59.8914 52.776 59.8781 52.7792L57.9918 53.2296L57.991 53.2298L57.4366 53.3733L57.2998 53.7982C57.2945 53.8144 57.2815 53.8267 57.2654 53.8306C57.2493 53.8346 57.2324 53.8296 57.2207 53.8175L56.9304 53.5171C56.9088 53.4948 56.8685 53.4599 56.8204 53.431C56.7715 53.4016 56.7197 53.3813 56.6738 53.3813C56.6009 53.3813 56.4958 53.3814 56.3913 53.3994C56.2858 53.4176 56.1889 53.4529 56.1269 53.5171C56.1217 53.5224 56.1158 53.5282 56.1095 53.5328C56.1063 53.535 56.1016 53.5381 56.0957 53.5406C56.0902 53.5428 56.079 53.5463 56.0653 53.5432C56.0491 53.5395 56.0378 53.5286 56.0318 53.517C56.0267 53.5072 56.0257 53.4981 56.0255 53.4934C56.0249 53.4838 56.0266 53.4746 56.0277 53.4689C56.0315 53.4506 56.0412 53.4207 56.0526 53.3859C56.0555 53.377 56.0584 53.3679 56.0615 53.3585C56.093 53.2607 56.137 53.1145 56.1546 52.9509C56.1721 52.7872 56.1628 52.6093 56.0906 52.4466C56.0189 52.2851 55.8831 52.1337 55.6389 52.0254C55.4189 51.9278 55.2942 51.7398 55.2367 51.5068C55.1797 51.2756 55.1879 50.9975 55.2331 50.7102C55.3237 50.1353 55.5653 49.5069 55.7601 49.1038C55.771 49.0814 55.7964 49.0709 55.8192 49.0795C56.0831 49.1788 56.477 49.2896 56.8026 49.3019C56.966 49.308 57.1058 49.289 57.203 49.237C57.2508 49.2113 57.2874 49.1782 57.3122 49.1368C57.337 49.0955 57.3518 49.043 57.3518 48.9757C57.3518 48.6839 57.2573 48.3023 57.1367 47.9403C57.0165 47.5796 56.8722 47.2436 56.7762 47.0451C56.7729 47.0382 56.7712 47.0306 56.7712 47.023C56.7712 46.9959 56.7731 46.9649 56.7785 46.9372C56.7812 46.9234 56.7849 46.909 56.7905 46.8958C56.7958 46.8832 56.8044 46.8678 56.8187 46.8563C56.835 46.8431 56.8559 46.8375 56.8779 46.8428C56.8972 46.8474 56.9131 46.8594 56.9257 46.872Z" fill="#FAEC03"/>
<path d="M55.488 43.6547C54.2625 41.5268 53.4455 37.8654 53.1901 36.3007C53.7008 36.04 54.6914 35.5497 54.5688 35.6749C54.4156 35.8313 54.4156 37.709 54.5688 38.6478C54.722 39.5866 56.1007 44.9065 56.4071 45.2194C56.6522 45.4698 56.7135 45.9496 56.7135 46.1582C56.7135 46.2625 56.6828 46.3773 56.5603 46.0018C56.4377 45.6262 55.7943 44.2806 55.488 43.6547Z" fill="#FAEC03"/>
<path d="M43.5392 61.0227C43.3861 61.0227 42.9265 60.8662 42.6201 60.3968H43.0797C43.2839 60.6054 43.6618 61.0227 43.5392 61.0227Z" fill="#FAEC03"/>
<path d="M70.8068 65.7167C70.5617 65.7167 70.5005 65.2995 70.5005 65.0909C70.8681 64.8405 71.1643 65.1952 71.2664 65.4038C71.2153 65.5081 71.0519 65.7167 70.8068 65.7167Z" fill="#FAEC03"/>
<path fill-rule="evenodd" clip-rule="evenodd" d="M54.6278 35.7437C54.6232 35.751 54.6176 35.7573 54.6127 35.7624C54.6107 35.7644 54.6049 35.7726 54.5973 35.793C54.5902 35.8122 54.583 35.838 54.5762 35.8706C54.5625 35.9357 54.5508 36.0229 54.5413 36.128C54.5224 36.3378 54.5129 36.6138 54.5129 36.9151C54.5129 37.518 54.551 38.2166 54.6267 38.6804C54.7025 39.1451 55.0834 40.7018 55.4842 42.1837C55.6845 42.9241 55.8894 43.6445 56.0633 44.1991C56.1502 44.4765 56.2292 44.7117 56.2957 44.8869C56.329 44.9746 56.3589 45.0465 56.3849 45.1009C56.4118 45.1572 56.432 45.189 56.4445 45.2018C56.5757 45.3358 56.655 45.5278 56.7018 45.7083C56.7488 45.8897 56.7645 46.0657 56.7645 46.1737C56.7645 46.2012 56.7626 46.2327 56.7563 46.2582C56.7534 46.2703 56.7482 46.2865 56.7379 46.3001C56.7324 46.3074 56.7241 46.3157 56.7121 46.3211C56.6995 46.3269 56.6858 46.3281 56.6729 46.3251C56.65 46.3199 56.6342 46.3034 56.6246 46.2913C56.6137 46.2776 56.603 46.2596 56.5922 46.2379C56.5705 46.1942 56.5448 46.1284 56.514 46.034C56.4541 45.8505 56.2649 45.4249 56.0507 44.9638C55.8375 44.505 55.6015 44.015 55.4489 43.7032C54.8355 42.6375 54.3256 41.1909 53.9374 39.818C53.5488 38.4438 53.2813 37.1398 53.1538 36.3583C53.1501 36.3361 53.1611 36.314 53.1808 36.304C53.4355 36.1739 53.81 35.9865 54.1058 35.8472C54.2534 35.7776 54.3826 35.7194 54.4677 35.6864C54.5084 35.6707 54.5447 35.6583 54.5683 35.6555C54.5742 35.6548 54.5842 35.654 54.595 35.6565C54.606 35.6592 54.6306 35.6694 54.6366 35.6994C54.6411 35.7218 54.6308 35.7389 54.6278 35.7437ZM53.259 36.3788C53.3882 37.1605 53.6526 38.4411 54.0339 39.7895C54.4215 41.1604 54.929 42.5979 55.5364 43.6527C55.5369 43.6537 55.5375 43.6548 55.538 43.6558C55.6908 43.9679 55.9275 44.4594 56.1414 44.9198C56.3546 45.3787 56.547 45.8108 56.6093 46.0015C56.6305 46.0666 56.6486 46.1156 56.6638 46.1518C56.6619 46.0505 56.6462 45.8947 56.6047 45.7346C56.5599 45.5617 56.4865 45.3899 56.3735 45.2744C56.3478 45.2482 56.3215 45.2021 56.2946 45.1459C56.2669 45.0879 56.2358 45.013 56.202 44.9241C56.1344 44.746 56.0548 44.5085 55.9676 44.2304C55.7932 43.674 55.5879 42.952 55.3874 42.211C54.9869 40.7302 54.6045 39.1682 54.5276 38.6973C54.4506 38.2255 54.4124 37.5207 54.4124 36.9151C54.4124 36.6121 54.422 36.3327 54.4413 36.1186C54.4509 36.0116 54.4631 35.9198 54.478 35.849C54.4828 35.8263 54.4879 35.8052 54.4936 35.7862C54.4119 35.8185 54.2896 35.8736 54.1479 35.9403C53.866 36.0731 53.5117 36.25 53.259 36.3788ZM54.5805 35.7573C54.5805 35.7574 54.5803 35.7574 54.58 35.7574ZM42.6261 60.3395C42.6348 60.3228 42.6518 60.3124 42.6703 60.3124H43.1283C43.1416 60.3124 43.1544 60.3178 43.1638 60.3274C43.2661 60.4319 43.4124 60.5892 43.5182 60.721C43.5705 60.7861 43.6155 60.8482 43.6395 60.8957C43.6456 60.9078 43.651 60.9202 43.6547 60.9323C43.6582 60.9438 43.6613 60.9583 43.66 60.9735C43.6586 60.9901 43.6517 61.0094 43.6343 61.0232C43.6183 61.0359 43.6 61.0387 43.5863 61.0387C43.4984 61.0387 43.3372 60.9957 43.1611 60.8958C42.9835 60.795 42.7863 60.6338 42.6286 60.3921C42.6183 60.3764 42.6173 60.3561 42.6261 60.3395ZM42.7679 60.415C42.9046 60.5974 43.0645 60.7236 43.2099 60.8061C43.3478 60.8844 43.4699 60.9219 43.5449 60.9327C43.5247 60.8961 43.4881 60.8452 43.4406 60.786C43.3426 60.664 43.2076 60.518 43.1074 60.415H42.7679ZM70.9601 64.9824C71.1029 65.0722 71.2076 65.2213 71.2611 65.3306C71.2682 65.3451 71.2682 65.3621 71.2611 65.3765C71.2327 65.4344 71.175 65.5183 71.0915 65.5882C71.0077 65.6584 70.895 65.7167 70.7582 65.7167C70.6017 65.7167 70.5138 65.5825 70.4667 65.4489C70.4183 65.3115 70.4027 65.1492 70.4027 65.0417C70.4027 65.0245 70.4111 65.0085 70.4251 64.999C70.5242 64.9315 70.6211 64.9031 70.7132 64.9046C70.8049 64.9061 70.888 64.9371 70.9601 64.9824ZM70.5035 65.0697C70.5788 65.0235 70.6485 65.0062 70.7116 65.0072C70.7815 65.0083 70.8472 65.0319 70.9075 65.0698C71.0198 65.1404 71.1083 65.2579 71.1593 65.3531C71.1334 65.3981 71.0888 65.4578 71.0279 65.5088C70.9566 65.5685 70.8657 65.6141 70.7582 65.6141C70.6706 65.6141 70.6058 65.5404 70.5612 65.4141C70.5219 65.3025 70.506 65.1685 70.5035 65.0697Z" fill="#FAEC03"/>
<path d="M62.8821 61.468C63.1732 61.6063 63.6099 61.468 63.4643 61.1914C63.3188 60.9149 62.8821 61.1914 62.8821 61.468Z" fill="#FAEC03"/>
<path d="M66.3755 57.3198C66.3755 57.541 65.8903 57.2276 65.6477 57.0432L66.23 56.6284C66.2785 56.7667 66.3755 57.0985 66.3755 57.3198Z" fill="#FAEC03"/>
<path fill-rule="evenodd" clip-rule="evenodd" d="M66.2011 56.6307C66.2154 56.6356 66.2267 56.6478 66.2315 56.6633C66.2788 56.819 66.3755 57.1981 66.3755 57.4552C66.3755 57.4945 66.3661 57.5321 66.3401 57.5588C66.3144 57.5852 66.2809 57.5924 66.2503 57.5915C66.1909 57.5899 66.1163 57.5577 66.042 57.5161C65.8904 57.4311 65.7104 57.289 65.5914 57.1847C65.5802 57.1749 65.5737 57.1599 65.5739 57.1441C65.5742 57.1283 65.581 57.1135 65.5926 57.1041L66.1593 56.6386C66.1713 56.6288 66.1868 56.6258 66.2011 56.6307ZM65.6971 57.1458C65.8108 57.2417 65.9593 57.3551 66.0845 57.4253C66.1579 57.4664 66.2161 57.4885 66.2526 57.4895C66.2699 57.4899 66.2752 57.4855 66.2763 57.4844C66.277 57.4836 66.2823 57.4779 66.2823 57.4552C66.2823 57.246 66.2119 56.9404 66.1627 56.7634L65.6971 57.1458ZM63.3539 61.6226C63.4297 61.6349 63.4953 61.6849 63.5371 61.7763C63.5778 61.8654 63.5801 61.95 63.5485 62.0224C63.5178 62.0928 63.4584 62.1435 63.3898 62.1757C63.2533 62.2398 63.0618 62.2394 62.9078 62.1551C62.8921 62.1464 62.8821 62.1288 62.8821 62.1094C62.8821 61.9308 63.002 61.761 63.1358 61.6773C63.2036 61.6348 63.2806 61.6107 63.3539 61.6226ZM62.9771 62.0776C63.1014 62.1343 63.2494 62.1305 63.3531 62.0819C63.4084 62.0559 63.4465 62.0194 63.4644 61.9783C63.4815 61.9392 63.4839 61.888 63.4537 61.822C63.4246 61.7583 63.384 61.7307 63.3402 61.7236C63.294 61.7161 63.2382 61.7308 63.182 61.7659C63.0771 61.8316 62.9903 61.9557 62.9771 62.0776Z" fill="#FAEC03"/>
<path d="M74.4524 45.7638C74.4524 45.6111 74.4216 45.2447 74.2987 45.0004C74.6676 45.0004 74.7598 45.3057 74.7598 45.4584L74.4524 45.7638Z" fill="#FAEC03"/>
<path d="M73.8375 42.4048H73.2227V42.2521V41.9468H73.6838L73.8375 42.4048Z" fill="#FAEC03"/>
<path d="M53.3939 42.5575C53.7628 42.6796 53.9575 42.4048 54.0087 42.2521C53.855 42.2521 53.5168 42.3132 53.3939 42.5575Z" fill="#FAEC03"/>
<path d="M44.786 68.5131H44.0175L44.6323 67.9024L44.786 68.5131Z" fill="#FAEC03"/>
<path fill-rule="evenodd" clip-rule="evenodd" d="M73.1269 41.9968C73.1269 41.9692 73.1495 41.9468 73.1773 41.9468H73.637C73.6587 41.9468 73.6779 41.9606 73.6848 41.981L73.838 42.4373C73.8431 42.4526 73.8405 42.4693 73.8311 42.4824C73.8216 42.4954 73.8064 42.5032 73.7902 42.5032H73.1773C73.1495 42.5032 73.1269 42.4808 73.1269 42.4531V41.9968ZM73.2277 42.0469V42.4031H73.7202L73.6006 42.0469H73.2277ZM53.6903 42.3152C53.8156 42.267 53.9444 42.251 54.0264 42.251C54.0426 42.251 54.0578 42.2587 54.0673 42.2718C54.0767 42.2848 54.0793 42.3016 54.0742 42.3169C54.0461 42.4005 53.9794 42.5167 53.8682 42.5964C53.7543 42.6779 53.597 42.7187 53.3976 42.6527C53.3837 42.6481 53.3726 42.6378 53.367 42.6244C53.3614 42.611 53.3619 42.5958 53.3685 42.5829C53.4375 42.4458 53.5652 42.3633 53.6903 42.3152ZM53.4913 42.5747C53.6285 42.6041 53.7324 42.5702 53.8092 42.5152C53.8714 42.4707 53.9173 42.411 53.9473 42.3558C53.8824 42.3629 53.8036 42.379 53.7267 42.4085C53.6341 42.4441 53.5485 42.4975 53.4913 42.5747ZM74.2069 45.0126C74.2161 44.9979 74.2323 44.9889 74.2498 44.9889C74.4501 44.9889 74.5801 45.0728 74.6584 45.1808C74.7348 45.2862 74.7598 45.4112 74.7598 45.4952C74.7598 45.5085 74.7545 45.5212 74.745 45.5306L74.4386 45.8348C74.4242 45.8491 74.4025 45.8534 74.3837 45.8457C74.3649 45.8379 74.3526 45.8197 74.3526 45.7994C74.3526 45.726 74.3451 45.5994 74.3226 45.4614C74.3 45.3229 74.2627 45.1765 74.2047 45.0613C74.1969 45.0458 74.1977 45.0274 74.2069 45.0126ZM74.3299 45.0947C74.3742 45.2058 74.4033 45.3304 74.4221 45.4454C74.4362 45.5317 74.4447 45.6139 74.4492 45.6828L74.6584 45.4751C74.6547 45.4079 74.6322 45.316 74.5766 45.2393C74.5272 45.1712 74.4502 45.1127 74.3299 45.0947ZM44.6942 67.8064C44.7117 67.8113 44.7252 67.825 44.7296 67.8425L44.8828 68.451C44.8866 68.4659 44.8832 68.4817 44.8736 68.4939C44.8641 68.506 44.8494 68.5131 44.8339 68.5131H44.0679C44.0475 68.5131 44.0291 68.5009 44.0213 68.4822C44.0135 68.4635 44.0178 68.442 44.0322 68.4277L44.6451 67.8193C44.6579 67.8065 44.6767 67.8016 44.6942 67.8064ZM44.1896 68.4131H44.7693L44.6534 67.9526L44.1896 68.4131Z" fill="#FAEC03"/>
<path d="M37.0305 37.0532V69.2125H29.2158V49.9261L22.0408 69.2125H15.7341L8.51345 49.8803V69.2125H0.698669V37.0532H9.93017L18.9332 59.3173L27.8448 37.0532H37.0305Z" fill="#FAEC03"/>
<path d="M55.7541 26.113H47.8716L46.608 29.8507H41.2227L48.8645 8.69059H54.8214L62.4632 29.8507H57.0177L55.7541 26.113ZM54.4303 22.1342L51.8129 14.3875L49.2255 22.1342H54.4303Z" fill="#FAEC03"/>
<path d="M93.3101 29.8507H88.1654L79.561 16.799V29.8507H74.4163V8.69059H79.561L88.1654 21.8026V8.69059H93.3101V29.8507Z" fill="#FAEC03"/>
<path d="M120.687 15.3823C120.306 14.6789 119.754 14.1464 119.032 13.7847C118.33 13.4029 117.498 13.212 116.535 13.212C114.87 13.212 113.536 13.7646 112.533 14.8698C111.531 15.955 111.029 17.4119 111.029 19.2405C111.029 21.1897 111.551 22.717 112.594 23.8222C113.657 24.9073 115.111 25.4499 116.956 25.4499C118.22 25.4499 119.283 25.1284 120.145 24.4853C121.028 23.8423 121.669 22.9179 122.071 21.7122H115.542V17.9142H126.734V22.7069C126.353 23.993 125.701 25.1887 124.778 26.2939C123.876 27.3991 122.722 28.2934 121.318 28.9766C119.914 29.6598 118.33 30.0014 116.565 30.0014C114.479 30.0014 112.614 29.5493 110.969 28.645C109.344 27.7206 108.071 26.4446 107.148 24.8169C106.245 23.1892 105.794 21.3304 105.794 19.2405C105.794 17.1506 106.245 15.2918 107.148 13.6641C108.071 12.0163 109.344 10.7403 110.969 9.83601C112.594 8.91163 114.449 8.44944 116.535 8.44944C119.062 8.44944 121.188 9.06235 122.913 10.2881C124.658 11.5139 125.811 13.212 126.373 15.3823H120.687Z" fill="#FAEC03"/>
<path d="M149.199 30.0617C147.214 30.0617 145.388 29.5995 143.724 28.6752C142.079 27.7508 140.765 26.4647 139.782 24.8169C138.82 23.149 138.338 21.2802 138.338 19.2104C138.338 17.1406 138.82 15.2818 139.782 13.634C140.765 11.9862 142.079 10.7001 143.724 9.77572C145.388 8.85135 147.214 8.38916 149.199 8.38916C151.185 8.38916 153 8.85135 154.645 9.77572C156.31 10.7001 157.613 11.9862 158.556 13.634C159.519 15.2818 160 17.1406 160 19.2104C160 21.2802 159.519 23.149 158.556 24.8169C157.593 26.4647 156.289 27.7508 154.645 28.6752C153 29.5995 151.185 30.0617 149.199 30.0617ZM149.199 25.3595C150.884 25.3595 152.228 24.7968 153.231 23.6715C154.254 22.5462 154.765 21.0591 154.765 19.2104C154.765 17.3415 154.254 15.8545 153.231 14.7493C152.228 13.6239 150.884 13.0613 149.199 13.0613C147.494 13.0613 146.131 13.6139 145.108 14.7191C144.105 15.8243 143.603 17.3214 143.603 19.2104C143.603 21.0792 144.105 22.5763 145.108 23.7016C146.131 24.8069 147.494 25.3595 149.199 25.3595Z" fill="#FAEC03"/>
<path d="M37.0306 0V32.1593H29.0655V12.8729L21.7525 32.1593H15.3246L7.96507 12.8271V32.1593H0V0H9.40902L18.5852 22.2641L27.6681 0H37.0306Z" fill="#FAEC03"/>
<path d="M90.1417 44.0444V58.9536C90.1417 60.4445 90.5223 61.5923 91.2836 62.3969C92.0449 63.2016 93.1622 63.6039 94.6356 63.6039C96.1091 63.6039 97.2387 63.2016 98.0245 62.3969C98.8103 61.5923 99.2033 60.4445 99.2033 58.9536V44.0444H105.502V58.9181C105.502 61.1427 105.011 63.0241 104.029 64.5623C103.046 66.1006 101.72 67.2602 100.05 68.0411C98.4051 68.8221 96.5634 69.2126 94.5251 69.2126C92.4869 69.2126 90.6574 68.8339 89.0366 68.0766C87.4404 67.2957 86.1757 66.1361 85.2425 64.5978C84.3094 63.0359 83.8428 61.1427 83.8428 58.9181V44.0444H90.1417Z" fill="#FAEC03"/>
<path d="M129.742 34.9556V41.0952H121.2V66.4157H113.346V41.0952H104.803V34.9556H129.742Z" fill="#FAEC03"/>
<path d="M160 34.9556V66.4157H152.146V53.4642H139.93V66.4157H132.076V34.9556H139.93V47.2797H152.146V34.9556H160Z" fill="#FAEC03"/>
<path d="M159.301 0L159.301 4.89381L41.2227 4.8938L41.2227 -5.16452e-06L159.301 0Z" fill="#FAEC03"/>
<path d="M159.301 74.106L159.301 78.9998L17.4673 78.9998L17.4673 74.106L159.301 74.106Z" fill="#FAEC03"/>
<path d="M0.698669 66.416H8.38426V77.6019H0.698669V66.416Z" fill="#FAEC03"/>
<path d="M83.8428 39.1504H90.131V47.5398H83.8428V39.1504Z" fill="#FAEC03"/>
<path d="M99.214 41.9468H105.502V53.1326H99.214V41.9468Z" fill="#FAEC03"/>
<path d="M62.8821 51.7343C62.8821 53.6649 61.1616 55.2299 59.0393 55.2299C56.917 55.2299 55.1965 53.6649 55.1965 51.7343C55.1965 49.8038 56.917 48.2388 59.0393 48.2388C61.1616 48.2388 62.8821 49.8038 62.8821 51.7343Z" fill="#FAEC03"/>
</svg>
