<svg width="80" height="82" viewBox="0 0 80 82" fill="none" xmlns="http://www.w3.org/2000/svg">
<circle cx="52" cy="47" r="26.5" fill="#191814" stroke="#191814" stroke-width="3"/>
<path d="M52 20C51.6935 18.6392 51.1485 16.9384 50.3393 15.1286C47.7888 9.42453 42.6128 2.63785 34 2" stroke="#191814" stroke-width="3"/>
<path d="M67.7347 5.40055C52.278 3.79227 49.4329 10.3919 49.9424 13.8928C50.3814 14.4544 50.794 15.029 51.1787 15.6045C62.2302 18.2139 66.8209 9.88913 67.7347 5.40055Z" fill="#191814" stroke="#191814" stroke-width="3"/>
<circle cx="25" cy="57" r="23.5" fill="#191814" stroke="#FAEC03" stroke-width="3"/>
<circle cx="16.5" cy="47.5" r="2.5" fill="#FAEC03"/>
<circle cx="11.5" cy="56.5" r="2.5" fill="#FAEC03"/>
<circle cx="19.5" cy="56.5" r="2.5" fill="#FAEC03"/>
<circle cx="19.5" cy="56.5" r="2.5" fill="#FAEC03"/>
<circle cx="16.5" cy="66.5" r="2.5" fill="#FAEC03"/>
<circle cx="25.5" cy="63.5" r="2.5" fill="#FAEC03"/>
<circle cx="26.5" cy="70.5" r="2.5" fill="#FAEC03"/>
<circle cx="35.5" cy="66.5" r="2.5" fill="#FAEC03"/>
<circle cx="32.5" cy="57.5" r="2.5" fill="#FAEC03"/>
<circle cx="39.5" cy="57.5" r="2.5" fill="#FAEC03"/>
<circle cx="35.5" cy="47.5" r="2.5" fill="#FAEC03"/>
<circle cx="26.5" cy="50.5" r="2.5" fill="#FAEC03"/>
<circle cx="25.5" cy="42.5" r="2.5" fill="#FAEC03"/>
</svg>
